M48
;DRILL file {kicad (after 2015-mar-04 BZR unknown)-product} date Mon 01 Jun 2015 23:23:01 BST
;FORMAT={-:-/ absolute / inch / decimal}
FMAT,2
INCH,TZ
T1C0.030
T2C0.032
T3C0.138
%
G90
G05
M72
T1
X4.2Y-1.8
X4.2Y-1.9
X4.2Y-2.
X4.2Y-2.1
X4.2Y-2.2
X4.3Y-1.8
X4.3Y-1.9
X4.3Y-2.
X4.3Y-2.1
X4.3Y-2.2
X4.4Y-1.8
X4.4Y-1.9
X4.4Y-2.
X4.4Y-2.1
X4.4Y-2.2
X4.5Y-1.8
X4.5Y-1.9
X4.5Y-2.
X4.5Y-2.1
X4.5Y-2.2
X4.6Y-1.8
X4.6Y-1.9
X4.6Y-2.
X4.6Y-2.1
X4.6Y-2.2
X4.7Y-1.8
X4.7Y-1.9
X4.7Y-2.
X4.7Y-2.1
X4.7Y-2.2
X4.8Y-1.8
X4.8Y-1.9
X4.8Y-2.
X4.8Y-2.1
X4.8Y-2.2
X4.9Y-1.8
X4.9Y-1.9
X4.9Y-2.
X4.9Y-2.1
X4.9Y-2.2
X5.Y-1.8
X5.Y-1.9
X5.Y-2.
X5.Y-2.1
X5.Y-2.2
X5.1Y-1.8
X5.1Y-1.9
X5.1Y-2.
X5.1Y-2.1
X5.1Y-2.2
X5.2Y-1.8
X5.2Y-1.9
X5.2Y-2.
X5.2Y-2.1
X5.2Y-2.2
X5.3Y-1.8
X5.3Y-1.9
X5.3Y-2.
X5.3Y-2.1
X5.3Y-2.2
X5.4Y-1.8
X5.4Y-1.9
X5.4Y-2.
X5.4Y-2.1
X5.4Y-2.2
X5.5Y-1.8
X5.5Y-1.9
X5.5Y-2.
X5.5Y-2.1
X5.5Y-2.2
X5.6Y-1.8
X5.6Y-1.9
X5.6Y-2.
X5.6Y-2.1
X5.6Y-2.2
X5.7Y-1.8
X5.7Y-1.9
X5.7Y-2.
X5.7Y-2.1
X5.7Y-2.2
X5.8Y-1.8
X5.8Y-1.9
X5.8Y-2.
X5.8Y-2.1
X5.8Y-2.2
X5.9Y-1.8
X5.9Y-1.9
X5.9Y-2.
X5.9Y-2.1
X5.9Y-2.2
X6.Y-1.8
X6.Y-1.9
X6.Y-2.
X6.Y-2.1
X6.Y-2.2
X6.1Y-1.8
X6.1Y-1.9
X6.1Y-2.
X6.1Y-2.1
X6.1Y-2.2
X6.2Y-1.8
X6.2Y-1.9
X6.2Y-2.
X6.2Y-2.1
X6.2Y-2.2
X6.3Y-1.8
X6.3Y-1.9
X6.3Y-2.
X6.3Y-2.1
X6.3Y-2.2
X6.4Y-1.8
X6.4Y-1.9
X6.4Y-2.
X6.4Y-2.1
X6.4Y-2.2
X6.5Y-1.8
X6.5Y-1.9
X6.5Y-2.
X6.5Y-2.1
X6.5Y-2.2
X6.6Y-1.8
X6.6Y-1.9
X6.6Y-2.
X6.6Y-2.1
X6.6Y-2.2
X6.7Y-1.8
X6.7Y-1.9
X6.7Y-2.
X6.7Y-2.1
X6.7Y-2.2
X6.8Y-1.8
X6.8Y-1.9
X6.8Y-2.
X6.8Y-2.1
X6.8Y-2.2
X6.9Y-1.8
X6.9Y-1.9
X6.9Y-2.
X6.9Y-2.1
X6.9Y-2.2
X7.Y-1.8
X7.Y-1.9
X7.Y-2.
X7.Y-2.1
X7.Y-2.2
X7.1Y-1.8
X7.1Y-1.9
X7.1Y-2.
X7.1Y-2.1
X7.1Y-2.2
X7.2Y-1.8
X7.2Y-1.9
X7.2Y-2.
X7.2Y-2.1
X7.2Y-2.2
X7.3Y-1.8
X7.3Y-1.9
X7.3Y-2.
X7.3Y-2.1
X7.3Y-2.2
X7.4Y-1.8
X7.4Y-1.9
X7.4Y-2.
X7.4Y-2.1
X7.4Y-2.2
T2
X4.1Y-2.3
X4.1Y-2.4
X4.1Y-2.5
X4.1Y-2.5
X4.1Y-2.6
X4.1Y-2.7
X4.1Y-2.8
X4.1Y-2.9
X4.1Y-2.9
X4.1Y-3.
X4.1Y-3.
X4.1Y-3.1
X4.1Y-3.1
X4.1Y-3.2
X4.1Y-3.2
X4.1Y-3.3
X4.1Y-3.3
X4.1Y-3.4
X4.1Y-3.4
X4.1Y-3.5
X4.1Y-3.5
X4.1Y-3.6
X4.1Y-3.6
X4.1Y-3.7
X4.1Y-3.7
X4.1Y-3.8
X4.1Y-3.8
X4.1Y-3.9
X4.1Y-3.9
X4.1Y-4.
X4.1Y-4.
X4.1Y-4.1
X4.1Y-4.1
X4.1Y-4.2
X4.1Y-4.2
X4.1Y-4.3
X4.1Y-4.3
X4.1Y-4.4
X4.1Y-4.4
X4.1Y-4.5
X4.1Y-4.5
X4.1Y-4.6
X4.1Y-4.6
X4.1Y-4.7
X4.1Y-4.7
X4.1Y-4.8
X4.1Y-4.8
X4.1Y-4.9
X4.1Y-4.9
X4.1Y-5.
X4.1Y-5.
X4.1Y-5.1
X4.1Y-5.1
X4.1Y-5.2
X4.1Y-5.3
X4.2Y-2.3
X4.2Y-2.4
X4.2Y-2.5
X4.2Y-2.5
X4.2Y-2.6
X4.2Y-2.7
X4.2Y-2.8
X4.2Y-2.9
X4.2Y-2.9
X4.2Y-3.
X4.2Y-3.
X4.2Y-3.1
X4.2Y-3.1
X4.2Y-3.2
X4.2Y-3.2
X4.2Y-3.3
X4.2Y-3.3
X4.2Y-3.4
X4.2Y-3.4
X4.2Y-3.5
X4.2Y-3.5
X4.2Y-3.6
X4.2Y-3.6
X4.2Y-3.7
X4.2Y-3.7
X4.2Y-3.8
X4.2Y-3.8
X4.2Y-3.9
X4.2Y-3.9
X4.2Y-4.
X4.2Y-4.
X4.2Y-4.1
X4.2Y-4.1
X4.2Y-4.2
X4.2Y-4.2
X4.2Y-4.3
X4.2Y-4.3
X4.2Y-4.4
X4.2Y-4.4
X4.2Y-4.5
X4.2Y-4.5
X4.2Y-4.6
X4.2Y-4.6
X4.2Y-4.7
X4.2Y-4.7
X4.2Y-4.8
X4.2Y-4.8
X4.2Y-4.9
X4.2Y-4.9
X4.2Y-5.
X4.2Y-5.
X4.2Y-5.1
X4.2Y-5.1
X4.2Y-5.2
X4.2Y-5.3
X4.2Y-5.4
X4.2Y-5.5
X4.3Y-2.3
X4.3Y-2.4
X4.3Y-2.5
X4.3Y-2.5
X4.3Y-2.6
X4.3Y-2.7
X4.3Y-2.8
X4.3Y-2.9
X4.3Y-2.9
X4.3Y-3.
X4.3Y-3.
X4.3Y-3.1
X4.3Y-3.1
X4.3Y-3.2
X4.3Y-3.2
X4.3Y-3.3
X4.3Y-3.3
X4.3Y-3.4
X4.3Y-3.4
X4.3Y-3.5
X4.3Y-3.5
X4.3Y-3.6
X4.3Y-3.6
X4.3Y-3.7
X4.3Y-3.7
X4.3Y-3.8
X4.3Y-3.8
X4.3Y-3.9
X4.3Y-3.9
X4.3Y-4.
X4.3Y-4.
X4.3Y-4.1
X4.3Y-4.1
X4.3Y-4.2
X4.3Y-4.2
X4.3Y-4.3
X4.3Y-4.3
X4.3Y-4.4
X4.3Y-4.4
X4.3Y-4.5
X4.3Y-4.5
X4.3Y-4.6
X4.3Y-4.6
X4.3Y-4.7
X4.3Y-4.7
X4.3Y-4.8
X4.3Y-4.8
X4.3Y-4.9
X4.3Y-4.9
X4.3Y-5.
X4.3Y-5.
X4.3Y-5.1
X4.3Y-5.1
X4.3Y-5.2
X4.3Y-5.3
X4.3Y-5.4
X4.3Y-5.5
X4.4Y-2.3
X4.4Y-2.4
X4.4Y-2.5
X4.4Y-2.5
X4.4Y-2.6
X4.4Y-2.7
X4.4Y-2.8
X4.4Y-2.9
X4.4Y-2.9
X4.4Y-3.
X4.4Y-3.
X4.4Y-3.1
X4.4Y-3.1
X4.4Y-3.2
X4.4Y-3.2
X4.4Y-3.3
X4.4Y-3.3
X4.4Y-3.4
X4.4Y-3.4
X4.4Y-3.5
X4.4Y-3.5
X4.4Y-3.6
X4.4Y-3.6
X4.4Y-3.7
X4.4Y-3.7
X4.4Y-3.8
X4.4Y-3.8
X4.4Y-3.9
X4.4Y-3.9
X4.4Y-4.
X4.4Y-4.
X4.4Y-4.1
X4.4Y-4.1
X4.4Y-4.2
X4.4Y-4.2
X4.4Y-4.3
X4.4Y-4.3
X4.4Y-4.4
X4.4Y-4.4
X4.4Y-4.5
X4.4Y-4.5
X4.4Y-4.6
X4.4Y-4.6
X4.4Y-4.7
X4.4Y-4.7
X4.4Y-4.8
X4.4Y-4.8
X4.4Y-4.9
X4.4Y-4.9
X4.4Y-5.
X4.4Y-5.
X4.4Y-5.1
X4.4Y-5.1
X4.4Y-5.2
X4.4Y-5.3
X4.4Y-5.4
X4.4Y-5.5
X4.5Y-2.3
X4.5Y-2.4
X4.5Y-2.5
X4.5Y-2.5
X4.5Y-2.6
X4.5Y-2.7
X4.5Y-2.8
X4.5Y-2.9
X4.5Y-2.9
X4.5Y-3.
X4.5Y-3.
X4.5Y-3.1
X4.5Y-3.1
X4.5Y-3.2
X4.5Y-3.2
X4.5Y-3.3
X4.5Y-3.3
X4.5Y-3.4
X4.5Y-3.4
X4.5Y-3.5
X4.5Y-3.5
X4.5Y-3.6
X4.5Y-3.6
X4.5Y-3.7
X4.5Y-3.7
X4.5Y-3.8
X4.5Y-3.8
X4.5Y-3.9
X4.5Y-3.9
X4.5Y-4.
X4.5Y-4.
X4.5Y-4.1
X4.5Y-4.1
X4.5Y-4.2
X4.5Y-4.2
X4.5Y-4.3
X4.5Y-4.3
X4.5Y-4.4
X4.5Y-4.4
X4.5Y-4.5
X4.5Y-4.5
X4.5Y-4.6
X4.5Y-4.6
X4.5Y-4.7
X4.5Y-4.7
X4.5Y-4.8
X4.5Y-4.8
X4.5Y-4.9
X4.5Y-4.9
X4.5Y-5.
X4.5Y-5.
X4.5Y-5.1
X4.5Y-5.1
X4.5Y-5.2
X4.5Y-5.3
X4.5Y-5.4
X4.5Y-5.5
X4.6Y-2.3
X4.6Y-2.4
X4.6Y-2.5
X4.6Y-2.5
X4.6Y-2.6
X4.6Y-2.7
X4.6Y-2.8
X4.6Y-2.9
X4.6Y-2.9
X4.6Y-3.
X4.6Y-3.
X4.6Y-3.1
X4.6Y-3.1
X4.6Y-3.2
X4.6Y-3.2
X4.6Y-3.3
X4.6Y-3.3
X4.6Y-3.4
X4.6Y-3.4
X4.6Y-3.5
X4.6Y-3.5
X4.6Y-3.6
X4.6Y-3.6
X4.6Y-3.7
X4.6Y-3.7
X4.6Y-3.8
X4.6Y-3.8
X4.6Y-3.9
X4.6Y-3.9
X4.6Y-4.
X4.6Y-4.
X4.6Y-4.1
X4.6Y-4.1
X4.6Y-4.2
X4.6Y-4.2
X4.6Y-4.3
X4.6Y-4.3
X4.6Y-4.4
X4.6Y-4.4
X4.6Y-4.5
X4.6Y-4.5
X4.6Y-4.6
X4.6Y-4.6
X4.6Y-4.7
X4.6Y-4.7
X4.6Y-4.8
X4.6Y-4.8
X4.6Y-4.9
X4.6Y-4.9
X4.6Y-5.
X4.6Y-5.
X4.6Y-5.1
X4.6Y-5.1
X4.6Y-5.2
X4.6Y-5.3
X4.6Y-5.4
X4.6Y-5.5
X4.7Y-2.3
X4.7Y-2.4
X4.7Y-2.5
X4.7Y-2.5
X4.7Y-2.6
X4.7Y-2.7
X4.7Y-2.8
X4.7Y-2.9
X4.7Y-2.9
X4.7Y-3.
X4.7Y-3.
X4.7Y-3.1
X4.7Y-3.1
X4.7Y-3.2
X4.7Y-3.2
X4.7Y-3.3
X4.7Y-3.3
X4.7Y-3.4
X4.7Y-3.4
X4.7Y-3.5
X4.7Y-3.5
X4.7Y-3.6
X4.7Y-3.6
X4.7Y-3.7
X4.7Y-3.7
X4.7Y-3.8
X4.7Y-3.8
X4.7Y-3.9
X4.7Y-3.9
X4.7Y-4.
X4.7Y-4.
X4.7Y-4.1
X4.7Y-4.1
X4.7Y-4.2
X4.7Y-4.2
X4.7Y-4.3
X4.7Y-4.3
X4.7Y-4.4
X4.7Y-4.4
X4.7Y-4.5
X4.7Y-4.5
X4.7Y-4.6
X4.7Y-4.6
X4.7Y-4.7
X4.7Y-4.7
X4.7Y-4.8
X4.7Y-4.8
X4.7Y-4.9
X4.7Y-4.9
X4.7Y-5.
X4.7Y-5.
X4.7Y-5.1
X4.7Y-5.1
X4.7Y-5.2
X4.7Y-5.3
X4.7Y-5.4
X4.7Y-5.5
X4.8Y-2.3
X4.8Y-2.4
X4.8Y-2.5
X4.8Y-2.5
X4.8Y-2.6
X4.8Y-2.7
X4.8Y-2.8
X4.8Y-2.9
X4.8Y-2.9
X4.8Y-3.
X4.8Y-3.
X4.8Y-3.1
X4.8Y-3.1
X4.8Y-3.2
X4.8Y-3.2
X4.8Y-3.3
X4.8Y-3.3
X4.8Y-3.4
X4.8Y-3.4
X4.8Y-3.5
X4.8Y-3.5
X4.8Y-3.6
X4.8Y-3.6
X4.8Y-3.7
X4.8Y-3.7
X4.8Y-3.8
X4.8Y-3.8
X4.8Y-3.9
X4.8Y-3.9
X4.8Y-4.
X4.8Y-4.
X4.8Y-4.1
X4.8Y-4.1
X4.8Y-4.2
X4.8Y-4.2
X4.8Y-4.3
X4.8Y-4.3
X4.8Y-4.4
X4.8Y-4.4
X4.8Y-4.5
X4.8Y-4.5
X4.8Y-4.6
X4.8Y-4.6
X4.8Y-4.7
X4.8Y-4.7
X4.8Y-4.8
X4.8Y-4.8
X4.8Y-4.9
X4.8Y-4.9
X4.8Y-5.
X4.8Y-5.
X4.8Y-5.1
X4.8Y-5.1
X4.8Y-5.2
X4.8Y-5.3
X4.8Y-5.4
X4.8Y-5.5
X4.9Y-2.3
X4.9Y-2.4
X4.9Y-2.5
X4.9Y-2.5
X4.9Y-2.6
X4.9Y-2.7
X4.9Y-2.8
X4.9Y-2.9
X4.9Y-2.9
X4.9Y-3.
X4.9Y-3.
X4.9Y-3.1
X4.9Y-3.1
X4.9Y-3.2
X4.9Y-3.2
X4.9Y-3.3
X4.9Y-3.3
X4.9Y-3.4
X4.9Y-3.4
X4.9Y-3.5
X4.9Y-3.5
X4.9Y-3.6
X4.9Y-3.6
X4.9Y-3.7
X4.9Y-3.7
X4.9Y-3.8
X4.9Y-3.8
X4.9Y-3.9
X4.9Y-3.9
X4.9Y-4.
X4.9Y-4.
X4.9Y-4.1
X4.9Y-4.1
X4.9Y-4.2
X4.9Y-4.2
X4.9Y-4.3
X4.9Y-4.3
X4.9Y-4.4
X4.9Y-4.4
X4.9Y-4.5
X4.9Y-4.5
X4.9Y-4.6
X4.9Y-4.6
X4.9Y-4.7
X4.9Y-4.7
X4.9Y-4.8
X4.9Y-4.8
X4.9Y-4.9
X4.9Y-4.9
X4.9Y-5.
X4.9Y-5.
X4.9Y-5.1
X4.9Y-5.1
X4.9Y-5.2
X4.9Y-5.3
X4.9Y-5.4
X4.9Y-5.5
X5.Y-2.3
X5.Y-2.4
X5.Y-2.5
X5.Y-2.6
X5.Y-2.7
X5.Y-2.8
X5.Y-2.9
X5.Y-3.
X5.Y-3.1
X5.Y-3.2
X5.Y-3.3
X5.Y-3.4
X5.Y-3.5
X5.Y-3.6
X5.Y-3.7
X5.Y-3.8
X5.Y-3.9
X5.Y-4.
X5.Y-4.1
X5.Y-4.2
X5.Y-4.3
X5.Y-4.4
X5.Y-4.5
X5.Y-4.6
X5.Y-4.7
X5.Y-4.8
X5.Y-4.9
X5.Y-5.
X5.Y-5.1
X5.Y-5.2
X5.Y-5.3
X5.Y-5.4
X5.Y-5.5
X5.1Y-2.3
X5.1Y-2.4
X5.1Y-2.5
X5.1Y-2.6
X5.1Y-2.7
X5.1Y-2.8
X5.1Y-2.9
X5.1Y-3.
X5.1Y-3.1
X5.1Y-3.2
X5.1Y-3.3
X5.1Y-3.4
X5.1Y-3.5
X5.1Y-3.6
X5.1Y-3.7
X5.1Y-3.8
X5.1Y-3.9
X5.1Y-4.
X5.1Y-4.1
X5.1Y-4.2
X5.1Y-4.3
X5.1Y-4.4
X5.1Y-4.5
X5.1Y-4.6
X5.1Y-4.7
X5.1Y-4.8
X5.1Y-4.9
X5.1Y-5.
X5.1Y-5.1
X5.1Y-5.2
X5.1Y-5.3
X5.1Y-5.4
X5.1Y-5.5
X5.2Y-2.3
X5.2Y-2.4
X5.2Y-2.5
X5.2Y-2.6
X5.2Y-2.7
X5.2Y-2.8
X5.2Y-2.9
X5.2Y-3.
X5.2Y-3.1
X5.2Y-3.2
X5.2Y-3.3
X5.2Y-3.4
X5.2Y-3.5
X5.2Y-3.6
X5.2Y-3.7
X5.2Y-3.8
X5.2Y-3.9
X5.2Y-4.
X5.2Y-4.1
X5.2Y-4.2
X5.2Y-4.3
X5.2Y-4.4
X5.2Y-4.5
X5.2Y-4.6
X5.2Y-4.7
X5.2Y-4.8
X5.2Y-4.9
X5.2Y-5.
X5.2Y-5.1
X5.2Y-5.2
X5.2Y-5.3
X5.2Y-5.4
X5.2Y-5.5
X5.3Y-2.3
X5.3Y-2.4
X5.3Y-2.5
X5.3Y-2.6
X5.3Y-2.7
X5.3Y-2.8
X5.3Y-2.9
X5.3Y-3.
X5.3Y-3.1
X5.3Y-3.2
X5.3Y-3.3
X5.3Y-3.4
X5.3Y-3.5
X5.3Y-3.6
X5.3Y-3.7
X5.3Y-3.8
X5.3Y-3.9
X5.3Y-4.
X5.3Y-4.1
X5.3Y-4.2
X5.3Y-4.3
X5.3Y-4.4
X5.3Y-4.5
X5.3Y-4.6
X5.3Y-4.7
X5.3Y-4.8
X5.3Y-4.9
X5.3Y-5.
X5.3Y-5.1
X5.3Y-5.2
X5.3Y-5.3
X5.3Y-5.4
X5.3Y-5.5
X5.4Y-2.3
X5.4Y-2.4
X5.4Y-2.5
X5.4Y-2.6
X5.4Y-2.7
X5.4Y-2.8
X5.4Y-2.9
X5.4Y-3.
X5.4Y-3.1
X5.4Y-3.2
X5.4Y-3.3
X5.4Y-3.4
X5.4Y-3.5
X5.4Y-3.6
X5.4Y-3.7
X5.4Y-3.8
X5.4Y-3.9
X5.4Y-4.
X5.4Y-4.1
X5.4Y-4.2
X5.4Y-4.3
X5.4Y-4.4
X5.4Y-4.5
X5.4Y-4.6
X5.4Y-4.7
X5.4Y-4.8
X5.4Y-4.9
X5.4Y-5.
X5.4Y-5.1
X5.4Y-5.2
X5.4Y-5.3
X5.4Y-5.4
X5.4Y-5.5
X5.5Y-2.3
X5.5Y-2.4
X5.5Y-2.5
X5.5Y-2.6
X5.5Y-2.7
X5.5Y-2.8
X5.5Y-2.9
X5.5Y-3.
X5.5Y-3.1
X5.5Y-3.2
X5.5Y-3.3
X5.5Y-3.4
X5.5Y-3.5
X5.5Y-3.6
X5.5Y-3.7
X5.5Y-3.8
X5.5Y-3.9
X5.5Y-4.
X5.5Y-4.1
X5.5Y-4.2
X5.5Y-4.3
X5.5Y-4.4
X5.5Y-4.5
X5.5Y-4.6
X5.5Y-4.7
X5.5Y-4.8
X5.5Y-4.9
X5.5Y-5.
X5.5Y-5.1
X5.5Y-5.2
X5.5Y-5.3
X5.5Y-5.4
X5.5Y-5.5
X5.6Y-2.3
X5.6Y-2.4
X5.6Y-2.5
X5.6Y-2.6
X5.6Y-2.7
X5.6Y-2.8
X5.6Y-2.9
X5.6Y-3.
X5.6Y-3.1
X5.6Y-3.2
X5.6Y-3.3
X5.6Y-3.4
X5.6Y-3.5
X5.6Y-3.6
X5.6Y-3.7
X5.6Y-3.8
X5.6Y-3.9
X5.6Y-4.
X5.6Y-4.1
X5.6Y-4.2
X5.6Y-4.3
X5.6Y-4.4
X5.6Y-4.5
X5.6Y-4.6
X5.6Y-4.7
X5.6Y-4.8
X5.6Y-4.9
X5.6Y-5.
X5.6Y-5.1
X5.6Y-5.2
X5.6Y-5.3
X5.6Y-5.4
X5.6Y-5.5
X5.7Y-2.3
X5.7Y-2.4
X5.7Y-2.5
X5.7Y-2.6
X5.7Y-2.7
X5.7Y-2.8
X5.7Y-2.9
X5.7Y-3.
X5.7Y-3.1
X5.7Y-3.2
X5.7Y-3.3
X5.7Y-3.4
X5.7Y-3.5
X5.7Y-3.6
X5.7Y-3.7
X5.7Y-3.8
X5.7Y-3.9
X5.7Y-4.
X5.7Y-4.1
X5.7Y-4.2
X5.7Y-4.3
X5.7Y-4.4
X5.7Y-4.5
X5.7Y-4.6
X5.7Y-4.7
X5.7Y-4.8
X5.7Y-4.9
X5.7Y-5.
X5.7Y-5.1
X5.7Y-5.2
X5.7Y-5.3
X5.7Y-5.4
X5.7Y-5.5
X5.8Y-2.3
X5.8Y-2.4
X5.8Y-2.5
X5.8Y-2.6
X5.8Y-2.7
X5.8Y-2.8
X5.8Y-2.9
X5.8Y-3.
X5.8Y-3.1
X5.8Y-3.2
X5.8Y-3.3
X5.8Y-3.4
X5.8Y-3.5
X5.8Y-3.6
X5.8Y-3.7
X5.8Y-3.8
X5.8Y-3.9
X5.8Y-4.
X5.8Y-4.1
X5.8Y-4.2
X5.8Y-4.3
X5.8Y-4.4
X5.8Y-4.5
X5.8Y-4.6
X5.8Y-4.7
X5.8Y-4.8
X5.8Y-4.9
X5.8Y-5.
X5.8Y-5.1
X5.8Y-5.2
X5.8Y-5.3
X5.8Y-5.4
X5.8Y-5.5
X5.9Y-2.3
X5.9Y-2.4
X5.9Y-2.5
X5.9Y-2.5
X5.9Y-2.6
X5.9Y-2.7
X5.9Y-2.8
X5.9Y-2.9
X5.9Y-2.9
X5.9Y-3.
X5.9Y-3.
X5.9Y-3.1
X5.9Y-3.1
X5.9Y-3.2
X5.9Y-3.2
X5.9Y-3.3
X5.9Y-3.3
X5.9Y-3.3
X5.9Y-3.4
X5.9Y-3.4
X5.9Y-3.5
X5.9Y-3.5
X5.9Y-3.6
X5.9Y-3.6
X5.9Y-3.7
X5.9Y-3.7
X5.9Y-3.8
X5.9Y-3.8
X5.9Y-3.9
X5.9Y-3.9
X5.9Y-4.
X5.9Y-4.
X5.9Y-4.1
X5.9Y-4.1
X5.9Y-4.2
X5.9Y-4.2
X5.9Y-4.3
X5.9Y-4.3
X5.9Y-4.4
X5.9Y-4.4
X5.9Y-4.5
X5.9Y-4.5
X5.9Y-4.6
X5.9Y-4.6
X5.9Y-4.7
X5.9Y-4.7
X5.9Y-4.8
X5.9Y-4.8
X5.9Y-4.9
X5.9Y-4.9
X5.9Y-5.
X5.9Y-5.
X5.9Y-5.1
X5.9Y-5.1
X5.9Y-5.2
X5.9Y-5.3
X5.9Y-5.4
X5.9Y-5.5
X6.Y-2.3
X6.Y-2.4
X6.Y-2.5
X6.Y-2.5
X6.Y-2.6
X6.Y-2.7
X6.Y-2.8
X6.Y-2.9
X6.Y-2.9
X6.Y-3.
X6.Y-3.
X6.Y-3.1
X6.Y-3.1
X6.Y-3.2
X6.Y-3.2
X6.Y-3.3
X6.Y-3.3
X6.Y-3.3
X6.Y-3.4
X6.Y-3.4
X6.Y-3.5
X6.Y-3.5
X6.Y-3.6
X6.Y-3.6
X6.Y-3.7
X6.Y-3.7
X6.Y-3.8
X6.Y-3.8
X6.Y-3.9
X6.Y-3.9
X6.Y-4.
X6.Y-4.
X6.Y-4.1
X6.Y-4.1
X6.Y-4.2
X6.Y-4.2
X6.Y-4.3
X6.Y-4.3
X6.Y-4.4
X6.Y-4.4
X6.Y-4.5
X6.Y-4.5
X6.Y-4.6
X6.Y-4.6
X6.Y-4.7
X6.Y-4.7
X6.Y-4.8
X6.Y-4.8
X6.Y-4.9
X6.Y-4.9
X6.Y-5.
X6.Y-5.
X6.Y-5.1
X6.Y-5.1
X6.Y-5.2
X6.Y-5.3
X6.Y-5.4
X6.Y-5.5
X6.1Y-2.3
X6.1Y-2.4
X6.1Y-2.5
X6.1Y-2.5
X6.1Y-2.6
X6.1Y-2.7
X6.1Y-2.8
X6.1Y-2.9
X6.1Y-2.9
X6.1Y-3.
X6.1Y-3.
X6.1Y-3.1
X6.1Y-3.1
X6.1Y-3.2
X6.1Y-3.2
X6.1Y-3.3
X6.1Y-3.3
X6.1Y-3.3
X6.1Y-3.4
X6.1Y-3.4
X6.1Y-3.5
X6.1Y-3.5
X6.1Y-3.6
X6.1Y-3.6
X6.1Y-3.7
X6.1Y-3.7
X6.1Y-3.8
X6.1Y-3.8
X6.1Y-3.9
X6.1Y-3.9
X6.1Y-4.
X6.1Y-4.
X6.1Y-4.1
X6.1Y-4.1
X6.1Y-4.2
X6.1Y-4.2
X6.1Y-4.3
X6.1Y-4.3
X6.1Y-4.4
X6.1Y-4.4
X6.1Y-4.5
X6.1Y-4.5
X6.1Y-4.6
X6.1Y-4.6
X6.1Y-4.7
X6.1Y-4.7
X6.1Y-4.8
X6.1Y-4.8
X6.1Y-4.9
X6.1Y-4.9
X6.1Y-5.
X6.1Y-5.
X6.1Y-5.1
X6.1Y-5.1
X6.1Y-5.2
X6.1Y-5.3
X6.1Y-5.4
X6.1Y-5.5
X6.2Y-2.3
X6.2Y-2.4
X6.2Y-2.5
X6.2Y-2.5
X6.2Y-2.6
X6.2Y-2.7
X6.2Y-2.8
X6.2Y-2.9
X6.2Y-2.9
X6.2Y-3.
X6.2Y-3.
X6.2Y-3.1
X6.2Y-3.1
X6.2Y-3.2
X6.2Y-3.2
X6.2Y-3.3
X6.2Y-3.3
X6.2Y-3.3
X6.2Y-3.4
X6.2Y-3.4
X6.2Y-3.5
X6.2Y-3.5
X6.2Y-3.6
X6.2Y-3.6
X6.2Y-3.7
X6.2Y-3.7
X6.2Y-3.8
X6.2Y-3.8
X6.2Y-3.9
X6.2Y-3.9
X6.2Y-4.
X6.2Y-4.
X6.2Y-4.1
X6.2Y-4.1
X6.2Y-4.2
X6.2Y-4.2
X6.2Y-4.3
X6.2Y-4.3
X6.2Y-4.4
X6.2Y-4.4
X6.2Y-4.5
X6.2Y-4.5
X6.2Y-4.6
X6.2Y-4.6
X6.2Y-4.7
X6.2Y-4.7
X6.2Y-4.8
X6.2Y-4.8
X6.2Y-4.9
X6.2Y-4.9
X6.2Y-5.
X6.2Y-5.
X6.2Y-5.1
X6.2Y-5.1
X6.2Y-5.2
X6.2Y-5.3
X6.2Y-5.4
X6.2Y-5.5
X6.3Y-2.3
X6.3Y-2.4
X6.3Y-2.5
X6.3Y-2.5
X6.3Y-2.6
X6.3Y-2.7
X6.3Y-2.8
X6.3Y-2.9
X6.3Y-2.9
X6.3Y-3.
X6.3Y-3.
X6.3Y-3.1
X6.3Y-3.1
X6.3Y-3.2
X6.3Y-3.2
X6.3Y-3.3
X6.3Y-3.3
X6.3Y-3.3
X6.3Y-3.4
X6.3Y-3.4
X6.3Y-3.5
X6.3Y-3.5
X6.3Y-3.6
X6.3Y-3.6
X6.3Y-3.7
X6.3Y-3.7
X6.3Y-3.8
X6.3Y-3.8
X6.3Y-3.9
X6.3Y-3.9
X6.3Y-4.
X6.3Y-4.
X6.3Y-4.1
X6.3Y-4.1
X6.3Y-4.2
X6.3Y-4.2
X6.3Y-4.3
X6.3Y-4.3
X6.3Y-4.4
X6.3Y-4.4
X6.3Y-4.5
X6.3Y-4.5
X6.3Y-4.6
X6.3Y-4.6
X6.3Y-4.7
X6.3Y-4.7
X6.3Y-4.8
X6.3Y-4.8
X6.3Y-4.9
X6.3Y-4.9
X6.3Y-5.
X6.3Y-5.
X6.3Y-5.1
X6.3Y-5.1
X6.3Y-5.2
X6.3Y-5.3
X6.3Y-5.4
X6.3Y-5.5
X6.4Y-2.3
X6.4Y-2.4
X6.4Y-2.5
X6.4Y-2.5
X6.4Y-2.6
X6.4Y-2.7
X6.4Y-2.8
X6.4Y-2.9
X6.4Y-2.9
X6.4Y-3.
X6.4Y-3.
X6.4Y-3.1
X6.4Y-3.1
X6.4Y-3.2
X6.4Y-3.2
X6.4Y-3.3
X6.4Y-3.3
X6.4Y-3.3
X6.4Y-3.4
X6.4Y-3.4
X6.4Y-3.5
X6.4Y-3.5
X6.4Y-3.6
X6.4Y-3.6
X6.4Y-3.7
X6.4Y-3.7
X6.4Y-3.8
X6.4Y-3.8
X6.4Y-3.9
X6.4Y-3.9
X6.4Y-4.
X6.4Y-4.
X6.4Y-4.1
X6.4Y-4.1
X6.4Y-4.2
X6.4Y-4.2
X6.4Y-4.3
X6.4Y-4.3
X6.4Y-4.4
X6.4Y-4.4
X6.4Y-4.5
X6.4Y-4.5
X6.4Y-4.6
X6.4Y-4.6
X6.4Y-4.7
X6.4Y-4.7
X6.4Y-4.8
X6.4Y-4.8
X6.4Y-4.9
X6.4Y-4.9
X6.4Y-5.
X6.4Y-5.
X6.4Y-5.1
X6.4Y-5.1
X6.4Y-5.2
X6.4Y-5.3
X6.4Y-5.4
X6.4Y-5.5
X6.5Y-2.3
X6.5Y-2.4
X6.5Y-2.5
X6.5Y-2.5
X6.5Y-2.6
X6.5Y-2.7
X6.5Y-2.8
X6.5Y-2.9
X6.5Y-2.9
X6.5Y-3.
X6.5Y-3.
X6.5Y-3.1
X6.5Y-3.1
X6.5Y-3.2
X6.5Y-3.2
X6.5Y-3.3
X6.5Y-3.3
X6.5Y-3.3
X6.5Y-3.4
X6.5Y-3.4
X6.5Y-3.5
X6.5Y-3.5
X6.5Y-3.6
X6.5Y-3.6
X6.5Y-3.7
X6.5Y-3.7
X6.5Y-3.8
X6.5Y-3.8
X6.5Y-3.9
X6.5Y-3.9
X6.5Y-4.
X6.5Y-4.
X6.5Y-4.1
X6.5Y-4.1
X6.5Y-4.2
X6.5Y-4.2
X6.5Y-4.3
X6.5Y-4.3
X6.5Y-4.4
X6.5Y-4.4
X6.5Y-4.5
X6.5Y-4.5
X6.5Y-4.6
X6.5Y-4.6
X6.5Y-4.7
X6.5Y-4.7
X6.5Y-4.8
X6.5Y-4.8
X6.5Y-4.9
X6.5Y-4.9
X6.5Y-5.
X6.5Y-5.
X6.5Y-5.1
X6.5Y-5.1
X6.5Y-5.2
X6.5Y-5.3
X6.5Y-5.4
X6.5Y-5.5
X6.6Y-2.3
X6.6Y-2.4
X6.6Y-2.5
X6.6Y-2.5
X6.6Y-2.6
X6.6Y-2.7
X6.6Y-2.8
X6.6Y-2.9
X6.6Y-2.9
X6.6Y-3.
X6.6Y-3.
X6.6Y-3.1
X6.6Y-3.1
X6.6Y-3.2
X6.6Y-3.2
X6.6Y-3.3
X6.6Y-3.3
X6.6Y-3.3
X6.6Y-3.4
X6.6Y-3.4
X6.6Y-3.5
X6.6Y-3.5
X6.6Y-3.6
X6.6Y-3.6
X6.6Y-3.7
X6.6Y-3.7
X6.6Y-3.8
X6.6Y-3.8
X6.6Y-3.9
X6.6Y-3.9
X6.6Y-4.
X6.6Y-4.
X6.6Y-4.1
X6.6Y-4.1
X6.6Y-4.2
X6.6Y-4.2
X6.6Y-4.3
X6.6Y-4.3
X6.6Y-4.4
X6.6Y-4.4
X6.6Y-4.5
X6.6Y-4.5
X6.6Y-4.6
X6.6Y-4.6
X6.6Y-4.7
X6.6Y-4.7
X6.6Y-4.8
X6.6Y-4.8
X6.6Y-4.9
X6.6Y-4.9
X6.6Y-5.
X6.6Y-5.
X6.6Y-5.1
X6.6Y-5.1
X6.6Y-5.2
X6.6Y-5.3
X6.6Y-5.4
X6.6Y-5.5
X6.7Y-2.3
X6.7Y-2.4
X6.7Y-2.5
X6.7Y-2.5
X6.7Y-2.6
X6.7Y-2.7
X6.7Y-2.8
X6.7Y-2.9
X6.7Y-2.9
X6.7Y-3.
X6.7Y-3.
X6.7Y-3.1
X6.7Y-3.1
X6.7Y-3.2
X6.7Y-3.2
X6.7Y-3.3
X6.7Y-3.3
X6.7Y-3.3
X6.7Y-3.4
X6.7Y-3.4
X6.7Y-3.5
X6.7Y-3.5
X6.7Y-3.6
X6.7Y-3.6
X6.7Y-3.7
X6.7Y-3.7
X6.7Y-3.8
X6.7Y-3.8
X6.7Y-3.9
X6.7Y-3.9
X6.7Y-4.
X6.7Y-4.
X6.7Y-4.1
X6.7Y-4.1
X6.7Y-4.2
X6.7Y-4.2
X6.7Y-4.3
X6.7Y-4.3
X6.7Y-4.4
X6.7Y-4.4
X6.7Y-4.5
X6.7Y-4.5
X6.7Y-4.6
X6.7Y-4.6
X6.7Y-4.7
X6.7Y-4.7
X6.7Y-4.8
X6.7Y-4.8
X6.7Y-4.9
X6.7Y-4.9
X6.7Y-5.
X6.7Y-5.
X6.7Y-5.1
X6.7Y-5.1
X6.7Y-5.2
X6.7Y-5.3
X6.7Y-5.4
X6.7Y-5.5
X6.8Y-2.3
X6.8Y-2.4
X6.8Y-2.5
X6.8Y-2.6
X6.8Y-2.7
X6.8Y-2.8
X6.8Y-2.9
X6.8Y-3.
X6.8Y-3.1
X6.8Y-3.2
X6.8Y-3.3
X6.8Y-3.4
X6.8Y-3.5
X6.8Y-3.6
X6.8Y-3.7
X6.8Y-3.8
X6.8Y-3.9
X6.8Y-4.
X6.8Y-4.1
X6.8Y-4.2
X6.8Y-4.3
X6.8Y-4.4
X6.8Y-4.5
X6.8Y-4.6
X6.8Y-4.7
X6.8Y-4.8
X6.8Y-4.9
X6.8Y-5.
X6.8Y-5.1
X6.8Y-5.2
X6.8Y-5.3
X6.8Y-5.4
X6.8Y-5.5
X6.9Y-2.3
X6.9Y-2.4
X6.9Y-2.5
X6.9Y-2.6
X6.9Y-2.7
X6.9Y-2.8
X6.9Y-2.9
X6.9Y-3.
X6.9Y-3.1
X6.9Y-3.2
X6.9Y-3.3
X6.9Y-3.4
X6.9Y-3.5
X6.9Y-3.6
X6.9Y-3.7
X6.9Y-3.8
X6.9Y-3.9
X6.9Y-4.
X6.9Y-4.1
X6.9Y-4.2
X6.9Y-4.3
X6.9Y-4.4
X6.9Y-4.5
X6.9Y-4.6
X6.9Y-4.7
X6.9Y-4.8
X6.9Y-4.9
X6.9Y-5.
X6.9Y-5.1
X6.9Y-5.2
X6.9Y-5.3
X6.9Y-5.4
X6.9Y-5.5
X7.Y-2.3
X7.Y-2.4
X7.Y-2.5
X7.Y-2.6
X7.Y-2.7
X7.Y-2.8
X7.Y-2.9
X7.Y-3.
X7.Y-3.1
X7.Y-3.2
X7.Y-3.3
X7.Y-3.4
X7.Y-3.5
X7.Y-3.6
X7.Y-3.7
X7.Y-3.8
X7.Y-3.9
X7.Y-4.
X7.Y-4.1
X7.Y-4.2
X7.Y-4.3
X7.Y-4.4
X7.Y-4.5
X7.Y-4.6
X7.Y-4.7
X7.Y-4.8
X7.Y-4.9
X7.Y-5.
X7.Y-5.1
X7.Y-5.2
X7.Y-5.3
X7.Y-5.4
X7.Y-5.5
X7.1Y-2.3
X7.1Y-2.4
X7.1Y-2.5
X7.1Y-2.6
X7.1Y-2.7
X7.1Y-2.8
X7.1Y-2.9
X7.1Y-3.
X7.1Y-3.1
X7.1Y-3.2
X7.1Y-3.3
X7.1Y-3.4
X7.1Y-3.5
X7.1Y-3.6
X7.1Y-3.7
X7.1Y-3.8
X7.1Y-3.9
X7.1Y-4.
X7.1Y-4.1
X7.1Y-4.2
X7.1Y-4.3
X7.1Y-4.4
X7.1Y-4.5
X7.1Y-4.6
X7.1Y-4.7
X7.1Y-4.8
X7.1Y-4.9
X7.1Y-5.
X7.1Y-5.1
X7.1Y-5.2
X7.1Y-5.3
X7.1Y-5.4
X7.1Y-5.5
X7.2Y-2.3
X7.2Y-2.4
X7.2Y-2.5
X7.2Y-2.6
X7.2Y-2.7
X7.2Y-2.8
X7.2Y-2.9
X7.2Y-3.
X7.2Y-3.1
X7.2Y-3.2
X7.2Y-3.3
X7.2Y-3.4
X7.2Y-3.5
X7.2Y-3.6
X7.2Y-3.7
X7.2Y-3.8
X7.2Y-3.9
X7.2Y-4.
X7.2Y-4.1
X7.2Y-4.2
X7.2Y-4.3
X7.2Y-4.4
X7.2Y-4.5
X7.2Y-4.6
X7.2Y-4.7
X7.2Y-4.8
X7.2Y-4.9
X7.2Y-5.
X7.2Y-5.1
X7.2Y-5.2
X7.2Y-5.3
X7.2Y-5.4
X7.2Y-5.5
X7.3Y-2.3
X7.3Y-2.4
X7.3Y-2.5
X7.3Y-2.6
X7.3Y-2.7
X7.3Y-2.8
X7.3Y-2.9
X7.3Y-3.
X7.3Y-3.1
X7.3Y-3.2
X7.3Y-3.3
X7.3Y-3.4
X7.3Y-3.5
X7.3Y-3.6
X7.3Y-3.7
X7.3Y-3.8
X7.3Y-3.9
X7.3Y-4.
X7.3Y-4.1
X7.3Y-4.2
X7.3Y-4.3
X7.3Y-4.4
X7.3Y-4.5
X7.3Y-4.6
X7.3Y-4.7
X7.3Y-4.8
X7.3Y-4.9
X7.3Y-5.
X7.3Y-5.1
X7.3Y-5.2
X7.3Y-5.3
X7.3Y-5.4
X7.3Y-5.5
X7.4Y-2.3
X7.4Y-2.4
X7.4Y-2.5
X7.4Y-2.6
X7.4Y-2.7
X7.4Y-2.8
X7.4Y-2.9
X7.4Y-3.
X7.4Y-3.1
X7.4Y-3.2
X7.4Y-3.3
X7.4Y-3.4
X7.4Y-3.5
X7.4Y-3.6
X7.4Y-3.7
X7.4Y-3.8
X7.4Y-3.9
X7.4Y-4.
X7.4Y-4.1
X7.4Y-4.2
X7.4Y-4.3
X7.4Y-4.4
X7.4Y-4.5
X7.4Y-4.6
X7.4Y-4.7
X7.4Y-4.8
X7.4Y-4.9
X7.4Y-5.
X7.4Y-5.1
X7.4Y-5.2
X7.4Y-5.3
X7.4Y-5.4
X7.4Y-5.5
X7.5Y-2.3
X7.5Y-2.4
X7.5Y-2.5
X7.5Y-2.6
X7.5Y-2.7
X7.5Y-2.8
X7.5Y-2.9
X7.5Y-3.
X7.5Y-3.1
X7.5Y-3.2
X7.5Y-3.3
X7.5Y-3.4
X7.5Y-3.5
X7.5Y-3.6
X7.5Y-3.7
X7.5Y-3.8
X7.5Y-3.9
X7.5Y-4.
X7.5Y-4.1
X7.5Y-4.2
X7.5Y-4.3
X7.5Y-4.4
X7.5Y-4.5
X7.5Y-4.6
X7.5Y-4.7
X7.5Y-4.8
X7.5Y-4.9
X7.5Y-5.
X7.5Y-5.1
X7.5Y-5.2
X7.5Y-5.3
X7.6Y-2.3
X7.6Y-2.4
X7.6Y-2.5
X7.6Y-2.6
X7.6Y-2.7
X7.6Y-2.8
X7.6Y-2.9
X7.6Y-3.
X7.6Y-3.1
X7.6Y-3.2
X7.6Y-3.3
X7.6Y-3.4
X7.6Y-3.5
X7.6Y-3.6
X7.6Y-3.7
X7.6Y-3.8
X7.6Y-3.9
X7.6Y-4.
X7.6Y-4.1
X7.6Y-4.2
X7.6Y-4.3
X7.6Y-4.4
X7.6Y-4.5
X7.6Y-4.6
X7.6Y-4.7
X7.6Y-4.8
X7.6Y-4.9
X7.6Y-5.
X7.6Y-5.1
X7.6Y-5.2
X7.6Y-5.3
T3
X4.Y-1.85
X4.Y-5.45
X7.6Y-1.85
X7.6Y-5.45
T0
M30
