M48
;DRILL file {kicad (after 2015-mar-04 BZR unknown)-product} date Mon 01 Jun 2015 23:33:05 BST
;FORMAT={-:-/ absolute / inch / decimal}
FMAT,2
INCH,TZ
T1C0.030
T2C0.032
T3C0.138
%
G90
G05
M72
T1
X0.35Y-0.1
X0.35Y-0.2
X0.35Y-0.3
X0.35Y-0.4
X0.35Y-0.5
X0.45Y-0.1
X0.45Y-0.2
X0.45Y-0.3
X0.45Y-0.4
X0.45Y-0.5
X0.55Y-0.1
X0.55Y-0.2
X0.55Y-0.3
X0.55Y-0.4
X0.55Y-0.5
X0.65Y-0.1
X0.65Y-0.2
X0.65Y-0.3
X0.65Y-0.4
X0.65Y-0.5
X0.75Y-0.1
X0.75Y-0.2
X0.75Y-0.3
X0.75Y-0.4
X0.75Y-0.5
X0.85Y-0.1
X0.85Y-0.2
X0.85Y-0.3
X0.85Y-0.4
X0.85Y-0.5
X0.95Y-0.1
X0.95Y-0.2
X0.95Y-0.3
X0.95Y-0.4
X0.95Y-0.5
X1.05Y-0.1
X1.05Y-0.2
X1.05Y-0.3
X1.05Y-0.4
X1.05Y-0.5
X1.15Y-0.1
X1.15Y-0.2
X1.15Y-0.3
X1.15Y-0.4
X1.15Y-0.5
X1.25Y-0.1
X1.25Y-0.2
X1.25Y-0.3
X1.25Y-0.4
X1.25Y-0.5
X1.35Y-0.1
X1.35Y-0.2
X1.35Y-0.3
X1.35Y-0.4
X1.35Y-0.5
X1.45Y-0.1
X1.45Y-0.2
X1.45Y-0.3
X1.45Y-0.4
X1.45Y-0.5
X1.55Y-0.1
X1.55Y-0.2
X1.55Y-0.3
X1.55Y-0.4
X1.55Y-0.5
X1.65Y-0.1
X1.65Y-0.2
X1.65Y-0.3
X1.65Y-0.4
X1.65Y-0.5
X1.75Y-0.1
X1.75Y-0.2
X1.75Y-0.3
X1.75Y-0.4
X1.75Y-0.5
X1.85Y-0.1
X1.85Y-0.2
X1.85Y-0.3
X1.85Y-0.4
X1.85Y-0.5
X1.95Y-0.1
X1.95Y-0.2
X1.95Y-0.3
X1.95Y-0.4
X1.95Y-0.5
X2.05Y-0.1
X2.05Y-0.2
X2.05Y-0.3
X2.05Y-0.4
X2.05Y-0.5
X2.15Y-0.1
X2.15Y-0.2
X2.15Y-0.3
X2.15Y-0.4
X2.15Y-0.5
X2.25Y-0.1
X2.25Y-0.2
X2.25Y-0.3
X2.25Y-0.4
X2.25Y-0.5
X2.35Y-0.1
X2.35Y-0.2
X2.35Y-0.3
X2.35Y-0.4
X2.35Y-0.5
X2.45Y-0.1
X2.45Y-0.2
X2.45Y-0.3
X2.45Y-0.4
X2.45Y-0.5
X2.55Y-0.1
X2.55Y-0.2
X2.55Y-0.3
X2.55Y-0.4
X2.55Y-0.5
X2.65Y-0.1
X2.65Y-0.2
X2.65Y-0.3
X2.65Y-0.4
X2.65Y-0.5
X2.75Y-0.1
X2.75Y-0.2
X2.75Y-0.3
X2.75Y-0.4
X2.75Y-0.5
X2.85Y-0.1
X2.85Y-0.2
X2.85Y-0.3
X2.85Y-0.4
X2.85Y-0.5
X2.95Y-0.1
X2.95Y-0.2
X2.95Y-0.3
X2.95Y-0.4
X2.95Y-0.5
X3.05Y-0.1
X3.05Y-0.2
X3.05Y-0.3
X3.05Y-0.4
X3.05Y-0.5
X3.15Y-0.1
X3.15Y-0.2
X3.15Y-0.3
X3.15Y-0.4
X3.15Y-0.5
X3.25Y-0.1
X3.25Y-0.2
X3.25Y-0.3
X3.25Y-0.4
X3.25Y-0.5
X3.35Y-0.1
X3.35Y-0.2
X3.35Y-0.3
X3.35Y-0.4
X3.35Y-0.5
X3.45Y-0.1
X3.45Y-0.2
X3.45Y-0.3
X3.45Y-0.4
X3.45Y-0.5
X3.55Y-0.1
X3.55Y-0.2
X3.55Y-0.3
X3.55Y-0.4
X3.55Y-0.5
T2
X0.25Y-0.6
X0.25Y-0.7
X0.25Y-0.8
X0.25Y-0.8
X0.25Y-0.9
X0.25Y-1.
X0.25Y-1.1
X0.25Y-1.2
X0.25Y-1.2
X0.25Y-1.3
X0.25Y-1.3
X0.25Y-1.4
X0.25Y-1.4
X0.25Y-1.5
X0.25Y-1.5
X0.25Y-1.6
X0.25Y-1.6
X0.25Y-1.7
X0.25Y-1.7
X0.25Y-1.8
X0.25Y-1.8
X0.25Y-1.9
X0.25Y-1.9
X0.25Y-2.
X0.25Y-2.
X0.25Y-2.1
X0.25Y-2.1
X0.25Y-2.2
X0.25Y-2.2
X0.25Y-2.3
X0.25Y-2.3
X0.25Y-2.4
X0.25Y-2.4
X0.25Y-2.5
X0.25Y-2.5
X0.25Y-2.6
X0.25Y-2.6
X0.25Y-2.7
X0.25Y-2.7
X0.25Y-2.8
X0.25Y-2.8
X0.25Y-2.9
X0.25Y-2.9
X0.25Y-3.
X0.25Y-3.
X0.25Y-3.1
X0.25Y-3.1
X0.25Y-3.2
X0.25Y-3.2
X0.25Y-3.3
X0.25Y-3.3
X0.25Y-3.4
X0.25Y-3.4
X0.25Y-3.5
X0.25Y-3.6
X0.35Y-0.6
X0.35Y-0.7
X0.35Y-0.8
X0.35Y-0.8
X0.35Y-0.9
X0.35Y-1.
X0.35Y-1.1
X0.35Y-1.2
X0.35Y-1.2
X0.35Y-1.3
X0.35Y-1.3
X0.35Y-1.4
X0.35Y-1.4
X0.35Y-1.5
X0.35Y-1.5
X0.35Y-1.6
X0.35Y-1.6
X0.35Y-1.7
X0.35Y-1.7
X0.35Y-1.8
X0.35Y-1.8
X0.35Y-1.9
X0.35Y-1.9
X0.35Y-2.
X0.35Y-2.
X0.35Y-2.1
X0.35Y-2.1
X0.35Y-2.2
X0.35Y-2.2
X0.35Y-2.3
X0.35Y-2.3
X0.35Y-2.4
X0.35Y-2.4
X0.35Y-2.5
X0.35Y-2.5
X0.35Y-2.6
X0.35Y-2.6
X0.35Y-2.7
X0.35Y-2.7
X0.35Y-2.8
X0.35Y-2.8
X0.35Y-2.9
X0.35Y-2.9
X0.35Y-3.
X0.35Y-3.
X0.35Y-3.1
X0.35Y-3.1
X0.35Y-3.2
X0.35Y-3.2
X0.35Y-3.3
X0.35Y-3.3
X0.35Y-3.4
X0.35Y-3.4
X0.35Y-3.5
X0.35Y-3.6
X0.35Y-3.7
X0.35Y-3.8
X0.45Y-0.6
X0.45Y-0.7
X0.45Y-0.8
X0.45Y-0.8
X0.45Y-0.9
X0.45Y-1.
X0.45Y-1.1
X0.45Y-1.2
X0.45Y-1.2
X0.45Y-1.3
X0.45Y-1.3
X0.45Y-1.4
X0.45Y-1.4
X0.45Y-1.5
X0.45Y-1.5
X0.45Y-1.6
X0.45Y-1.6
X0.45Y-1.7
X0.45Y-1.7
X0.45Y-1.8
X0.45Y-1.8
X0.45Y-1.9
X0.45Y-1.9
X0.45Y-2.
X0.45Y-2.
X0.45Y-2.1
X0.45Y-2.1
X0.45Y-2.2
X0.45Y-2.2
X0.45Y-2.3
X0.45Y-2.3
X0.45Y-2.4
X0.45Y-2.4
X0.45Y-2.5
X0.45Y-2.5
X0.45Y-2.6
X0.45Y-2.6
X0.45Y-2.7
X0.45Y-2.7
X0.45Y-2.8
X0.45Y-2.8
X0.45Y-2.9
X0.45Y-2.9
X0.45Y-3.
X0.45Y-3.
X0.45Y-3.1
X0.45Y-3.1
X0.45Y-3.2
X0.45Y-3.2
X0.45Y-3.3
X0.45Y-3.3
X0.45Y-3.4
X0.45Y-3.4
X0.45Y-3.5
X0.45Y-3.6
X0.45Y-3.7
X0.45Y-3.8
X0.55Y-0.6
X0.55Y-0.7
X0.55Y-0.8
X0.55Y-0.8
X0.55Y-0.9
X0.55Y-1.
X0.55Y-1.1
X0.55Y-1.2
X0.55Y-1.2
X0.55Y-1.3
X0.55Y-1.3
X0.55Y-1.4
X0.55Y-1.4
X0.55Y-1.5
X0.55Y-1.5
X0.55Y-1.6
X0.55Y-1.6
X0.55Y-1.7
X0.55Y-1.7
X0.55Y-1.8
X0.55Y-1.8
X0.55Y-1.9
X0.55Y-1.9
X0.55Y-2.
X0.55Y-2.
X0.55Y-2.1
X0.55Y-2.1
X0.55Y-2.2
X0.55Y-2.2
X0.55Y-2.3
X0.55Y-2.3
X0.55Y-2.4
X0.55Y-2.4
X0.55Y-2.5
X0.55Y-2.5
X0.55Y-2.6
X0.55Y-2.6
X0.55Y-2.7
X0.55Y-2.7
X0.55Y-2.8
X0.55Y-2.8
X0.55Y-2.9
X0.55Y-2.9
X0.55Y-3.
X0.55Y-3.
X0.55Y-3.1
X0.55Y-3.1
X0.55Y-3.2
X0.55Y-3.2
X0.55Y-3.3
X0.55Y-3.3
X0.55Y-3.4
X0.55Y-3.4
X0.55Y-3.5
X0.55Y-3.6
X0.55Y-3.7
X0.55Y-3.8
X0.65Y-0.6
X0.65Y-0.7
X0.65Y-0.8
X0.65Y-0.8
X0.65Y-0.9
X0.65Y-1.
X0.65Y-1.1
X0.65Y-1.2
X0.65Y-1.2
X0.65Y-1.3
X0.65Y-1.3
X0.65Y-1.4
X0.65Y-1.4
X0.65Y-1.5
X0.65Y-1.5
X0.65Y-1.6
X0.65Y-1.6
X0.65Y-1.7
X0.65Y-1.7
X0.65Y-1.8
X0.65Y-1.8
X0.65Y-1.9
X0.65Y-1.9
X0.65Y-2.
X0.65Y-2.
X0.65Y-2.1
X0.65Y-2.1
X0.65Y-2.2
X0.65Y-2.2
X0.65Y-2.3
X0.65Y-2.3
X0.65Y-2.4
X0.65Y-2.4
X0.65Y-2.5
X0.65Y-2.5
X0.65Y-2.6
X0.65Y-2.6
X0.65Y-2.7
X0.65Y-2.7
X0.65Y-2.8
X0.65Y-2.8
X0.65Y-2.9
X0.65Y-2.9
X0.65Y-3.
X0.65Y-3.
X0.65Y-3.1
X0.65Y-3.1
X0.65Y-3.2
X0.65Y-3.2
X0.65Y-3.3
X0.65Y-3.3
X0.65Y-3.4
X0.65Y-3.4
X0.65Y-3.5
X0.65Y-3.6
X0.65Y-3.7
X0.65Y-3.8
X0.75Y-0.6
X0.75Y-0.7
X0.75Y-0.8
X0.75Y-0.8
X0.75Y-0.9
X0.75Y-1.
X0.75Y-1.1
X0.75Y-1.2
X0.75Y-1.2
X0.75Y-1.3
X0.75Y-1.3
X0.75Y-1.4
X0.75Y-1.4
X0.75Y-1.5
X0.75Y-1.5
X0.75Y-1.6
X0.75Y-1.6
X0.75Y-1.7
X0.75Y-1.7
X0.75Y-1.8
X0.75Y-1.8
X0.75Y-1.9
X0.75Y-1.9
X0.75Y-2.
X0.75Y-2.
X0.75Y-2.1
X0.75Y-2.1
X0.75Y-2.2
X0.75Y-2.2
X0.75Y-2.3
X0.75Y-2.3
X0.75Y-2.4
X0.75Y-2.4
X0.75Y-2.5
X0.75Y-2.5
X0.75Y-2.6
X0.75Y-2.6
X0.75Y-2.7
X0.75Y-2.7
X0.75Y-2.8
X0.75Y-2.8
X0.75Y-2.9
X0.75Y-2.9
X0.75Y-3.
X0.75Y-3.
X0.75Y-3.1
X0.75Y-3.1
X0.75Y-3.2
X0.75Y-3.2
X0.75Y-3.3
X0.75Y-3.3
X0.75Y-3.4
X0.75Y-3.4
X0.75Y-3.5
X0.75Y-3.6
X0.75Y-3.7
X0.75Y-3.8
X0.85Y-0.6
X0.85Y-0.7
X0.85Y-0.8
X0.85Y-0.8
X0.85Y-0.9
X0.85Y-1.
X0.85Y-1.1
X0.85Y-1.2
X0.85Y-1.2
X0.85Y-1.3
X0.85Y-1.3
X0.85Y-1.4
X0.85Y-1.4
X0.85Y-1.5
X0.85Y-1.5
X0.85Y-1.6
X0.85Y-1.6
X0.85Y-1.7
X0.85Y-1.7
X0.85Y-1.8
X0.85Y-1.8
X0.85Y-1.9
X0.85Y-1.9
X0.85Y-2.
X0.85Y-2.
X0.85Y-2.1
X0.85Y-2.1
X0.85Y-2.2
X0.85Y-2.2
X0.85Y-2.3
X0.85Y-2.3
X0.85Y-2.4
X0.85Y-2.4
X0.85Y-2.5
X0.85Y-2.5
X0.85Y-2.6
X0.85Y-2.6
X0.85Y-2.7
X0.85Y-2.7
X0.85Y-2.8
X0.85Y-2.8
X0.85Y-2.9
X0.85Y-2.9
X0.85Y-3.
X0.85Y-3.
X0.85Y-3.1
X0.85Y-3.1
X0.85Y-3.2
X0.85Y-3.2
X0.85Y-3.3
X0.85Y-3.3
X0.85Y-3.4
X0.85Y-3.4
X0.85Y-3.5
X0.85Y-3.6
X0.85Y-3.7
X0.85Y-3.8
X0.95Y-0.6
X0.95Y-0.7
X0.95Y-0.8
X0.95Y-0.8
X0.95Y-0.9
X0.95Y-1.
X0.95Y-1.1
X0.95Y-1.2
X0.95Y-1.2
X0.95Y-1.3
X0.95Y-1.3
X0.95Y-1.4
X0.95Y-1.4
X0.95Y-1.5
X0.95Y-1.5
X0.95Y-1.6
X0.95Y-1.6
X0.95Y-1.7
X0.95Y-1.7
X0.95Y-1.8
X0.95Y-1.8
X0.95Y-1.9
X0.95Y-1.9
X0.95Y-2.
X0.95Y-2.
X0.95Y-2.1
X0.95Y-2.1
X0.95Y-2.2
X0.95Y-2.2
X0.95Y-2.3
X0.95Y-2.3
X0.95Y-2.4
X0.95Y-2.4
X0.95Y-2.5
X0.95Y-2.5
X0.95Y-2.6
X0.95Y-2.6
X0.95Y-2.7
X0.95Y-2.7
X0.95Y-2.8
X0.95Y-2.8
X0.95Y-2.9
X0.95Y-2.9
X0.95Y-3.
X0.95Y-3.
X0.95Y-3.1
X0.95Y-3.1
X0.95Y-3.2
X0.95Y-3.2
X0.95Y-3.3
X0.95Y-3.3
X0.95Y-3.4
X0.95Y-3.4
X0.95Y-3.5
X0.95Y-3.6
X0.95Y-3.7
X0.95Y-3.8
X1.05Y-0.6
X1.05Y-0.7
X1.05Y-0.8
X1.05Y-0.8
X1.05Y-0.9
X1.05Y-1.
X1.05Y-1.1
X1.05Y-1.2
X1.05Y-1.2
X1.05Y-1.3
X1.05Y-1.3
X1.05Y-1.4
X1.05Y-1.4
X1.05Y-1.5
X1.05Y-1.5
X1.05Y-1.6
X1.05Y-1.6
X1.05Y-1.7
X1.05Y-1.7
X1.05Y-1.8
X1.05Y-1.8
X1.05Y-1.9
X1.05Y-1.9
X1.05Y-2.
X1.05Y-2.
X1.05Y-2.1
X1.05Y-2.1
X1.05Y-2.2
X1.05Y-2.2
X1.05Y-2.3
X1.05Y-2.3
X1.05Y-2.4
X1.05Y-2.4
X1.05Y-2.5
X1.05Y-2.5
X1.05Y-2.6
X1.05Y-2.6
X1.05Y-2.7
X1.05Y-2.7
X1.05Y-2.8
X1.05Y-2.8
X1.05Y-2.9
X1.05Y-2.9
X1.05Y-3.
X1.05Y-3.
X1.05Y-3.1
X1.05Y-3.1
X1.05Y-3.2
X1.05Y-3.2
X1.05Y-3.3
X1.05Y-3.3
X1.05Y-3.4
X1.05Y-3.4
X1.05Y-3.5
X1.05Y-3.6
X1.05Y-3.7
X1.05Y-3.8
X1.15Y-0.6
X1.15Y-0.7
X1.15Y-0.8
X1.15Y-0.9
X1.15Y-1.
X1.15Y-1.1
X1.15Y-1.2
X1.15Y-1.3
X1.15Y-1.4
X1.15Y-1.5
X1.15Y-1.6
X1.15Y-1.7
X1.15Y-1.8
X1.15Y-1.9
X1.15Y-2.
X1.15Y-2.1
X1.15Y-2.2
X1.15Y-2.3
X1.15Y-2.4
X1.15Y-2.5
X1.15Y-2.6
X1.15Y-2.7
X1.15Y-2.8
X1.15Y-2.9
X1.15Y-3.
X1.15Y-3.1
X1.15Y-3.2
X1.15Y-3.3
X1.15Y-3.4
X1.15Y-3.5
X1.15Y-3.6
X1.15Y-3.7
X1.15Y-3.8
X1.25Y-0.6
X1.25Y-0.7
X1.25Y-0.8
X1.25Y-0.9
X1.25Y-1.
X1.25Y-1.1
X1.25Y-1.2
X1.25Y-1.3
X1.25Y-1.4
X1.25Y-1.5
X1.25Y-1.6
X1.25Y-1.7
X1.25Y-1.8
X1.25Y-1.9
X1.25Y-2.
X1.25Y-2.1
X1.25Y-2.2
X1.25Y-2.3
X1.25Y-2.4
X1.25Y-2.5
X1.25Y-2.6
X1.25Y-2.7
X1.25Y-2.8
X1.25Y-2.9
X1.25Y-3.
X1.25Y-3.1
X1.25Y-3.2
X1.25Y-3.3
X1.25Y-3.4
X1.25Y-3.5
X1.25Y-3.6
X1.25Y-3.7
X1.25Y-3.8
X1.35Y-0.6
X1.35Y-0.7
X1.35Y-0.8
X1.35Y-0.9
X1.35Y-1.
X1.35Y-1.1
X1.35Y-1.2
X1.35Y-1.3
X1.35Y-1.4
X1.35Y-1.5
X1.35Y-1.6
X1.35Y-1.7
X1.35Y-1.8
X1.35Y-1.9
X1.35Y-2.
X1.35Y-2.1
X1.35Y-2.2
X1.35Y-2.3
X1.35Y-2.4
X1.35Y-2.5
X1.35Y-2.6
X1.35Y-2.7
X1.35Y-2.8
X1.35Y-2.9
X1.35Y-3.
X1.35Y-3.1
X1.35Y-3.2
X1.35Y-3.3
X1.35Y-3.4
X1.35Y-3.5
X1.35Y-3.6
X1.35Y-3.7
X1.35Y-3.8
X1.45Y-0.6
X1.45Y-0.7
X1.45Y-0.8
X1.45Y-0.9
X1.45Y-1.
X1.45Y-1.1
X1.45Y-1.2
X1.45Y-1.3
X1.45Y-1.4
X1.45Y-1.5
X1.45Y-1.6
X1.45Y-1.7
X1.45Y-1.8
X1.45Y-1.9
X1.45Y-2.
X1.45Y-2.1
X1.45Y-2.2
X1.45Y-2.3
X1.45Y-2.4
X1.45Y-2.5
X1.45Y-2.6
X1.45Y-2.7
X1.45Y-2.8
X1.45Y-2.9
X1.45Y-3.
X1.45Y-3.1
X1.45Y-3.2
X1.45Y-3.3
X1.45Y-3.4
X1.45Y-3.5
X1.45Y-3.6
X1.45Y-3.7
X1.45Y-3.8
X1.55Y-0.6
X1.55Y-0.7
X1.55Y-0.8
X1.55Y-0.9
X1.55Y-1.
X1.55Y-1.1
X1.55Y-1.2
X1.55Y-1.3
X1.55Y-1.4
X1.55Y-1.5
X1.55Y-1.6
X1.55Y-1.7
X1.55Y-1.8
X1.55Y-1.9
X1.55Y-2.
X1.55Y-2.1
X1.55Y-2.2
X1.55Y-2.3
X1.55Y-2.4
X1.55Y-2.5
X1.55Y-2.6
X1.55Y-2.7
X1.55Y-2.8
X1.55Y-2.9
X1.55Y-3.
X1.55Y-3.1
X1.55Y-3.2
X1.55Y-3.3
X1.55Y-3.4
X1.55Y-3.5
X1.55Y-3.6
X1.55Y-3.7
X1.55Y-3.8
X1.65Y-0.6
X1.65Y-0.7
X1.65Y-0.8
X1.65Y-0.9
X1.65Y-1.
X1.65Y-1.1
X1.65Y-1.2
X1.65Y-1.3
X1.65Y-1.4
X1.65Y-1.5
X1.65Y-1.6
X1.65Y-1.7
X1.65Y-1.8
X1.65Y-1.9
X1.65Y-2.
X1.65Y-2.1
X1.65Y-2.2
X1.65Y-2.3
X1.65Y-2.4
X1.65Y-2.5
X1.65Y-2.6
X1.65Y-2.7
X1.65Y-2.8
X1.65Y-2.9
X1.65Y-3.
X1.65Y-3.1
X1.65Y-3.2
X1.65Y-3.3
X1.65Y-3.4
X1.65Y-3.5
X1.65Y-3.6
X1.65Y-3.7
X1.65Y-3.8
X1.75Y-0.6
X1.75Y-0.7
X1.75Y-0.8
X1.75Y-0.9
X1.75Y-1.
X1.75Y-1.1
X1.75Y-1.2
X1.75Y-1.3
X1.75Y-1.4
X1.75Y-1.5
X1.75Y-1.6
X1.75Y-1.7
X1.75Y-1.8
X1.75Y-1.9
X1.75Y-2.
X1.75Y-2.1
X1.75Y-2.2
X1.75Y-2.3
X1.75Y-2.4
X1.75Y-2.5
X1.75Y-2.6
X1.75Y-2.7
X1.75Y-2.8
X1.75Y-2.9
X1.75Y-3.
X1.75Y-3.1
X1.75Y-3.2
X1.75Y-3.3
X1.75Y-3.4
X1.75Y-3.5
X1.75Y-3.6
X1.75Y-3.7
X1.75Y-3.8
X1.85Y-0.6
X1.85Y-0.7
X1.85Y-0.8
X1.85Y-0.9
X1.85Y-1.
X1.85Y-1.1
X1.85Y-1.2
X1.85Y-1.3
X1.85Y-1.4
X1.85Y-1.5
X1.85Y-1.6
X1.85Y-1.7
X1.85Y-1.8
X1.85Y-1.9
X1.85Y-2.
X1.85Y-2.1
X1.85Y-2.2
X1.85Y-2.3
X1.85Y-2.4
X1.85Y-2.5
X1.85Y-2.6
X1.85Y-2.7
X1.85Y-2.8
X1.85Y-2.9
X1.85Y-3.
X1.85Y-3.1
X1.85Y-3.2
X1.85Y-3.3
X1.85Y-3.4
X1.85Y-3.5
X1.85Y-3.6
X1.85Y-3.7
X1.85Y-3.8
X1.95Y-0.6
X1.95Y-0.7
X1.95Y-0.8
X1.95Y-0.9
X1.95Y-1.
X1.95Y-1.1
X1.95Y-1.2
X1.95Y-1.3
X1.95Y-1.4
X1.95Y-1.5
X1.95Y-1.6
X1.95Y-1.7
X1.95Y-1.8
X1.95Y-1.9
X1.95Y-2.
X1.95Y-2.1
X1.95Y-2.2
X1.95Y-2.3
X1.95Y-2.4
X1.95Y-2.5
X1.95Y-2.6
X1.95Y-2.7
X1.95Y-2.8
X1.95Y-2.9
X1.95Y-3.
X1.95Y-3.1
X1.95Y-3.2
X1.95Y-3.3
X1.95Y-3.4
X1.95Y-3.5
X1.95Y-3.6
X1.95Y-3.7
X1.95Y-3.8
X2.05Y-0.6
X2.05Y-0.7
X2.05Y-0.8
X2.05Y-0.8
X2.05Y-0.9
X2.05Y-1.
X2.05Y-1.1
X2.05Y-1.2
X2.05Y-1.2
X2.05Y-1.3
X2.05Y-1.3
X2.05Y-1.4
X2.05Y-1.4
X2.05Y-1.5
X2.05Y-1.5
X2.05Y-1.6
X2.05Y-1.6
X2.05Y-1.6
X2.05Y-1.7
X2.05Y-1.7
X2.05Y-1.8
X2.05Y-1.8
X2.05Y-1.9
X2.05Y-1.9
X2.05Y-2.
X2.05Y-2.
X2.05Y-2.1
X2.05Y-2.1
X2.05Y-2.2
X2.05Y-2.2
X2.05Y-2.3
X2.05Y-2.3
X2.05Y-2.4
X2.05Y-2.4
X2.05Y-2.5
X2.05Y-2.5
X2.05Y-2.6
X2.05Y-2.6
X2.05Y-2.7
X2.05Y-2.7
X2.05Y-2.8
X2.05Y-2.8
X2.05Y-2.9
X2.05Y-2.9
X2.05Y-3.
X2.05Y-3.
X2.05Y-3.1
X2.05Y-3.1
X2.05Y-3.2
X2.05Y-3.2
X2.05Y-3.3
X2.05Y-3.3
X2.05Y-3.4
X2.05Y-3.4
X2.05Y-3.5
X2.05Y-3.6
X2.05Y-3.7
X2.05Y-3.8
X2.15Y-0.6
X2.15Y-0.7
X2.15Y-0.8
X2.15Y-0.8
X2.15Y-0.9
X2.15Y-1.
X2.15Y-1.1
X2.15Y-1.2
X2.15Y-1.2
X2.15Y-1.3
X2.15Y-1.3
X2.15Y-1.4
X2.15Y-1.4
X2.15Y-1.5
X2.15Y-1.5
X2.15Y-1.6
X2.15Y-1.6
X2.15Y-1.6
X2.15Y-1.7
X2.15Y-1.7
X2.15Y-1.8
X2.15Y-1.8
X2.15Y-1.9
X2.15Y-1.9
X2.15Y-2.
X2.15Y-2.
X2.15Y-2.1
X2.15Y-2.1
X2.15Y-2.2
X2.15Y-2.2
X2.15Y-2.3
X2.15Y-2.3
X2.15Y-2.4
X2.15Y-2.4
X2.15Y-2.5
X2.15Y-2.5
X2.15Y-2.6
X2.15Y-2.6
X2.15Y-2.7
X2.15Y-2.7
X2.15Y-2.8
X2.15Y-2.8
X2.15Y-2.9
X2.15Y-2.9
X2.15Y-3.
X2.15Y-3.
X2.15Y-3.1
X2.15Y-3.1
X2.15Y-3.2
X2.15Y-3.2
X2.15Y-3.3
X2.15Y-3.3
X2.15Y-3.4
X2.15Y-3.4
X2.15Y-3.5
X2.15Y-3.6
X2.15Y-3.7
X2.15Y-3.8
X2.25Y-0.6
X2.25Y-0.7
X2.25Y-0.8
X2.25Y-0.8
X2.25Y-0.9
X2.25Y-1.
X2.25Y-1.1
X2.25Y-1.2
X2.25Y-1.2
X2.25Y-1.3
X2.25Y-1.3
X2.25Y-1.4
X2.25Y-1.4
X2.25Y-1.5
X2.25Y-1.5
X2.25Y-1.6
X2.25Y-1.6
X2.25Y-1.6
X2.25Y-1.7
X2.25Y-1.7
X2.25Y-1.8
X2.25Y-1.8
X2.25Y-1.9
X2.25Y-1.9
X2.25Y-2.
X2.25Y-2.
X2.25Y-2.1
X2.25Y-2.1
X2.25Y-2.2
X2.25Y-2.2
X2.25Y-2.3
X2.25Y-2.3
X2.25Y-2.4
X2.25Y-2.4
X2.25Y-2.5
X2.25Y-2.5
X2.25Y-2.6
X2.25Y-2.6
X2.25Y-2.7
X2.25Y-2.7
X2.25Y-2.8
X2.25Y-2.8
X2.25Y-2.9
X2.25Y-2.9
X2.25Y-3.
X2.25Y-3.
X2.25Y-3.1
X2.25Y-3.1
X2.25Y-3.2
X2.25Y-3.2
X2.25Y-3.3
X2.25Y-3.3
X2.25Y-3.4
X2.25Y-3.4
X2.25Y-3.5
X2.25Y-3.6
X2.25Y-3.7
X2.25Y-3.8
X2.35Y-0.6
X2.35Y-0.7
X2.35Y-0.8
X2.35Y-0.8
X2.35Y-0.9
X2.35Y-1.
X2.35Y-1.1
X2.35Y-1.2
X2.35Y-1.2
X2.35Y-1.3
X2.35Y-1.3
X2.35Y-1.4
X2.35Y-1.4
X2.35Y-1.5
X2.35Y-1.5
X2.35Y-1.6
X2.35Y-1.6
X2.35Y-1.6
X2.35Y-1.7
X2.35Y-1.7
X2.35Y-1.8
X2.35Y-1.8
X2.35Y-1.9
X2.35Y-1.9
X2.35Y-2.
X2.35Y-2.
X2.35Y-2.1
X2.35Y-2.1
X2.35Y-2.2
X2.35Y-2.2
X2.35Y-2.3
X2.35Y-2.3
X2.35Y-2.4
X2.35Y-2.4
X2.35Y-2.5
X2.35Y-2.5
X2.35Y-2.6
X2.35Y-2.6
X2.35Y-2.7
X2.35Y-2.7
X2.35Y-2.8
X2.35Y-2.8
X2.35Y-2.9
X2.35Y-2.9
X2.35Y-3.
X2.35Y-3.
X2.35Y-3.1
X2.35Y-3.1
X2.35Y-3.2
X2.35Y-3.2
X2.35Y-3.3
X2.35Y-3.3
X2.35Y-3.4
X2.35Y-3.4
X2.35Y-3.5
X2.35Y-3.6
X2.35Y-3.7
X2.35Y-3.8
X2.45Y-0.6
X2.45Y-0.7
X2.45Y-0.8
X2.45Y-0.8
X2.45Y-0.9
X2.45Y-1.
X2.45Y-1.1
X2.45Y-1.2
X2.45Y-1.2
X2.45Y-1.3
X2.45Y-1.3
X2.45Y-1.4
X2.45Y-1.4
X2.45Y-1.5
X2.45Y-1.5
X2.45Y-1.6
X2.45Y-1.6
X2.45Y-1.6
X2.45Y-1.7
X2.45Y-1.7
X2.45Y-1.8
X2.45Y-1.8
X2.45Y-1.9
X2.45Y-1.9
X2.45Y-2.
X2.45Y-2.
X2.45Y-2.1
X2.45Y-2.1
X2.45Y-2.2
X2.45Y-2.2
X2.45Y-2.3
X2.45Y-2.3
X2.45Y-2.4
X2.45Y-2.4
X2.45Y-2.5
X2.45Y-2.5
X2.45Y-2.6
X2.45Y-2.6
X2.45Y-2.7
X2.45Y-2.7
X2.45Y-2.8
X2.45Y-2.8
X2.45Y-2.9
X2.45Y-2.9
X2.45Y-3.
X2.45Y-3.
X2.45Y-3.1
X2.45Y-3.1
X2.45Y-3.2
X2.45Y-3.2
X2.45Y-3.3
X2.45Y-3.3
X2.45Y-3.4
X2.45Y-3.4
X2.45Y-3.5
X2.45Y-3.6
X2.45Y-3.7
X2.45Y-3.8
X2.55Y-0.6
X2.55Y-0.7
X2.55Y-0.8
X2.55Y-0.8
X2.55Y-0.9
X2.55Y-1.
X2.55Y-1.1
X2.55Y-1.2
X2.55Y-1.2
X2.55Y-1.3
X2.55Y-1.3
X2.55Y-1.4
X2.55Y-1.4
X2.55Y-1.5
X2.55Y-1.5
X2.55Y-1.6
X2.55Y-1.6
X2.55Y-1.6
X2.55Y-1.7
X2.55Y-1.7
X2.55Y-1.8
X2.55Y-1.8
X2.55Y-1.9
X2.55Y-1.9
X2.55Y-2.
X2.55Y-2.
X2.55Y-2.1
X2.55Y-2.1
X2.55Y-2.2
X2.55Y-2.2
X2.55Y-2.3
X2.55Y-2.3
X2.55Y-2.4
X2.55Y-2.4
X2.55Y-2.5
X2.55Y-2.5
X2.55Y-2.6
X2.55Y-2.6
X2.55Y-2.7
X2.55Y-2.7
X2.55Y-2.8
X2.55Y-2.8
X2.55Y-2.9
X2.55Y-2.9
X2.55Y-3.
X2.55Y-3.
X2.55Y-3.1
X2.55Y-3.1
X2.55Y-3.2
X2.55Y-3.2
X2.55Y-3.3
X2.55Y-3.3
X2.55Y-3.4
X2.55Y-3.4
X2.55Y-3.5
X2.55Y-3.6
X2.55Y-3.7
X2.55Y-3.8
X2.65Y-0.6
X2.65Y-0.7
X2.65Y-0.8
X2.65Y-0.8
X2.65Y-0.9
X2.65Y-1.
X2.65Y-1.1
X2.65Y-1.2
X2.65Y-1.2
X2.65Y-1.3
X2.65Y-1.3
X2.65Y-1.4
X2.65Y-1.4
X2.65Y-1.5
X2.65Y-1.5
X2.65Y-1.6
X2.65Y-1.6
X2.65Y-1.6
X2.65Y-1.7
X2.65Y-1.7
X2.65Y-1.8
X2.65Y-1.8
X2.65Y-1.9
X2.65Y-1.9
X2.65Y-2.
X2.65Y-2.
X2.65Y-2.1
X2.65Y-2.1
X2.65Y-2.2
X2.65Y-2.2
X2.65Y-2.3
X2.65Y-2.3
X2.65Y-2.4
X2.65Y-2.4
X2.65Y-2.5
X2.65Y-2.5
X2.65Y-2.6
X2.65Y-2.6
X2.65Y-2.7
X2.65Y-2.7
X2.65Y-2.8
X2.65Y-2.8
X2.65Y-2.9
X2.65Y-2.9
X2.65Y-3.
X2.65Y-3.
X2.65Y-3.1
X2.65Y-3.1
X2.65Y-3.2
X2.65Y-3.2
X2.65Y-3.3
X2.65Y-3.3
X2.65Y-3.4
X2.65Y-3.4
X2.65Y-3.5
X2.65Y-3.6
X2.65Y-3.7
X2.65Y-3.8
X2.75Y-0.6
X2.75Y-0.7
X2.75Y-0.8
X2.75Y-0.8
X2.75Y-0.9
X2.75Y-1.
X2.75Y-1.1
X2.75Y-1.2
X2.75Y-1.2
X2.75Y-1.3
X2.75Y-1.3
X2.75Y-1.4
X2.75Y-1.4
X2.75Y-1.5
X2.75Y-1.5
X2.75Y-1.6
X2.75Y-1.6
X2.75Y-1.6
X2.75Y-1.7
X2.75Y-1.7
X2.75Y-1.8
X2.75Y-1.8
X2.75Y-1.9
X2.75Y-1.9
X2.75Y-2.
X2.75Y-2.
X2.75Y-2.1
X2.75Y-2.1
X2.75Y-2.2
X2.75Y-2.2
X2.75Y-2.3
X2.75Y-2.3
X2.75Y-2.4
X2.75Y-2.4
X2.75Y-2.5
X2.75Y-2.5
X2.75Y-2.6
X2.75Y-2.6
X2.75Y-2.7
X2.75Y-2.7
X2.75Y-2.8
X2.75Y-2.8
X2.75Y-2.9
X2.75Y-2.9
X2.75Y-3.
X2.75Y-3.
X2.75Y-3.1
X2.75Y-3.1
X2.75Y-3.2
X2.75Y-3.2
X2.75Y-3.3
X2.75Y-3.3
X2.75Y-3.4
X2.75Y-3.4
X2.75Y-3.5
X2.75Y-3.6
X2.75Y-3.7
X2.75Y-3.8
X2.85Y-0.6
X2.85Y-0.7
X2.85Y-0.8
X2.85Y-0.8
X2.85Y-0.9
X2.85Y-1.
X2.85Y-1.1
X2.85Y-1.2
X2.85Y-1.2
X2.85Y-1.3
X2.85Y-1.3
X2.85Y-1.4
X2.85Y-1.4
X2.85Y-1.5
X2.85Y-1.5
X2.85Y-1.6
X2.85Y-1.6
X2.85Y-1.6
X2.85Y-1.7
X2.85Y-1.7
X2.85Y-1.8
X2.85Y-1.8
X2.85Y-1.9
X2.85Y-1.9
X2.85Y-2.
X2.85Y-2.
X2.85Y-2.1
X2.85Y-2.1
X2.85Y-2.2
X2.85Y-2.2
X2.85Y-2.3
X2.85Y-2.3
X2.85Y-2.4
X2.85Y-2.4
X2.85Y-2.5
X2.85Y-2.5
X2.85Y-2.6
X2.85Y-2.6
X2.85Y-2.7
X2.85Y-2.7
X2.85Y-2.8
X2.85Y-2.8
X2.85Y-2.9
X2.85Y-2.9
X2.85Y-3.
X2.85Y-3.
X2.85Y-3.1
X2.85Y-3.1
X2.85Y-3.2
X2.85Y-3.2
X2.85Y-3.3
X2.85Y-3.3
X2.85Y-3.4
X2.85Y-3.4
X2.85Y-3.5
X2.85Y-3.6
X2.85Y-3.7
X2.85Y-3.8
X2.95Y-0.6
X2.95Y-0.7
X2.95Y-0.8
X2.95Y-0.9
X2.95Y-1.
X2.95Y-1.1
X2.95Y-1.2
X2.95Y-1.3
X2.95Y-1.4
X2.95Y-1.5
X2.95Y-1.6
X2.95Y-1.7
X2.95Y-1.8
X2.95Y-1.9
X2.95Y-2.
X2.95Y-2.1
X2.95Y-2.2
X2.95Y-2.3
X2.95Y-2.4
X2.95Y-2.5
X2.95Y-2.6
X2.95Y-2.7
X2.95Y-2.8
X2.95Y-2.9
X2.95Y-3.
X2.95Y-3.1
X2.95Y-3.2
X2.95Y-3.3
X2.95Y-3.4
X2.95Y-3.5
X2.95Y-3.6
X2.95Y-3.7
X2.95Y-3.8
X3.05Y-0.6
X3.05Y-0.7
X3.05Y-0.8
X3.05Y-0.9
X3.05Y-1.
X3.05Y-1.1
X3.05Y-1.2
X3.05Y-1.3
X3.05Y-1.4
X3.05Y-1.5
X3.05Y-1.6
X3.05Y-1.7
X3.05Y-1.8
X3.05Y-1.9
X3.05Y-2.
X3.05Y-2.1
X3.05Y-2.2
X3.05Y-2.3
X3.05Y-2.4
X3.05Y-2.5
X3.05Y-2.6
X3.05Y-2.7
X3.05Y-2.8
X3.05Y-2.9
X3.05Y-3.
X3.05Y-3.1
X3.05Y-3.2
X3.05Y-3.3
X3.05Y-3.4
X3.05Y-3.5
X3.05Y-3.6
X3.05Y-3.7
X3.05Y-3.8
X3.15Y-0.6
X3.15Y-0.7
X3.15Y-0.8
X3.15Y-0.9
X3.15Y-1.
X3.15Y-1.1
X3.15Y-1.2
X3.15Y-1.3
X3.15Y-1.4
X3.15Y-1.5
X3.15Y-1.6
X3.15Y-1.7
X3.15Y-1.8
X3.15Y-1.9
X3.15Y-2.
X3.15Y-2.1
X3.15Y-2.2
X3.15Y-2.3
X3.15Y-2.4
X3.15Y-2.5
X3.15Y-2.6
X3.15Y-2.7
X3.15Y-2.8
X3.15Y-2.9
X3.15Y-3.
X3.15Y-3.1
X3.15Y-3.2
X3.15Y-3.3
X3.15Y-3.4
X3.15Y-3.5
X3.15Y-3.6
X3.15Y-3.7
X3.15Y-3.8
X3.25Y-0.6
X3.25Y-0.7
X3.25Y-0.8
X3.25Y-0.9
X3.25Y-1.
X3.25Y-1.1
X3.25Y-1.2
X3.25Y-1.3
X3.25Y-1.4
X3.25Y-1.5
X3.25Y-1.6
X3.25Y-1.7
X3.25Y-1.8
X3.25Y-1.9
X3.25Y-2.
X3.25Y-2.1
X3.25Y-2.2
X3.25Y-2.3
X3.25Y-2.4
X3.25Y-2.5
X3.25Y-2.6
X3.25Y-2.7
X3.25Y-2.8
X3.25Y-2.9
X3.25Y-3.
X3.25Y-3.1
X3.25Y-3.2
X3.25Y-3.3
X3.25Y-3.4
X3.25Y-3.5
X3.25Y-3.6
X3.25Y-3.7
X3.25Y-3.8
X3.35Y-0.6
X3.35Y-0.7
X3.35Y-0.8
X3.35Y-0.9
X3.35Y-1.
X3.35Y-1.1
X3.35Y-1.2
X3.35Y-1.3
X3.35Y-1.4
X3.35Y-1.5
X3.35Y-1.6
X3.35Y-1.7
X3.35Y-1.8
X3.35Y-1.9
X3.35Y-2.
X3.35Y-2.1
X3.35Y-2.2
X3.35Y-2.3
X3.35Y-2.4
X3.35Y-2.5
X3.35Y-2.6
X3.35Y-2.7
X3.35Y-2.8
X3.35Y-2.9
X3.35Y-3.
X3.35Y-3.1
X3.35Y-3.2
X3.35Y-3.3
X3.35Y-3.4
X3.35Y-3.5
X3.35Y-3.6
X3.35Y-3.7
X3.35Y-3.8
X3.45Y-0.6
X3.45Y-0.7
X3.45Y-0.8
X3.45Y-0.9
X3.45Y-1.
X3.45Y-1.1
X3.45Y-1.2
X3.45Y-1.3
X3.45Y-1.4
X3.45Y-1.5
X3.45Y-1.6
X3.45Y-1.7
X3.45Y-1.8
X3.45Y-1.9
X3.45Y-2.
X3.45Y-2.1
X3.45Y-2.2
X3.45Y-2.3
X3.45Y-2.4
X3.45Y-2.5
X3.45Y-2.6
X3.45Y-2.7
X3.45Y-2.8
X3.45Y-2.9
X3.45Y-3.
X3.45Y-3.1
X3.45Y-3.2
X3.45Y-3.3
X3.45Y-3.4
X3.45Y-3.5
X3.45Y-3.6
X3.45Y-3.7
X3.45Y-3.8
X3.55Y-0.6
X3.55Y-0.7
X3.55Y-0.8
X3.55Y-0.9
X3.55Y-1.
X3.55Y-1.1
X3.55Y-1.2
X3.55Y-1.3
X3.55Y-1.4
X3.55Y-1.5
X3.55Y-1.6
X3.55Y-1.7
X3.55Y-1.8
X3.55Y-1.9
X3.55Y-2.
X3.55Y-2.1
X3.55Y-2.2
X3.55Y-2.3
X3.55Y-2.4
X3.55Y-2.5
X3.55Y-2.6
X3.55Y-2.7
X3.55Y-2.8
X3.55Y-2.9
X3.55Y-3.
X3.55Y-3.1
X3.55Y-3.2
X3.55Y-3.3
X3.55Y-3.4
X3.55Y-3.5
X3.55Y-3.6
X3.55Y-3.7
X3.55Y-3.8
X3.65Y-0.6
X3.65Y-0.7
X3.65Y-0.8
X3.65Y-0.9
X3.65Y-1.
X3.65Y-1.1
X3.65Y-1.2
X3.65Y-1.3
X3.65Y-1.4
X3.65Y-1.5
X3.65Y-1.6
X3.65Y-1.7
X3.65Y-1.8
X3.65Y-1.9
X3.65Y-2.
X3.65Y-2.1
X3.65Y-2.2
X3.65Y-2.3
X3.65Y-2.4
X3.65Y-2.5
X3.65Y-2.6
X3.65Y-2.7
X3.65Y-2.8
X3.65Y-2.9
X3.65Y-3.
X3.65Y-3.1
X3.65Y-3.2
X3.65Y-3.3
X3.65Y-3.4
X3.65Y-3.5
X3.65Y-3.6
X3.75Y-0.6
X3.75Y-0.7
X3.75Y-0.8
X3.75Y-0.9
X3.75Y-1.
X3.75Y-1.1
X3.75Y-1.2
X3.75Y-1.3
X3.75Y-1.4
X3.75Y-1.5
X3.75Y-1.6
X3.75Y-1.7
X3.75Y-1.8
X3.75Y-1.9
X3.75Y-2.
X3.75Y-2.1
X3.75Y-2.2
X3.75Y-2.3
X3.75Y-2.4
X3.75Y-2.5
X3.75Y-2.6
X3.75Y-2.7
X3.75Y-2.8
X3.75Y-2.9
X3.75Y-3.
X3.75Y-3.1
X3.75Y-3.2
X3.75Y-3.3
X3.75Y-3.4
X3.75Y-3.5
X3.75Y-3.6
T3
X0.15Y-0.15
X0.15Y-3.75
X3.75Y-0.15
X3.75Y-3.75
T0
M30
