G04 #@! TF.FileFunction,Legend,Top*
%FSLAX46Y46*%
G04 Gerber Fmt 4.6, Leading zero omitted, Abs format (unit mm)*
G04 Created by KiCad (PCBNEW (after 2015-mar-04 BZR unknown)-product) date Mon 01 Jun 2015 23:33:07 BST*
%MOMM*%
G01*
G04 APERTURE LIST*
%ADD10C,0.150000*%
%ADD11C,0.200000*%
%ADD12C,0.254000*%
%ADD13C,0.190500*%
%ADD14C,0.300000*%
G04 APERTURE END LIST*
D10*
D11*
X86360000Y-92710000D02*
X86360000Y-19050000D01*
X60960000Y-19050000D02*
X60960000Y-92710000D01*
X40640000Y-92710000D02*
X40640000Y-19050000D01*
X15240000Y-19050000D02*
X15240000Y-92710000D01*
X5080000Y-13970000D02*
X5080000Y-17780000D01*
X91440000Y-13970000D02*
X5080000Y-13970000D01*
X96520000Y-13970000D02*
X91440000Y-13970000D01*
X96520000Y-16510000D02*
X96520000Y-13970000D01*
X60960000Y-19050000D02*
X63500000Y-19050000D01*
X86360000Y-19050000D02*
X88900000Y-19050000D01*
X40640000Y-19050000D02*
X43180000Y-19050000D01*
X15240000Y-19050000D02*
X17780000Y-19050000D01*
D12*
X97282000Y-17163143D02*
X97233619Y-17259905D01*
X97233619Y-17405048D01*
X97282000Y-17550190D01*
X97378762Y-17646952D01*
X97475524Y-17695333D01*
X97669048Y-17743714D01*
X97814190Y-17743714D01*
X98007714Y-17695333D01*
X98104476Y-17646952D01*
X98201238Y-17550190D01*
X98249619Y-17405048D01*
X98249619Y-17308286D01*
X98201238Y-17163143D01*
X98152857Y-17114762D01*
X97814190Y-17114762D01*
X97814190Y-17308286D01*
X97572286Y-16679333D02*
X98249619Y-16679333D01*
X97669048Y-16679333D02*
X97620667Y-16630952D01*
X97572286Y-16534190D01*
X97572286Y-16389048D01*
X97620667Y-16292286D01*
X97717429Y-16243905D01*
X98249619Y-16243905D01*
X98249619Y-15324667D02*
X97233619Y-15324667D01*
X98201238Y-15324667D02*
X98249619Y-15421429D01*
X98249619Y-15614952D01*
X98201238Y-15711714D01*
X98152857Y-15760095D01*
X98056095Y-15808476D01*
X97765810Y-15808476D01*
X97669048Y-15760095D01*
X97620667Y-15711714D01*
X97572286Y-15614952D01*
X97572286Y-15421429D01*
X97620667Y-15324667D01*
D13*
X86759143Y-8472714D02*
X87230857Y-8472714D01*
X86976857Y-8763000D01*
X87085715Y-8763000D01*
X87158286Y-8799286D01*
X87194572Y-8835571D01*
X87230857Y-8908143D01*
X87230857Y-9089571D01*
X87194572Y-9162143D01*
X87158286Y-9198429D01*
X87085715Y-9234714D01*
X86868000Y-9234714D01*
X86795429Y-9198429D01*
X86759143Y-9162143D01*
X87521143Y-8545286D02*
X87557429Y-8509000D01*
X87630000Y-8472714D01*
X87811429Y-8472714D01*
X87884000Y-8509000D01*
X87920286Y-8545286D01*
X87956571Y-8617857D01*
X87956571Y-8690429D01*
X87920286Y-8799286D01*
X87484857Y-9234714D01*
X87956571Y-9234714D01*
X81679143Y-8472714D02*
X82150857Y-8472714D01*
X81896857Y-8763000D01*
X82005715Y-8763000D01*
X82078286Y-8799286D01*
X82114572Y-8835571D01*
X82150857Y-8908143D01*
X82150857Y-9089571D01*
X82114572Y-9162143D01*
X82078286Y-9198429D01*
X82005715Y-9234714D01*
X81788000Y-9234714D01*
X81715429Y-9198429D01*
X81679143Y-9162143D01*
X82622571Y-8472714D02*
X82695143Y-8472714D01*
X82767714Y-8509000D01*
X82804000Y-8545286D01*
X82840286Y-8617857D01*
X82876571Y-8763000D01*
X82876571Y-8944429D01*
X82840286Y-9089571D01*
X82804000Y-9162143D01*
X82767714Y-9198429D01*
X82695143Y-9234714D01*
X82622571Y-9234714D01*
X82550000Y-9198429D01*
X82513714Y-9162143D01*
X82477429Y-9089571D01*
X82441143Y-8944429D01*
X82441143Y-8763000D01*
X82477429Y-8617857D01*
X82513714Y-8545286D01*
X82550000Y-8509000D01*
X82622571Y-8472714D01*
X76635429Y-8545286D02*
X76671715Y-8509000D01*
X76744286Y-8472714D01*
X76925715Y-8472714D01*
X76998286Y-8509000D01*
X77034572Y-8545286D01*
X77070857Y-8617857D01*
X77070857Y-8690429D01*
X77034572Y-8799286D01*
X76599143Y-9234714D01*
X77070857Y-9234714D01*
X77506286Y-8799286D02*
X77433714Y-8763000D01*
X77397429Y-8726714D01*
X77361143Y-8654143D01*
X77361143Y-8617857D01*
X77397429Y-8545286D01*
X77433714Y-8509000D01*
X77506286Y-8472714D01*
X77651429Y-8472714D01*
X77724000Y-8509000D01*
X77760286Y-8545286D01*
X77796571Y-8617857D01*
X77796571Y-8654143D01*
X77760286Y-8726714D01*
X77724000Y-8763000D01*
X77651429Y-8799286D01*
X77506286Y-8799286D01*
X77433714Y-8835571D01*
X77397429Y-8871857D01*
X77361143Y-8944429D01*
X77361143Y-9089571D01*
X77397429Y-9162143D01*
X77433714Y-9198429D01*
X77506286Y-9234714D01*
X77651429Y-9234714D01*
X77724000Y-9198429D01*
X77760286Y-9162143D01*
X77796571Y-9089571D01*
X77796571Y-8944429D01*
X77760286Y-8871857D01*
X77724000Y-8835571D01*
X77651429Y-8799286D01*
X71555429Y-8545286D02*
X71591715Y-8509000D01*
X71664286Y-8472714D01*
X71845715Y-8472714D01*
X71918286Y-8509000D01*
X71954572Y-8545286D01*
X71990857Y-8617857D01*
X71990857Y-8690429D01*
X71954572Y-8799286D01*
X71519143Y-9234714D01*
X71990857Y-9234714D01*
X72644000Y-8472714D02*
X72498857Y-8472714D01*
X72426286Y-8509000D01*
X72390000Y-8545286D01*
X72317429Y-8654143D01*
X72281143Y-8799286D01*
X72281143Y-9089571D01*
X72317429Y-9162143D01*
X72353714Y-9198429D01*
X72426286Y-9234714D01*
X72571429Y-9234714D01*
X72644000Y-9198429D01*
X72680286Y-9162143D01*
X72716571Y-9089571D01*
X72716571Y-8908143D01*
X72680286Y-8835571D01*
X72644000Y-8799286D01*
X72571429Y-8763000D01*
X72426286Y-8763000D01*
X72353714Y-8799286D01*
X72317429Y-8835571D01*
X72281143Y-8908143D01*
X66475429Y-8545286D02*
X66511715Y-8509000D01*
X66584286Y-8472714D01*
X66765715Y-8472714D01*
X66838286Y-8509000D01*
X66874572Y-8545286D01*
X66910857Y-8617857D01*
X66910857Y-8690429D01*
X66874572Y-8799286D01*
X66439143Y-9234714D01*
X66910857Y-9234714D01*
X67564000Y-8726714D02*
X67564000Y-9234714D01*
X67382571Y-8436429D02*
X67201143Y-8980714D01*
X67672857Y-8980714D01*
X61395429Y-8545286D02*
X61431715Y-8509000D01*
X61504286Y-8472714D01*
X61685715Y-8472714D01*
X61758286Y-8509000D01*
X61794572Y-8545286D01*
X61830857Y-8617857D01*
X61830857Y-8690429D01*
X61794572Y-8799286D01*
X61359143Y-9234714D01*
X61830857Y-9234714D01*
X62121143Y-8545286D02*
X62157429Y-8509000D01*
X62230000Y-8472714D01*
X62411429Y-8472714D01*
X62484000Y-8509000D01*
X62520286Y-8545286D01*
X62556571Y-8617857D01*
X62556571Y-8690429D01*
X62520286Y-8799286D01*
X62084857Y-9234714D01*
X62556571Y-9234714D01*
X56315429Y-8545286D02*
X56351715Y-8509000D01*
X56424286Y-8472714D01*
X56605715Y-8472714D01*
X56678286Y-8509000D01*
X56714572Y-8545286D01*
X56750857Y-8617857D01*
X56750857Y-8690429D01*
X56714572Y-8799286D01*
X56279143Y-9234714D01*
X56750857Y-9234714D01*
X57222571Y-8472714D02*
X57295143Y-8472714D01*
X57367714Y-8509000D01*
X57404000Y-8545286D01*
X57440286Y-8617857D01*
X57476571Y-8763000D01*
X57476571Y-8944429D01*
X57440286Y-9089571D01*
X57404000Y-9162143D01*
X57367714Y-9198429D01*
X57295143Y-9234714D01*
X57222571Y-9234714D01*
X57150000Y-9198429D01*
X57113714Y-9162143D01*
X57077429Y-9089571D01*
X57041143Y-8944429D01*
X57041143Y-8763000D01*
X57077429Y-8617857D01*
X57113714Y-8545286D01*
X57150000Y-8509000D01*
X57222571Y-8472714D01*
X51670857Y-9234714D02*
X51235429Y-9234714D01*
X51453143Y-9234714D02*
X51453143Y-8472714D01*
X51380572Y-8581571D01*
X51308000Y-8654143D01*
X51235429Y-8690429D01*
X52106286Y-8799286D02*
X52033714Y-8763000D01*
X51997429Y-8726714D01*
X51961143Y-8654143D01*
X51961143Y-8617857D01*
X51997429Y-8545286D01*
X52033714Y-8509000D01*
X52106286Y-8472714D01*
X52251429Y-8472714D01*
X52324000Y-8509000D01*
X52360286Y-8545286D01*
X52396571Y-8617857D01*
X52396571Y-8654143D01*
X52360286Y-8726714D01*
X52324000Y-8763000D01*
X52251429Y-8799286D01*
X52106286Y-8799286D01*
X52033714Y-8835571D01*
X51997429Y-8871857D01*
X51961143Y-8944429D01*
X51961143Y-9089571D01*
X51997429Y-9162143D01*
X52033714Y-9198429D01*
X52106286Y-9234714D01*
X52251429Y-9234714D01*
X52324000Y-9198429D01*
X52360286Y-9162143D01*
X52396571Y-9089571D01*
X52396571Y-8944429D01*
X52360286Y-8871857D01*
X52324000Y-8835571D01*
X52251429Y-8799286D01*
X46590857Y-9234714D02*
X46155429Y-9234714D01*
X46373143Y-9234714D02*
X46373143Y-8472714D01*
X46300572Y-8581571D01*
X46228000Y-8654143D01*
X46155429Y-8690429D01*
X47244000Y-8472714D02*
X47098857Y-8472714D01*
X47026286Y-8509000D01*
X46990000Y-8545286D01*
X46917429Y-8654143D01*
X46881143Y-8799286D01*
X46881143Y-9089571D01*
X46917429Y-9162143D01*
X46953714Y-9198429D01*
X47026286Y-9234714D01*
X47171429Y-9234714D01*
X47244000Y-9198429D01*
X47280286Y-9162143D01*
X47316571Y-9089571D01*
X47316571Y-8908143D01*
X47280286Y-8835571D01*
X47244000Y-8799286D01*
X47171429Y-8763000D01*
X47026286Y-8763000D01*
X46953714Y-8799286D01*
X46917429Y-8835571D01*
X46881143Y-8908143D01*
X41510857Y-9234714D02*
X41075429Y-9234714D01*
X41293143Y-9234714D02*
X41293143Y-8472714D01*
X41220572Y-8581571D01*
X41148000Y-8654143D01*
X41075429Y-8690429D01*
X42164000Y-8726714D02*
X42164000Y-9234714D01*
X41982571Y-8436429D02*
X41801143Y-8980714D01*
X42272857Y-8980714D01*
X36430857Y-9234714D02*
X35995429Y-9234714D01*
X36213143Y-9234714D02*
X36213143Y-8472714D01*
X36140572Y-8581571D01*
X36068000Y-8654143D01*
X35995429Y-8690429D01*
X36721143Y-8545286D02*
X36757429Y-8509000D01*
X36830000Y-8472714D01*
X37011429Y-8472714D01*
X37084000Y-8509000D01*
X37120286Y-8545286D01*
X37156571Y-8617857D01*
X37156571Y-8690429D01*
X37120286Y-8799286D01*
X36684857Y-9234714D01*
X37156571Y-9234714D01*
X31350857Y-9234714D02*
X30915429Y-9234714D01*
X31133143Y-9234714D02*
X31133143Y-8472714D01*
X31060572Y-8581571D01*
X30988000Y-8654143D01*
X30915429Y-8690429D01*
X31822571Y-8472714D02*
X31895143Y-8472714D01*
X31967714Y-8509000D01*
X32004000Y-8545286D01*
X32040286Y-8617857D01*
X32076571Y-8763000D01*
X32076571Y-8944429D01*
X32040286Y-9089571D01*
X32004000Y-9162143D01*
X31967714Y-9198429D01*
X31895143Y-9234714D01*
X31822571Y-9234714D01*
X31750000Y-9198429D01*
X31713714Y-9162143D01*
X31677429Y-9089571D01*
X31641143Y-8944429D01*
X31641143Y-8763000D01*
X31677429Y-8617857D01*
X31713714Y-8545286D01*
X31750000Y-8509000D01*
X31822571Y-8472714D01*
X26343429Y-8799286D02*
X26270857Y-8763000D01*
X26234572Y-8726714D01*
X26198286Y-8654143D01*
X26198286Y-8617857D01*
X26234572Y-8545286D01*
X26270857Y-8509000D01*
X26343429Y-8472714D01*
X26488572Y-8472714D01*
X26561143Y-8509000D01*
X26597429Y-8545286D01*
X26633714Y-8617857D01*
X26633714Y-8654143D01*
X26597429Y-8726714D01*
X26561143Y-8763000D01*
X26488572Y-8799286D01*
X26343429Y-8799286D01*
X26270857Y-8835571D01*
X26234572Y-8871857D01*
X26198286Y-8944429D01*
X26198286Y-9089571D01*
X26234572Y-9162143D01*
X26270857Y-9198429D01*
X26343429Y-9234714D01*
X26488572Y-9234714D01*
X26561143Y-9198429D01*
X26597429Y-9162143D01*
X26633714Y-9089571D01*
X26633714Y-8944429D01*
X26597429Y-8871857D01*
X26561143Y-8835571D01*
X26488572Y-8799286D01*
X21481143Y-8472714D02*
X21336000Y-8472714D01*
X21263429Y-8509000D01*
X21227143Y-8545286D01*
X21154572Y-8654143D01*
X21118286Y-8799286D01*
X21118286Y-9089571D01*
X21154572Y-9162143D01*
X21190857Y-9198429D01*
X21263429Y-9234714D01*
X21408572Y-9234714D01*
X21481143Y-9198429D01*
X21517429Y-9162143D01*
X21553714Y-9089571D01*
X21553714Y-8908143D01*
X21517429Y-8835571D01*
X21481143Y-8799286D01*
X21408572Y-8763000D01*
X21263429Y-8763000D01*
X21190857Y-8799286D01*
X21154572Y-8835571D01*
X21118286Y-8908143D01*
X16401143Y-8726714D02*
X16401143Y-9234714D01*
X16219714Y-8436429D02*
X16038286Y-8980714D01*
X16510000Y-8980714D01*
X10958286Y-8545286D02*
X10994572Y-8509000D01*
X11067143Y-8472714D01*
X11248572Y-8472714D01*
X11321143Y-8509000D01*
X11357429Y-8545286D01*
X11393714Y-8617857D01*
X11393714Y-8690429D01*
X11357429Y-8799286D01*
X10922000Y-9234714D01*
X11393714Y-9234714D01*
D12*
X98249619Y-53364188D02*
X97233619Y-53364188D01*
X98249619Y-52928760D02*
X97717429Y-52928760D01*
X97620667Y-52977141D01*
X97572286Y-53073903D01*
X97572286Y-53219045D01*
X97620667Y-53315807D01*
X97669048Y-53364188D01*
X97572286Y-52590093D02*
X97572286Y-52203045D01*
X97233619Y-52444950D02*
X98104476Y-52444950D01*
X98201238Y-52396569D01*
X98249619Y-52299807D01*
X98249619Y-52203045D01*
X97572286Y-52009522D02*
X97572286Y-51622474D01*
X97233619Y-51864379D02*
X98104476Y-51864379D01*
X98201238Y-51815998D01*
X98249619Y-51719236D01*
X98249619Y-51622474D01*
X97572286Y-51283808D02*
X98588286Y-51283808D01*
X97620667Y-51283808D02*
X97572286Y-51187046D01*
X97572286Y-50993523D01*
X97620667Y-50896761D01*
X97669048Y-50848380D01*
X97765810Y-50799999D01*
X98056095Y-50799999D01*
X98152857Y-50848380D01*
X98201238Y-50896761D01*
X98249619Y-50993523D01*
X98249619Y-51187046D01*
X98201238Y-51283808D01*
X98201238Y-50412951D02*
X98249619Y-50316189D01*
X98249619Y-50122665D01*
X98201238Y-50025904D01*
X98104476Y-49977523D01*
X98056095Y-49977523D01*
X97959333Y-50025904D01*
X97910952Y-50122665D01*
X97910952Y-50267808D01*
X97862571Y-50364570D01*
X97765810Y-50412951D01*
X97717429Y-50412951D01*
X97620667Y-50364570D01*
X97572286Y-50267808D01*
X97572286Y-50122665D01*
X97620667Y-50025904D01*
X98152857Y-49542094D02*
X98201238Y-49493713D01*
X98249619Y-49542094D01*
X98201238Y-49590475D01*
X98152857Y-49542094D01*
X98249619Y-49542094D01*
X97620667Y-49542094D02*
X97669048Y-49493713D01*
X97717429Y-49542094D01*
X97669048Y-49590475D01*
X97620667Y-49542094D01*
X97717429Y-49542094D01*
X97185238Y-48332570D02*
X98491524Y-49203427D01*
X97185238Y-47268189D02*
X98491524Y-48139046D01*
X97572286Y-46494094D02*
X98394762Y-46494094D01*
X98491524Y-46542475D01*
X98539905Y-46590856D01*
X98588286Y-46687617D01*
X98588286Y-46832760D01*
X98539905Y-46929522D01*
X98201238Y-46494094D02*
X98249619Y-46590856D01*
X98249619Y-46784379D01*
X98201238Y-46881141D01*
X98152857Y-46929522D01*
X98056095Y-46977903D01*
X97765810Y-46977903D01*
X97669048Y-46929522D01*
X97620667Y-46881141D01*
X97572286Y-46784379D01*
X97572286Y-46590856D01*
X97620667Y-46494094D01*
X98249619Y-46010284D02*
X97572286Y-46010284D01*
X97233619Y-46010284D02*
X97282000Y-46058665D01*
X97330381Y-46010284D01*
X97282000Y-45961903D01*
X97233619Y-46010284D01*
X97330381Y-46010284D01*
X97572286Y-45671617D02*
X97572286Y-45284569D01*
X97233619Y-45526474D02*
X98104476Y-45526474D01*
X98201238Y-45478093D01*
X98249619Y-45381331D01*
X98249619Y-45284569D01*
X98249619Y-44945903D02*
X97233619Y-44945903D01*
X98249619Y-44510475D02*
X97717429Y-44510475D01*
X97620667Y-44558856D01*
X97572286Y-44655618D01*
X97572286Y-44800760D01*
X97620667Y-44897522D01*
X97669048Y-44945903D01*
X97572286Y-43591237D02*
X98249619Y-43591237D01*
X97572286Y-44026665D02*
X98104476Y-44026665D01*
X98201238Y-43978284D01*
X98249619Y-43881522D01*
X98249619Y-43736380D01*
X98201238Y-43639618D01*
X98152857Y-43591237D01*
X98249619Y-43107427D02*
X97233619Y-43107427D01*
X97620667Y-43107427D02*
X97572286Y-43010665D01*
X97572286Y-42817142D01*
X97620667Y-42720380D01*
X97669048Y-42671999D01*
X97765810Y-42623618D01*
X98056095Y-42623618D01*
X98152857Y-42671999D01*
X98201238Y-42720380D01*
X98249619Y-42817142D01*
X98249619Y-43010665D01*
X98201238Y-43107427D01*
X98152857Y-42188189D02*
X98201238Y-42139808D01*
X98249619Y-42188189D01*
X98201238Y-42236570D01*
X98152857Y-42188189D01*
X98249619Y-42188189D01*
X98201238Y-41268951D02*
X98249619Y-41365713D01*
X98249619Y-41559236D01*
X98201238Y-41655998D01*
X98152857Y-41704379D01*
X98056095Y-41752760D01*
X97765810Y-41752760D01*
X97669048Y-41704379D01*
X97620667Y-41655998D01*
X97572286Y-41559236D01*
X97572286Y-41365713D01*
X97620667Y-41268951D01*
X98249619Y-40688379D02*
X98201238Y-40785141D01*
X98152857Y-40833522D01*
X98056095Y-40881903D01*
X97765810Y-40881903D01*
X97669048Y-40833522D01*
X97620667Y-40785141D01*
X97572286Y-40688379D01*
X97572286Y-40543237D01*
X97620667Y-40446475D01*
X97669048Y-40398094D01*
X97765810Y-40349713D01*
X98056095Y-40349713D01*
X98152857Y-40398094D01*
X98201238Y-40446475D01*
X98249619Y-40543237D01*
X98249619Y-40688379D01*
X98249619Y-39914284D02*
X97572286Y-39914284D01*
X97669048Y-39914284D02*
X97620667Y-39865903D01*
X97572286Y-39769141D01*
X97572286Y-39623999D01*
X97620667Y-39527237D01*
X97717429Y-39478856D01*
X98249619Y-39478856D01*
X97717429Y-39478856D02*
X97620667Y-39430475D01*
X97572286Y-39333713D01*
X97572286Y-39188570D01*
X97620667Y-39091808D01*
X97717429Y-39043427D01*
X98249619Y-39043427D01*
X97185238Y-37833903D02*
X98491524Y-38704760D01*
X98249619Y-37495236D02*
X97572286Y-37495236D01*
X97765810Y-37495236D02*
X97669048Y-37446855D01*
X97620667Y-37398474D01*
X97572286Y-37301712D01*
X97572286Y-37204951D01*
X97572286Y-36866284D02*
X98443143Y-36866284D01*
X98539905Y-36914665D01*
X98588286Y-37011427D01*
X98588286Y-37059808D01*
X97233619Y-36866284D02*
X97282000Y-36914665D01*
X97330381Y-36866284D01*
X97282000Y-36817903D01*
X97233619Y-36866284D01*
X97330381Y-36866284D01*
X97572286Y-36479236D02*
X98249619Y-36285712D01*
X97765810Y-36092189D01*
X98249619Y-35898665D01*
X97572286Y-35705141D01*
X97233619Y-34834284D02*
X97233619Y-35318093D01*
X97717429Y-35366474D01*
X97669048Y-35318093D01*
X97620667Y-35221331D01*
X97620667Y-34979427D01*
X97669048Y-34882665D01*
X97717429Y-34834284D01*
X97814190Y-34785903D01*
X98056095Y-34785903D01*
X98152857Y-34834284D01*
X98201238Y-34882665D01*
X98249619Y-34979427D01*
X98249619Y-35221331D01*
X98201238Y-35318093D01*
X98152857Y-35366474D01*
X97233619Y-34447236D02*
X97233619Y-33769903D01*
X98249619Y-34205331D01*
X97185238Y-32657141D02*
X98491524Y-33527998D01*
X97572286Y-32318474D02*
X98588286Y-32318474D01*
X97620667Y-32318474D02*
X97572286Y-32221712D01*
X97572286Y-32028189D01*
X97620667Y-31931427D01*
X97669048Y-31883046D01*
X97765810Y-31834665D01*
X98056095Y-31834665D01*
X98152857Y-31883046D01*
X98201238Y-31931427D01*
X98249619Y-32028189D01*
X98249619Y-32221712D01*
X98201238Y-32318474D01*
X98249619Y-31399236D02*
X97572286Y-31399236D01*
X97765810Y-31399236D02*
X97669048Y-31350855D01*
X97620667Y-31302474D01*
X97572286Y-31205712D01*
X97572286Y-31108951D01*
X98249619Y-30625141D02*
X98201238Y-30721903D01*
X98152857Y-30770284D01*
X98056095Y-30818665D01*
X97765810Y-30818665D01*
X97669048Y-30770284D01*
X97620667Y-30721903D01*
X97572286Y-30625141D01*
X97572286Y-30479999D01*
X97620667Y-30383237D01*
X97669048Y-30334856D01*
X97765810Y-30286475D01*
X98056095Y-30286475D01*
X98152857Y-30334856D01*
X98201238Y-30383237D01*
X98249619Y-30479999D01*
X98249619Y-30625141D01*
X97572286Y-29996189D02*
X97572286Y-29609141D01*
X97233619Y-29851046D02*
X98104476Y-29851046D01*
X98201238Y-29802665D01*
X98249619Y-29705903D01*
X98249619Y-29609141D01*
X98249619Y-29125332D02*
X98201238Y-29222094D01*
X98152857Y-29270475D01*
X98056095Y-29318856D01*
X97765810Y-29318856D01*
X97669048Y-29270475D01*
X97620667Y-29222094D01*
X97572286Y-29125332D01*
X97572286Y-28980190D01*
X97620667Y-28883428D01*
X97669048Y-28835047D01*
X97765810Y-28786666D01*
X98056095Y-28786666D01*
X98152857Y-28835047D01*
X98201238Y-28883428D01*
X98249619Y-28980190D01*
X98249619Y-29125332D01*
X98249619Y-28351237D02*
X97233619Y-28351237D01*
X97620667Y-28351237D02*
X97572286Y-28254475D01*
X97572286Y-28060952D01*
X97620667Y-27964190D01*
X97669048Y-27915809D01*
X97765810Y-27867428D01*
X98056095Y-27867428D01*
X98152857Y-27915809D01*
X98201238Y-27964190D01*
X98249619Y-28060952D01*
X98249619Y-28254475D01*
X98201238Y-28351237D01*
X98249619Y-27286856D02*
X98201238Y-27383618D01*
X98152857Y-27431999D01*
X98056095Y-27480380D01*
X97765810Y-27480380D01*
X97669048Y-27431999D01*
X97620667Y-27383618D01*
X97572286Y-27286856D01*
X97572286Y-27141714D01*
X97620667Y-27044952D01*
X97669048Y-26996571D01*
X97765810Y-26948190D01*
X98056095Y-26948190D01*
X98152857Y-26996571D01*
X98201238Y-27044952D01*
X98249619Y-27141714D01*
X98249619Y-27286856D01*
X98249619Y-26077333D02*
X97717429Y-26077333D01*
X97620667Y-26125714D01*
X97572286Y-26222476D01*
X97572286Y-26415999D01*
X97620667Y-26512761D01*
X98201238Y-26077333D02*
X98249619Y-26174095D01*
X98249619Y-26415999D01*
X98201238Y-26512761D01*
X98104476Y-26561142D01*
X98007714Y-26561142D01*
X97910952Y-26512761D01*
X97862571Y-26415999D01*
X97862571Y-26174095D01*
X97814190Y-26077333D01*
X98249619Y-25593523D02*
X97572286Y-25593523D01*
X97765810Y-25593523D02*
X97669048Y-25545142D01*
X97620667Y-25496761D01*
X97572286Y-25399999D01*
X97572286Y-25303238D01*
X98249619Y-24529143D02*
X97233619Y-24529143D01*
X98201238Y-24529143D02*
X98249619Y-24625905D01*
X98249619Y-24819428D01*
X98201238Y-24916190D01*
X98152857Y-24964571D01*
X98056095Y-25012952D01*
X97765810Y-25012952D01*
X97669048Y-24964571D01*
X97620667Y-24916190D01*
X97572286Y-24819428D01*
X97572286Y-24625905D01*
X97620667Y-24529143D01*
X97862571Y-24045333D02*
X97862571Y-23271238D01*
X97572286Y-22787428D02*
X98588286Y-22787428D01*
X97620667Y-22787428D02*
X97572286Y-22690666D01*
X97572286Y-22497143D01*
X97620667Y-22400381D01*
X97669048Y-22352000D01*
X97765810Y-22303619D01*
X98056095Y-22303619D01*
X98152857Y-22352000D01*
X98201238Y-22400381D01*
X98249619Y-22497143D01*
X98249619Y-22690666D01*
X98201238Y-22787428D01*
X98201238Y-21432762D02*
X98249619Y-21529524D01*
X98249619Y-21723047D01*
X98201238Y-21819809D01*
X98152857Y-21868190D01*
X98056095Y-21916571D01*
X97765810Y-21916571D01*
X97669048Y-21868190D01*
X97620667Y-21819809D01*
X97572286Y-21723047D01*
X97572286Y-21529524D01*
X97620667Y-21432762D01*
X98249619Y-20997333D02*
X97233619Y-20997333D01*
X97620667Y-20997333D02*
X97572286Y-20900571D01*
X97572286Y-20707048D01*
X97620667Y-20610286D01*
X97669048Y-20561905D01*
X97765810Y-20513524D01*
X98056095Y-20513524D01*
X98152857Y-20561905D01*
X98201238Y-20610286D01*
X98249619Y-20707048D01*
X98249619Y-20900571D01*
X98201238Y-20997333D01*
X98249619Y-91198095D02*
X97233619Y-91198095D01*
X97233619Y-90811048D01*
X97282000Y-90714286D01*
X97330381Y-90665905D01*
X97427143Y-90617524D01*
X97572286Y-90617524D01*
X97669048Y-90665905D01*
X97717429Y-90714286D01*
X97765810Y-90811048D01*
X97765810Y-91198095D01*
X98249619Y-90182095D02*
X97572286Y-90182095D01*
X97765810Y-90182095D02*
X97669048Y-90133714D01*
X97620667Y-90085333D01*
X97572286Y-89988571D01*
X97572286Y-89891810D01*
X98249619Y-89408000D02*
X98201238Y-89504762D01*
X98152857Y-89553143D01*
X98056095Y-89601524D01*
X97765810Y-89601524D01*
X97669048Y-89553143D01*
X97620667Y-89504762D01*
X97572286Y-89408000D01*
X97572286Y-89262858D01*
X97620667Y-89166096D01*
X97669048Y-89117715D01*
X97765810Y-89069334D01*
X98056095Y-89069334D01*
X98152857Y-89117715D01*
X98201238Y-89166096D01*
X98249619Y-89262858D01*
X98249619Y-89408000D01*
X97572286Y-88779048D02*
X97572286Y-88392000D01*
X97233619Y-88633905D02*
X98104476Y-88633905D01*
X98201238Y-88585524D01*
X98249619Y-88488762D01*
X98249619Y-88392000D01*
X98249619Y-87908191D02*
X98201238Y-88004953D01*
X98152857Y-88053334D01*
X98056095Y-88101715D01*
X97765810Y-88101715D01*
X97669048Y-88053334D01*
X97620667Y-88004953D01*
X97572286Y-87908191D01*
X97572286Y-87763049D01*
X97620667Y-87666287D01*
X97669048Y-87617906D01*
X97765810Y-87569525D01*
X98056095Y-87569525D01*
X98152857Y-87617906D01*
X98201238Y-87666287D01*
X98249619Y-87763049D01*
X98249619Y-87908191D01*
X98249619Y-87134096D02*
X97233619Y-87134096D01*
X97620667Y-87134096D02*
X97572286Y-87037334D01*
X97572286Y-86843811D01*
X97620667Y-86747049D01*
X97669048Y-86698668D01*
X97765810Y-86650287D01*
X98056095Y-86650287D01*
X98152857Y-86698668D01*
X98201238Y-86747049D01*
X98249619Y-86843811D01*
X98249619Y-87037334D01*
X98201238Y-87134096D01*
X98249619Y-86069715D02*
X98201238Y-86166477D01*
X98152857Y-86214858D01*
X98056095Y-86263239D01*
X97765810Y-86263239D01*
X97669048Y-86214858D01*
X97620667Y-86166477D01*
X97572286Y-86069715D01*
X97572286Y-85924573D01*
X97620667Y-85827811D01*
X97669048Y-85779430D01*
X97765810Y-85731049D01*
X98056095Y-85731049D01*
X98152857Y-85779430D01*
X98201238Y-85827811D01*
X98249619Y-85924573D01*
X98249619Y-86069715D01*
X98249619Y-84860192D02*
X97717429Y-84860192D01*
X97620667Y-84908573D01*
X97572286Y-85005335D01*
X97572286Y-85198858D01*
X97620667Y-85295620D01*
X98201238Y-84860192D02*
X98249619Y-84956954D01*
X98249619Y-85198858D01*
X98201238Y-85295620D01*
X98104476Y-85344001D01*
X98007714Y-85344001D01*
X97910952Y-85295620D01*
X97862571Y-85198858D01*
X97862571Y-84956954D01*
X97814190Y-84860192D01*
X98249619Y-84376382D02*
X97572286Y-84376382D01*
X97765810Y-84376382D02*
X97669048Y-84328001D01*
X97620667Y-84279620D01*
X97572286Y-84182858D01*
X97572286Y-84086097D01*
X98249619Y-83312002D02*
X97233619Y-83312002D01*
X98201238Y-83312002D02*
X98249619Y-83408764D01*
X98249619Y-83602287D01*
X98201238Y-83699049D01*
X98152857Y-83747430D01*
X98056095Y-83795811D01*
X97765810Y-83795811D01*
X97669048Y-83747430D01*
X97620667Y-83699049D01*
X97572286Y-83602287D01*
X97572286Y-83408764D01*
X97620667Y-83312002D01*
X98636667Y-81763812D02*
X98588286Y-81812192D01*
X98443143Y-81908954D01*
X98346381Y-81957335D01*
X98201238Y-82005716D01*
X97959333Y-82054097D01*
X97765810Y-82054097D01*
X97523905Y-82005716D01*
X97378762Y-81957335D01*
X97282000Y-81908954D01*
X97136857Y-81812192D01*
X97088476Y-81763812D01*
X98152857Y-80796193D02*
X98201238Y-80844574D01*
X98249619Y-80989717D01*
X98249619Y-81086479D01*
X98201238Y-81231621D01*
X98104476Y-81328383D01*
X98007714Y-81376764D01*
X97814190Y-81425145D01*
X97669048Y-81425145D01*
X97475524Y-81376764D01*
X97378762Y-81328383D01*
X97282000Y-81231621D01*
X97233619Y-81086479D01*
X97233619Y-80989717D01*
X97282000Y-80844574D01*
X97330381Y-80796193D01*
X98636667Y-80457526D02*
X98588286Y-80409145D01*
X98443143Y-80312383D01*
X98346381Y-80264002D01*
X98201238Y-80215621D01*
X97959333Y-80167240D01*
X97765810Y-80167240D01*
X97523905Y-80215621D01*
X97378762Y-80264002D01*
X97282000Y-80312383D01*
X97136857Y-80409145D01*
X97088476Y-80457526D01*
X97330381Y-78957717D02*
X97282000Y-78909336D01*
X97233619Y-78812574D01*
X97233619Y-78570670D01*
X97282000Y-78473908D01*
X97330381Y-78425527D01*
X97427143Y-78377146D01*
X97523905Y-78377146D01*
X97669048Y-78425527D01*
X98249619Y-79006098D01*
X98249619Y-78377146D01*
X97233619Y-77748193D02*
X97233619Y-77651432D01*
X97282000Y-77554670D01*
X97330381Y-77506289D01*
X97427143Y-77457908D01*
X97620667Y-77409527D01*
X97862571Y-77409527D01*
X98056095Y-77457908D01*
X98152857Y-77506289D01*
X98201238Y-77554670D01*
X98249619Y-77651432D01*
X98249619Y-77748193D01*
X98201238Y-77844955D01*
X98152857Y-77893336D01*
X98056095Y-77941717D01*
X97862571Y-77990098D01*
X97620667Y-77990098D01*
X97427143Y-77941717D01*
X97330381Y-77893336D01*
X97282000Y-77844955D01*
X97233619Y-77748193D01*
X98249619Y-76441908D02*
X98249619Y-77022479D01*
X98249619Y-76732193D02*
X97233619Y-76732193D01*
X97378762Y-76828955D01*
X97475524Y-76925717D01*
X97523905Y-77022479D01*
X97233619Y-75522670D02*
X97233619Y-76006479D01*
X97717429Y-76054860D01*
X97669048Y-76006479D01*
X97620667Y-75909717D01*
X97620667Y-75667813D01*
X97669048Y-75571051D01*
X97717429Y-75522670D01*
X97814190Y-75474289D01*
X98056095Y-75474289D01*
X98152857Y-75522670D01*
X98201238Y-75571051D01*
X98249619Y-75667813D01*
X98249619Y-75909717D01*
X98201238Y-76006479D01*
X98152857Y-76054860D01*
X98249619Y-73684194D02*
X97765810Y-74022860D01*
X98249619Y-74264765D02*
X97233619Y-74264765D01*
X97233619Y-73877718D01*
X97282000Y-73780956D01*
X97330381Y-73732575D01*
X97427143Y-73684194D01*
X97572286Y-73684194D01*
X97669048Y-73732575D01*
X97717429Y-73780956D01*
X97765810Y-73877718D01*
X97765810Y-74264765D01*
X98249619Y-73248765D02*
X97572286Y-73248765D01*
X97233619Y-73248765D02*
X97282000Y-73297146D01*
X97330381Y-73248765D01*
X97282000Y-73200384D01*
X97233619Y-73248765D01*
X97330381Y-73248765D01*
X98201238Y-72329527D02*
X98249619Y-72426289D01*
X98249619Y-72619812D01*
X98201238Y-72716574D01*
X98152857Y-72764955D01*
X98056095Y-72813336D01*
X97765810Y-72813336D01*
X97669048Y-72764955D01*
X97620667Y-72716574D01*
X97572286Y-72619812D01*
X97572286Y-72426289D01*
X97620667Y-72329527D01*
X98249619Y-71894098D02*
X97233619Y-71894098D01*
X98249619Y-71458670D02*
X97717429Y-71458670D01*
X97620667Y-71507051D01*
X97572286Y-71603813D01*
X97572286Y-71748955D01*
X97620667Y-71845717D01*
X97669048Y-71894098D01*
X97233619Y-70297527D02*
X98249619Y-70055622D01*
X97523905Y-69862099D01*
X98249619Y-69668575D01*
X97233619Y-69426670D01*
X98249619Y-68604194D02*
X97717429Y-68604194D01*
X97620667Y-68652575D01*
X97572286Y-68749337D01*
X97572286Y-68942860D01*
X97620667Y-69039622D01*
X98201238Y-68604194D02*
X98249619Y-68700956D01*
X98249619Y-68942860D01*
X98201238Y-69039622D01*
X98104476Y-69088003D01*
X98007714Y-69088003D01*
X97910952Y-69039622D01*
X97862571Y-68942860D01*
X97862571Y-68700956D01*
X97814190Y-68604194D01*
X98249619Y-68120384D02*
X97572286Y-68120384D01*
X97765810Y-68120384D02*
X97669048Y-68072003D01*
X97620667Y-68023622D01*
X97572286Y-67926860D01*
X97572286Y-67830099D01*
X98201238Y-67104385D02*
X98249619Y-67201147D01*
X98249619Y-67394670D01*
X98201238Y-67491432D01*
X98104476Y-67539813D01*
X97717429Y-67539813D01*
X97620667Y-67491432D01*
X97572286Y-67394670D01*
X97572286Y-67201147D01*
X97620667Y-67104385D01*
X97717429Y-67056004D01*
X97814190Y-67056004D01*
X97910952Y-67539813D01*
X98249619Y-66620575D02*
X97233619Y-66620575D01*
X98249619Y-66185147D02*
X97717429Y-66185147D01*
X97620667Y-66233528D01*
X97572286Y-66330290D01*
X97572286Y-66475432D01*
X97620667Y-66572194D01*
X97669048Y-66620575D01*
X98249619Y-65265909D02*
X97717429Y-65265909D01*
X97620667Y-65314290D01*
X97572286Y-65411052D01*
X97572286Y-65604575D01*
X97620667Y-65701337D01*
X98201238Y-65265909D02*
X98249619Y-65362671D01*
X98249619Y-65604575D01*
X98201238Y-65701337D01*
X98104476Y-65749718D01*
X98007714Y-65749718D01*
X97910952Y-65701337D01*
X97862571Y-65604575D01*
X97862571Y-65362671D01*
X97814190Y-65265909D01*
X98249619Y-64782099D02*
X97572286Y-64782099D01*
X97669048Y-64782099D02*
X97620667Y-64733718D01*
X97572286Y-64636956D01*
X97572286Y-64491814D01*
X97620667Y-64395052D01*
X97717429Y-64346671D01*
X98249619Y-64346671D01*
X97717429Y-64346671D02*
X97620667Y-64298290D01*
X97572286Y-64201528D01*
X97572286Y-64056385D01*
X97620667Y-63959623D01*
X97717429Y-63911242D01*
X98249619Y-63911242D01*
X98201238Y-63379051D02*
X98249619Y-63379051D01*
X98346381Y-63427432D01*
X98394762Y-63475813D01*
X98152857Y-61588956D02*
X98201238Y-61637337D01*
X98249619Y-61782480D01*
X98249619Y-61879242D01*
X98201238Y-62024384D01*
X98104476Y-62121146D01*
X98007714Y-62169527D01*
X97814190Y-62217908D01*
X97669048Y-62217908D01*
X97475524Y-62169527D01*
X97378762Y-62121146D01*
X97282000Y-62024384D01*
X97233619Y-61879242D01*
X97233619Y-61782480D01*
X97282000Y-61637337D01*
X97330381Y-61588956D01*
X98152857Y-60572956D02*
X98201238Y-60621337D01*
X98249619Y-60766480D01*
X98249619Y-60863242D01*
X98201238Y-61008384D01*
X98104476Y-61105146D01*
X98007714Y-61153527D01*
X97814190Y-61201908D01*
X97669048Y-61201908D01*
X97475524Y-61153527D01*
X97378762Y-61105146D01*
X97282000Y-61008384D01*
X97233619Y-60863242D01*
X97233619Y-60766480D01*
X97282000Y-60621337D01*
X97330381Y-60572956D01*
X97717429Y-59024766D02*
X97765810Y-58879623D01*
X97814190Y-58831242D01*
X97910952Y-58782861D01*
X98056095Y-58782861D01*
X98152857Y-58831242D01*
X98201238Y-58879623D01*
X98249619Y-58976385D01*
X98249619Y-59363432D01*
X97233619Y-59363432D01*
X97233619Y-59024766D01*
X97282000Y-58928004D01*
X97330381Y-58879623D01*
X97427143Y-58831242D01*
X97523905Y-58831242D01*
X97620667Y-58879623D01*
X97669048Y-58928004D01*
X97717429Y-59024766D01*
X97717429Y-59363432D01*
X97765810Y-58153908D02*
X98249619Y-58153908D01*
X97233619Y-58492575D02*
X97765810Y-58153908D01*
X97233619Y-57815242D01*
X97862571Y-57476575D02*
X97862571Y-56702480D01*
X98201238Y-56267051D02*
X98249619Y-56121908D01*
X98249619Y-55880004D01*
X98201238Y-55783242D01*
X98152857Y-55734861D01*
X98056095Y-55686480D01*
X97959333Y-55686480D01*
X97862571Y-55734861D01*
X97814190Y-55783242D01*
X97765810Y-55880004D01*
X97717429Y-56073527D01*
X97669048Y-56170289D01*
X97620667Y-56218670D01*
X97523905Y-56267051D01*
X97427143Y-56267051D01*
X97330381Y-56218670D01*
X97282000Y-56170289D01*
X97233619Y-56073527D01*
X97233619Y-55831623D01*
X97282000Y-55686480D01*
X97959333Y-55299432D02*
X97959333Y-54815623D01*
X98249619Y-55396194D02*
X97233619Y-55057527D01*
X98249619Y-54718861D01*
D14*
X1238572Y-88221429D02*
X1310001Y-88150000D01*
X1452858Y-88078571D01*
X1810001Y-88078571D01*
X1952858Y-88150000D01*
X2024287Y-88221429D01*
X2095715Y-88364286D01*
X2095715Y-88507143D01*
X2024287Y-88721429D01*
X1167144Y-89578571D01*
X2095715Y-89578571D01*
X2952858Y-88721429D02*
X2810000Y-88650000D01*
X2738572Y-88578571D01*
X2667143Y-88435714D01*
X2667143Y-88364286D01*
X2738572Y-88221429D01*
X2810000Y-88150000D01*
X2952858Y-88078571D01*
X3238572Y-88078571D01*
X3381429Y-88150000D01*
X3452858Y-88221429D01*
X3524286Y-88364286D01*
X3524286Y-88435714D01*
X3452858Y-88578571D01*
X3381429Y-88650000D01*
X3238572Y-88721429D01*
X2952858Y-88721429D01*
X2810000Y-88792857D01*
X2738572Y-88864286D01*
X2667143Y-89007143D01*
X2667143Y-89292857D01*
X2738572Y-89435714D01*
X2810000Y-89507143D01*
X2952858Y-89578571D01*
X3238572Y-89578571D01*
X3381429Y-89507143D01*
X3452858Y-89435714D01*
X3524286Y-89292857D01*
X3524286Y-89007143D01*
X3452858Y-88864286D01*
X3381429Y-88792857D01*
X3238572Y-88721429D01*
D12*
X3302000Y-17163143D02*
X3253619Y-17259905D01*
X3253619Y-17405048D01*
X3302000Y-17550190D01*
X3398762Y-17646952D01*
X3495524Y-17695333D01*
X3689048Y-17743714D01*
X3834190Y-17743714D01*
X4027714Y-17695333D01*
X4124476Y-17646952D01*
X4221238Y-17550190D01*
X4269619Y-17405048D01*
X4269619Y-17308286D01*
X4221238Y-17163143D01*
X4172857Y-17114762D01*
X3834190Y-17114762D01*
X3834190Y-17308286D01*
X3592286Y-16679333D02*
X4269619Y-16679333D01*
X3689048Y-16679333D02*
X3640667Y-16630952D01*
X3592286Y-16534190D01*
X3592286Y-16389048D01*
X3640667Y-16292286D01*
X3737429Y-16243905D01*
X4269619Y-16243905D01*
X4269619Y-15324667D02*
X3253619Y-15324667D01*
X4221238Y-15324667D02*
X4269619Y-15421429D01*
X4269619Y-15614952D01*
X4221238Y-15711714D01*
X4172857Y-15760095D01*
X4076095Y-15808476D01*
X3785810Y-15808476D01*
X3689048Y-15760095D01*
X3640667Y-15711714D01*
X3592286Y-15614952D01*
X3592286Y-15421429D01*
X3640667Y-15324667D01*
D11*
X96520000Y-16510000D02*
X96520000Y-21590000D01*
X5080000Y-16510000D02*
X5080000Y-21590000D01*
D13*
X87654191Y-94693619D02*
X87992858Y-95709619D01*
X88331524Y-94693619D01*
X89105619Y-95661238D02*
X89008857Y-95709619D01*
X88815334Y-95709619D01*
X88718572Y-95661238D01*
X88670191Y-95612857D01*
X88621810Y-95516095D01*
X88621810Y-95225810D01*
X88670191Y-95129048D01*
X88718572Y-95080667D01*
X88815334Y-95032286D01*
X89008857Y-95032286D01*
X89105619Y-95080667D01*
X89976476Y-95661238D02*
X89879714Y-95709619D01*
X89686191Y-95709619D01*
X89589429Y-95661238D01*
X89541048Y-95612857D01*
X89492667Y-95516095D01*
X89492667Y-95225810D01*
X89541048Y-95129048D01*
X89589429Y-95080667D01*
X89686191Y-95032286D01*
X89879714Y-95032286D01*
X89976476Y-95080667D01*
X8986762Y-94693619D02*
X9325429Y-95709619D01*
X9664095Y-94693619D01*
X10438190Y-95661238D02*
X10341428Y-95709619D01*
X10147905Y-95709619D01*
X10051143Y-95661238D01*
X10002762Y-95612857D01*
X9954381Y-95516095D01*
X9954381Y-95225810D01*
X10002762Y-95129048D01*
X10051143Y-95080667D01*
X10147905Y-95032286D01*
X10341428Y-95032286D01*
X10438190Y-95080667D01*
X11309047Y-95661238D02*
X11212285Y-95709619D01*
X11018762Y-95709619D01*
X10922000Y-95661238D01*
X10873619Y-95612857D01*
X10825238Y-95516095D01*
X10825238Y-95225810D01*
X10873619Y-95129048D01*
X10922000Y-95080667D01*
X11018762Y-95032286D01*
X11212285Y-95032286D01*
X11309047Y-95080667D01*
D11*
X91440000Y-92710000D02*
X7620000Y-92710000D01*
X91440000Y-97790000D02*
X91440000Y-92710000D01*
X7620000Y-97790000D02*
X91440000Y-97790000D01*
X7620000Y-92710000D02*
X7620000Y-97790000D01*
D14*
X1238572Y-83141429D02*
X1310001Y-83070000D01*
X1452858Y-82998571D01*
X1810001Y-82998571D01*
X1952858Y-83070000D01*
X2024287Y-83141429D01*
X2095715Y-83284286D01*
X2095715Y-83427143D01*
X2024287Y-83641429D01*
X1167144Y-84498571D01*
X2095715Y-84498571D01*
X3381429Y-82998571D02*
X3095715Y-82998571D01*
X2952858Y-83070000D01*
X2881429Y-83141429D01*
X2738572Y-83355714D01*
X2667143Y-83641429D01*
X2667143Y-84212857D01*
X2738572Y-84355714D01*
X2810000Y-84427143D01*
X2952858Y-84498571D01*
X3238572Y-84498571D01*
X3381429Y-84427143D01*
X3452858Y-84355714D01*
X3524286Y-84212857D01*
X3524286Y-83855714D01*
X3452858Y-83712857D01*
X3381429Y-83641429D01*
X3238572Y-83570000D01*
X2952858Y-83570000D01*
X2810000Y-83641429D01*
X2738572Y-83712857D01*
X2667143Y-83855714D01*
X1238572Y-78061429D02*
X1310001Y-77990000D01*
X1452858Y-77918571D01*
X1810001Y-77918571D01*
X1952858Y-77990000D01*
X2024287Y-78061429D01*
X2095715Y-78204286D01*
X2095715Y-78347143D01*
X2024287Y-78561429D01*
X1167144Y-79418571D01*
X2095715Y-79418571D01*
X3381429Y-78418571D02*
X3381429Y-79418571D01*
X3024286Y-77847143D02*
X2667143Y-78918571D01*
X3595715Y-78918571D01*
X1238572Y-72981429D02*
X1310001Y-72910000D01*
X1452858Y-72838571D01*
X1810001Y-72838571D01*
X1952858Y-72910000D01*
X2024287Y-72981429D01*
X2095715Y-73124286D01*
X2095715Y-73267143D01*
X2024287Y-73481429D01*
X1167144Y-74338571D01*
X2095715Y-74338571D01*
X2667143Y-72981429D02*
X2738572Y-72910000D01*
X2881429Y-72838571D01*
X3238572Y-72838571D01*
X3381429Y-72910000D01*
X3452858Y-72981429D01*
X3524286Y-73124286D01*
X3524286Y-73267143D01*
X3452858Y-73481429D01*
X2595715Y-74338571D01*
X3524286Y-74338571D01*
X1238572Y-67901429D02*
X1310001Y-67830000D01*
X1452858Y-67758571D01*
X1810001Y-67758571D01*
X1952858Y-67830000D01*
X2024287Y-67901429D01*
X2095715Y-68044286D01*
X2095715Y-68187143D01*
X2024287Y-68401429D01*
X1167144Y-69258571D01*
X2095715Y-69258571D01*
X3024286Y-67758571D02*
X3167143Y-67758571D01*
X3310000Y-67830000D01*
X3381429Y-67901429D01*
X3452858Y-68044286D01*
X3524286Y-68330000D01*
X3524286Y-68687143D01*
X3452858Y-68972857D01*
X3381429Y-69115714D01*
X3310000Y-69187143D01*
X3167143Y-69258571D01*
X3024286Y-69258571D01*
X2881429Y-69187143D01*
X2810000Y-69115714D01*
X2738572Y-68972857D01*
X2667143Y-68687143D01*
X2667143Y-68330000D01*
X2738572Y-68044286D01*
X2810000Y-67901429D01*
X2881429Y-67830000D01*
X3024286Y-67758571D01*
X2095715Y-64178571D02*
X1238572Y-64178571D01*
X1667144Y-64178571D02*
X1667144Y-62678571D01*
X1524287Y-62892857D01*
X1381429Y-63035714D01*
X1238572Y-63107143D01*
X2952858Y-63321429D02*
X2810000Y-63250000D01*
X2738572Y-63178571D01*
X2667143Y-63035714D01*
X2667143Y-62964286D01*
X2738572Y-62821429D01*
X2810000Y-62750000D01*
X2952858Y-62678571D01*
X3238572Y-62678571D01*
X3381429Y-62750000D01*
X3452858Y-62821429D01*
X3524286Y-62964286D01*
X3524286Y-63035714D01*
X3452858Y-63178571D01*
X3381429Y-63250000D01*
X3238572Y-63321429D01*
X2952858Y-63321429D01*
X2810000Y-63392857D01*
X2738572Y-63464286D01*
X2667143Y-63607143D01*
X2667143Y-63892857D01*
X2738572Y-64035714D01*
X2810000Y-64107143D01*
X2952858Y-64178571D01*
X3238572Y-64178571D01*
X3381429Y-64107143D01*
X3452858Y-64035714D01*
X3524286Y-63892857D01*
X3524286Y-63607143D01*
X3452858Y-63464286D01*
X3381429Y-63392857D01*
X3238572Y-63321429D01*
X2095715Y-59098571D02*
X1238572Y-59098571D01*
X1667144Y-59098571D02*
X1667144Y-57598571D01*
X1524287Y-57812857D01*
X1381429Y-57955714D01*
X1238572Y-58027143D01*
X3381429Y-57598571D02*
X3095715Y-57598571D01*
X2952858Y-57670000D01*
X2881429Y-57741429D01*
X2738572Y-57955714D01*
X2667143Y-58241429D01*
X2667143Y-58812857D01*
X2738572Y-58955714D01*
X2810000Y-59027143D01*
X2952858Y-59098571D01*
X3238572Y-59098571D01*
X3381429Y-59027143D01*
X3452858Y-58955714D01*
X3524286Y-58812857D01*
X3524286Y-58455714D01*
X3452858Y-58312857D01*
X3381429Y-58241429D01*
X3238572Y-58170000D01*
X2952858Y-58170000D01*
X2810000Y-58241429D01*
X2738572Y-58312857D01*
X2667143Y-58455714D01*
X2095715Y-54018571D02*
X1238572Y-54018571D01*
X1667144Y-54018571D02*
X1667144Y-52518571D01*
X1524287Y-52732857D01*
X1381429Y-52875714D01*
X1238572Y-52947143D01*
X3381429Y-53018571D02*
X3381429Y-54018571D01*
X3024286Y-52447143D02*
X2667143Y-53518571D01*
X3595715Y-53518571D01*
X2095715Y-48938571D02*
X1238572Y-48938571D01*
X1667144Y-48938571D02*
X1667144Y-47438571D01*
X1524287Y-47652857D01*
X1381429Y-47795714D01*
X1238572Y-47867143D01*
X2667143Y-47581429D02*
X2738572Y-47510000D01*
X2881429Y-47438571D01*
X3238572Y-47438571D01*
X3381429Y-47510000D01*
X3452858Y-47581429D01*
X3524286Y-47724286D01*
X3524286Y-47867143D01*
X3452858Y-48081429D01*
X2595715Y-48938571D01*
X3524286Y-48938571D01*
X2095715Y-43858571D02*
X1238572Y-43858571D01*
X1667144Y-43858571D02*
X1667144Y-42358571D01*
X1524287Y-42572857D01*
X1381429Y-42715714D01*
X1238572Y-42787143D01*
X3024286Y-42358571D02*
X3167143Y-42358571D01*
X3310000Y-42430000D01*
X3381429Y-42501429D01*
X3452858Y-42644286D01*
X3524286Y-42930000D01*
X3524286Y-43287143D01*
X3452858Y-43572857D01*
X3381429Y-43715714D01*
X3310000Y-43787143D01*
X3167143Y-43858571D01*
X3024286Y-43858571D01*
X2881429Y-43787143D01*
X2810000Y-43715714D01*
X2738572Y-43572857D01*
X2667143Y-43287143D01*
X2667143Y-42930000D01*
X2738572Y-42644286D01*
X2810000Y-42501429D01*
X2881429Y-42430000D01*
X3024286Y-42358571D01*
X2952858Y-37921429D02*
X2810000Y-37850000D01*
X2738572Y-37778571D01*
X2667143Y-37635714D01*
X2667143Y-37564286D01*
X2738572Y-37421429D01*
X2810000Y-37350000D01*
X2952858Y-37278571D01*
X3238572Y-37278571D01*
X3381429Y-37350000D01*
X3452858Y-37421429D01*
X3524286Y-37564286D01*
X3524286Y-37635714D01*
X3452858Y-37778571D01*
X3381429Y-37850000D01*
X3238572Y-37921429D01*
X2952858Y-37921429D01*
X2810000Y-37992857D01*
X2738572Y-38064286D01*
X2667143Y-38207143D01*
X2667143Y-38492857D01*
X2738572Y-38635714D01*
X2810000Y-38707143D01*
X2952858Y-38778571D01*
X3238572Y-38778571D01*
X3381429Y-38707143D01*
X3452858Y-38635714D01*
X3524286Y-38492857D01*
X3524286Y-38207143D01*
X3452858Y-38064286D01*
X3381429Y-37992857D01*
X3238572Y-37921429D01*
X3381429Y-32198571D02*
X3095715Y-32198571D01*
X2952858Y-32270000D01*
X2881429Y-32341429D01*
X2738572Y-32555714D01*
X2667143Y-32841429D01*
X2667143Y-33412857D01*
X2738572Y-33555714D01*
X2810000Y-33627143D01*
X2952858Y-33698571D01*
X3238572Y-33698571D01*
X3381429Y-33627143D01*
X3452858Y-33555714D01*
X3524286Y-33412857D01*
X3524286Y-33055714D01*
X3452858Y-32912857D01*
X3381429Y-32841429D01*
X3238572Y-32770000D01*
X2952858Y-32770000D01*
X2810000Y-32841429D01*
X2738572Y-32912857D01*
X2667143Y-33055714D01*
X3381429Y-27618571D02*
X3381429Y-28618571D01*
X3024286Y-27047143D02*
X2667143Y-28118571D01*
X3595715Y-28118571D01*
X2667143Y-22181429D02*
X2738572Y-22110000D01*
X2881429Y-22038571D01*
X3238572Y-22038571D01*
X3381429Y-22110000D01*
X3452858Y-22181429D01*
X3524286Y-22324286D01*
X3524286Y-22467143D01*
X3452858Y-22681429D01*
X2595715Y-23538571D01*
X3524286Y-23538571D01*
D10*
X88900000Y-92710000D02*
X88900000Y-90170000D01*
X88900000Y-90170000D02*
X96520000Y-90170000D01*
X96520000Y-90170000D02*
X96520000Y-92710000D01*
X96520000Y-92710000D02*
X88900000Y-92710000D01*
X83820000Y-92710000D02*
X83820000Y-90170000D01*
X83820000Y-90170000D02*
X73660000Y-90170000D01*
X73660000Y-90170000D02*
X73660000Y-92710000D01*
X73660000Y-92710000D02*
X83820000Y-92710000D01*
X43180000Y-92710000D02*
X43180000Y-90170000D01*
X43180000Y-90170000D02*
X50800000Y-90170000D01*
X50800000Y-90170000D02*
X50800000Y-92710000D01*
X50800000Y-92710000D02*
X43180000Y-92710000D01*
X38100000Y-92710000D02*
X38100000Y-90170000D01*
X38100000Y-90170000D02*
X27940000Y-90170000D01*
X27940000Y-90170000D02*
X27940000Y-92710000D01*
X27940000Y-92710000D02*
X38100000Y-92710000D01*
X50800000Y-41910000D02*
X50800000Y-39370000D01*
X50800000Y-39370000D02*
X58420000Y-39370000D01*
X58420000Y-39370000D02*
X58420000Y-41910000D01*
X58420000Y-41910000D02*
X50800000Y-41910000D01*
X73660000Y-41910000D02*
X73660000Y-39370000D01*
X73660000Y-39370000D02*
X63500000Y-39370000D01*
X63500000Y-39370000D02*
X63500000Y-41910000D01*
X63500000Y-41910000D02*
X73660000Y-41910000D01*
X5080000Y-29210000D02*
X5080000Y-26670000D01*
X5080000Y-26670000D02*
X12700000Y-26670000D01*
X12700000Y-26670000D02*
X12700000Y-29210000D01*
X12700000Y-29210000D02*
X5080000Y-29210000D01*
X27940000Y-29210000D02*
X27940000Y-26670000D01*
X27940000Y-26670000D02*
X17780000Y-26670000D01*
X17780000Y-26670000D02*
X17780000Y-29210000D01*
X17780000Y-29210000D02*
X27940000Y-29210000D01*
X5080000Y-26670000D02*
X5080000Y-24130000D01*
X5080000Y-24130000D02*
X12700000Y-24130000D01*
X12700000Y-24130000D02*
X12700000Y-26670000D01*
X12700000Y-26670000D02*
X5080000Y-26670000D01*
X27940000Y-26670000D02*
X27940000Y-24130000D01*
X27940000Y-24130000D02*
X17780000Y-24130000D01*
X17780000Y-24130000D02*
X17780000Y-26670000D01*
X17780000Y-26670000D02*
X27940000Y-26670000D01*
X5080000Y-24130000D02*
X5080000Y-21590000D01*
X5080000Y-21590000D02*
X12700000Y-21590000D01*
X12700000Y-21590000D02*
X12700000Y-24130000D01*
X12700000Y-24130000D02*
X5080000Y-24130000D01*
X27940000Y-24130000D02*
X27940000Y-21590000D01*
X27940000Y-21590000D02*
X17780000Y-21590000D01*
X17780000Y-21590000D02*
X17780000Y-24130000D01*
X17780000Y-24130000D02*
X27940000Y-24130000D01*
X43180000Y-29210000D02*
X43180000Y-26670000D01*
X43180000Y-26670000D02*
X50800000Y-26670000D01*
X50800000Y-26670000D02*
X50800000Y-29210000D01*
X50800000Y-29210000D02*
X43180000Y-29210000D01*
X38100000Y-29210000D02*
X38100000Y-26670000D01*
X38100000Y-26670000D02*
X27940000Y-26670000D01*
X27940000Y-26670000D02*
X27940000Y-29210000D01*
X27940000Y-29210000D02*
X38100000Y-29210000D01*
X43180000Y-26670000D02*
X43180000Y-24130000D01*
X43180000Y-24130000D02*
X50800000Y-24130000D01*
X50800000Y-24130000D02*
X50800000Y-26670000D01*
X50800000Y-26670000D02*
X43180000Y-26670000D01*
X38100000Y-26670000D02*
X38100000Y-24130000D01*
X38100000Y-24130000D02*
X27940000Y-24130000D01*
X27940000Y-24130000D02*
X27940000Y-26670000D01*
X27940000Y-26670000D02*
X38100000Y-26670000D01*
X43180000Y-24130000D02*
X43180000Y-21590000D01*
X43180000Y-21590000D02*
X50800000Y-21590000D01*
X50800000Y-21590000D02*
X50800000Y-24130000D01*
X50800000Y-24130000D02*
X43180000Y-24130000D01*
X38100000Y-24130000D02*
X38100000Y-21590000D01*
X38100000Y-21590000D02*
X27940000Y-21590000D01*
X27940000Y-21590000D02*
X27940000Y-24130000D01*
X27940000Y-24130000D02*
X38100000Y-24130000D01*
X50800000Y-29210000D02*
X50800000Y-26670000D01*
X50800000Y-26670000D02*
X58420000Y-26670000D01*
X58420000Y-26670000D02*
X58420000Y-29210000D01*
X58420000Y-29210000D02*
X50800000Y-29210000D01*
X73660000Y-29210000D02*
X73660000Y-26670000D01*
X73660000Y-26670000D02*
X63500000Y-26670000D01*
X63500000Y-26670000D02*
X63500000Y-29210000D01*
X63500000Y-29210000D02*
X73660000Y-29210000D01*
X50800000Y-26670000D02*
X50800000Y-24130000D01*
X50800000Y-24130000D02*
X58420000Y-24130000D01*
X58420000Y-24130000D02*
X58420000Y-26670000D01*
X58420000Y-26670000D02*
X50800000Y-26670000D01*
X73660000Y-26670000D02*
X73660000Y-24130000D01*
X73660000Y-24130000D02*
X63500000Y-24130000D01*
X63500000Y-24130000D02*
X63500000Y-26670000D01*
X63500000Y-26670000D02*
X73660000Y-26670000D01*
X50800000Y-24130000D02*
X50800000Y-21590000D01*
X50800000Y-21590000D02*
X58420000Y-21590000D01*
X58420000Y-21590000D02*
X58420000Y-24130000D01*
X58420000Y-24130000D02*
X50800000Y-24130000D01*
X73660000Y-24130000D02*
X73660000Y-21590000D01*
X73660000Y-21590000D02*
X63500000Y-21590000D01*
X63500000Y-21590000D02*
X63500000Y-24130000D01*
X63500000Y-24130000D02*
X73660000Y-24130000D01*
X88900000Y-29210000D02*
X88900000Y-26670000D01*
X88900000Y-26670000D02*
X96520000Y-26670000D01*
X96520000Y-26670000D02*
X96520000Y-29210000D01*
X96520000Y-29210000D02*
X88900000Y-29210000D01*
X83820000Y-29210000D02*
X83820000Y-26670000D01*
X83820000Y-26670000D02*
X73660000Y-26670000D01*
X73660000Y-26670000D02*
X73660000Y-29210000D01*
X73660000Y-29210000D02*
X83820000Y-29210000D01*
X88900000Y-26670000D02*
X88900000Y-24130000D01*
X88900000Y-24130000D02*
X96520000Y-24130000D01*
X96520000Y-24130000D02*
X96520000Y-26670000D01*
X96520000Y-26670000D02*
X88900000Y-26670000D01*
X83820000Y-26670000D02*
X83820000Y-24130000D01*
X83820000Y-24130000D02*
X73660000Y-24130000D01*
X73660000Y-24130000D02*
X73660000Y-26670000D01*
X73660000Y-26670000D02*
X83820000Y-26670000D01*
X88900000Y-24130000D02*
X88900000Y-21590000D01*
X88900000Y-21590000D02*
X96520000Y-21590000D01*
X96520000Y-21590000D02*
X96520000Y-24130000D01*
X96520000Y-24130000D02*
X88900000Y-24130000D01*
X83820000Y-24130000D02*
X83820000Y-21590000D01*
X83820000Y-21590000D02*
X73660000Y-21590000D01*
X73660000Y-21590000D02*
X73660000Y-24130000D01*
X73660000Y-24130000D02*
X83820000Y-24130000D01*
X5080000Y-90170000D02*
X5080000Y-87630000D01*
X5080000Y-87630000D02*
X12700000Y-87630000D01*
X12700000Y-87630000D02*
X12700000Y-90170000D01*
X12700000Y-90170000D02*
X5080000Y-90170000D01*
X27940000Y-90170000D02*
X27940000Y-87630000D01*
X27940000Y-87630000D02*
X17780000Y-87630000D01*
X17780000Y-87630000D02*
X17780000Y-90170000D01*
X17780000Y-90170000D02*
X27940000Y-90170000D01*
X5080000Y-87630000D02*
X5080000Y-85090000D01*
X5080000Y-85090000D02*
X12700000Y-85090000D01*
X12700000Y-85090000D02*
X12700000Y-87630000D01*
X12700000Y-87630000D02*
X5080000Y-87630000D01*
X27940000Y-87630000D02*
X27940000Y-85090000D01*
X27940000Y-85090000D02*
X17780000Y-85090000D01*
X17780000Y-85090000D02*
X17780000Y-87630000D01*
X17780000Y-87630000D02*
X27940000Y-87630000D01*
X5080000Y-85090000D02*
X5080000Y-82550000D01*
X5080000Y-82550000D02*
X12700000Y-82550000D01*
X12700000Y-82550000D02*
X12700000Y-85090000D01*
X12700000Y-85090000D02*
X5080000Y-85090000D01*
X27940000Y-85090000D02*
X27940000Y-82550000D01*
X27940000Y-82550000D02*
X17780000Y-82550000D01*
X17780000Y-82550000D02*
X17780000Y-85090000D01*
X17780000Y-85090000D02*
X27940000Y-85090000D01*
X5080000Y-82550000D02*
X5080000Y-80010000D01*
X5080000Y-80010000D02*
X12700000Y-80010000D01*
X12700000Y-80010000D02*
X12700000Y-82550000D01*
X12700000Y-82550000D02*
X5080000Y-82550000D01*
X27940000Y-82550000D02*
X27940000Y-80010000D01*
X27940000Y-80010000D02*
X17780000Y-80010000D01*
X17780000Y-80010000D02*
X17780000Y-82550000D01*
X17780000Y-82550000D02*
X27940000Y-82550000D01*
X5080000Y-80010000D02*
X5080000Y-77470000D01*
X5080000Y-77470000D02*
X12700000Y-77470000D01*
X12700000Y-77470000D02*
X12700000Y-80010000D01*
X12700000Y-80010000D02*
X5080000Y-80010000D01*
X27940000Y-80010000D02*
X27940000Y-77470000D01*
X27940000Y-77470000D02*
X17780000Y-77470000D01*
X17780000Y-77470000D02*
X17780000Y-80010000D01*
X17780000Y-80010000D02*
X27940000Y-80010000D01*
X5080000Y-77470000D02*
X5080000Y-74930000D01*
X5080000Y-74930000D02*
X12700000Y-74930000D01*
X12700000Y-74930000D02*
X12700000Y-77470000D01*
X12700000Y-77470000D02*
X5080000Y-77470000D01*
X27940000Y-77470000D02*
X27940000Y-74930000D01*
X27940000Y-74930000D02*
X17780000Y-74930000D01*
X17780000Y-74930000D02*
X17780000Y-77470000D01*
X17780000Y-77470000D02*
X27940000Y-77470000D01*
X5080000Y-74930000D02*
X5080000Y-72390000D01*
X5080000Y-72390000D02*
X12700000Y-72390000D01*
X12700000Y-72390000D02*
X12700000Y-74930000D01*
X12700000Y-74930000D02*
X5080000Y-74930000D01*
X27940000Y-74930000D02*
X27940000Y-72390000D01*
X27940000Y-72390000D02*
X17780000Y-72390000D01*
X17780000Y-72390000D02*
X17780000Y-74930000D01*
X17780000Y-74930000D02*
X27940000Y-74930000D01*
X5080000Y-72390000D02*
X5080000Y-69850000D01*
X5080000Y-69850000D02*
X12700000Y-69850000D01*
X12700000Y-69850000D02*
X12700000Y-72390000D01*
X12700000Y-72390000D02*
X5080000Y-72390000D01*
X27940000Y-72390000D02*
X27940000Y-69850000D01*
X27940000Y-69850000D02*
X17780000Y-69850000D01*
X17780000Y-69850000D02*
X17780000Y-72390000D01*
X17780000Y-72390000D02*
X27940000Y-72390000D01*
X5080000Y-69850000D02*
X5080000Y-67310000D01*
X5080000Y-67310000D02*
X12700000Y-67310000D01*
X12700000Y-67310000D02*
X12700000Y-69850000D01*
X12700000Y-69850000D02*
X5080000Y-69850000D01*
X27940000Y-69850000D02*
X27940000Y-67310000D01*
X27940000Y-67310000D02*
X17780000Y-67310000D01*
X17780000Y-67310000D02*
X17780000Y-69850000D01*
X17780000Y-69850000D02*
X27940000Y-69850000D01*
X5080000Y-67310000D02*
X5080000Y-64770000D01*
X5080000Y-64770000D02*
X12700000Y-64770000D01*
X12700000Y-64770000D02*
X12700000Y-67310000D01*
X12700000Y-67310000D02*
X5080000Y-67310000D01*
X27940000Y-67310000D02*
X27940000Y-64770000D01*
X27940000Y-64770000D02*
X17780000Y-64770000D01*
X17780000Y-64770000D02*
X17780000Y-67310000D01*
X17780000Y-67310000D02*
X27940000Y-67310000D01*
X5080000Y-64770000D02*
X5080000Y-62230000D01*
X5080000Y-62230000D02*
X12700000Y-62230000D01*
X12700000Y-62230000D02*
X12700000Y-64770000D01*
X12700000Y-64770000D02*
X5080000Y-64770000D01*
X27940000Y-64770000D02*
X27940000Y-62230000D01*
X27940000Y-62230000D02*
X17780000Y-62230000D01*
X17780000Y-62230000D02*
X17780000Y-64770000D01*
X17780000Y-64770000D02*
X27940000Y-64770000D01*
X5080000Y-62230000D02*
X5080000Y-59690000D01*
X5080000Y-59690000D02*
X12700000Y-59690000D01*
X12700000Y-59690000D02*
X12700000Y-62230000D01*
X12700000Y-62230000D02*
X5080000Y-62230000D01*
X27940000Y-62230000D02*
X27940000Y-59690000D01*
X27940000Y-59690000D02*
X17780000Y-59690000D01*
X17780000Y-59690000D02*
X17780000Y-62230000D01*
X17780000Y-62230000D02*
X27940000Y-62230000D01*
X5080000Y-59690000D02*
X5080000Y-57150000D01*
X5080000Y-57150000D02*
X12700000Y-57150000D01*
X12700000Y-57150000D02*
X12700000Y-59690000D01*
X12700000Y-59690000D02*
X5080000Y-59690000D01*
X27940000Y-59690000D02*
X27940000Y-57150000D01*
X27940000Y-57150000D02*
X17780000Y-57150000D01*
X17780000Y-57150000D02*
X17780000Y-59690000D01*
X17780000Y-59690000D02*
X27940000Y-59690000D01*
X5080000Y-57150000D02*
X5080000Y-54610000D01*
X5080000Y-54610000D02*
X12700000Y-54610000D01*
X12700000Y-54610000D02*
X12700000Y-57150000D01*
X12700000Y-57150000D02*
X5080000Y-57150000D01*
X27940000Y-57150000D02*
X27940000Y-54610000D01*
X27940000Y-54610000D02*
X17780000Y-54610000D01*
X17780000Y-54610000D02*
X17780000Y-57150000D01*
X17780000Y-57150000D02*
X27940000Y-57150000D01*
X5080000Y-54610000D02*
X5080000Y-52070000D01*
X5080000Y-52070000D02*
X12700000Y-52070000D01*
X12700000Y-52070000D02*
X12700000Y-54610000D01*
X12700000Y-54610000D02*
X5080000Y-54610000D01*
X27940000Y-54610000D02*
X27940000Y-52070000D01*
X27940000Y-52070000D02*
X17780000Y-52070000D01*
X17780000Y-52070000D02*
X17780000Y-54610000D01*
X17780000Y-54610000D02*
X27940000Y-54610000D01*
X5080000Y-52070000D02*
X5080000Y-49530000D01*
X5080000Y-49530000D02*
X12700000Y-49530000D01*
X12700000Y-49530000D02*
X12700000Y-52070000D01*
X12700000Y-52070000D02*
X5080000Y-52070000D01*
X27940000Y-52070000D02*
X27940000Y-49530000D01*
X27940000Y-49530000D02*
X17780000Y-49530000D01*
X17780000Y-49530000D02*
X17780000Y-52070000D01*
X17780000Y-52070000D02*
X27940000Y-52070000D01*
X5080000Y-49530000D02*
X5080000Y-46990000D01*
X5080000Y-46990000D02*
X12700000Y-46990000D01*
X12700000Y-46990000D02*
X12700000Y-49530000D01*
X12700000Y-49530000D02*
X5080000Y-49530000D01*
X27940000Y-49530000D02*
X27940000Y-46990000D01*
X27940000Y-46990000D02*
X17780000Y-46990000D01*
X17780000Y-46990000D02*
X17780000Y-49530000D01*
X17780000Y-49530000D02*
X27940000Y-49530000D01*
X5080000Y-46990000D02*
X5080000Y-44450000D01*
X5080000Y-44450000D02*
X12700000Y-44450000D01*
X12700000Y-44450000D02*
X12700000Y-46990000D01*
X12700000Y-46990000D02*
X5080000Y-46990000D01*
X27940000Y-46990000D02*
X27940000Y-44450000D01*
X27940000Y-44450000D02*
X17780000Y-44450000D01*
X17780000Y-44450000D02*
X17780000Y-46990000D01*
X17780000Y-46990000D02*
X27940000Y-46990000D01*
X5080000Y-44450000D02*
X5080000Y-41910000D01*
X5080000Y-41910000D02*
X12700000Y-41910000D01*
X12700000Y-41910000D02*
X12700000Y-44450000D01*
X12700000Y-44450000D02*
X5080000Y-44450000D01*
X27940000Y-44450000D02*
X27940000Y-41910000D01*
X27940000Y-41910000D02*
X17780000Y-41910000D01*
X17780000Y-41910000D02*
X17780000Y-44450000D01*
X17780000Y-44450000D02*
X27940000Y-44450000D01*
X5080000Y-41910000D02*
X5080000Y-39370000D01*
X5080000Y-39370000D02*
X12700000Y-39370000D01*
X12700000Y-39370000D02*
X12700000Y-41910000D01*
X12700000Y-41910000D02*
X5080000Y-41910000D01*
X27940000Y-41910000D02*
X27940000Y-39370000D01*
X27940000Y-39370000D02*
X17780000Y-39370000D01*
X17780000Y-39370000D02*
X17780000Y-41910000D01*
X17780000Y-41910000D02*
X27940000Y-41910000D01*
X5080000Y-39370000D02*
X5080000Y-36830000D01*
X5080000Y-36830000D02*
X12700000Y-36830000D01*
X12700000Y-36830000D02*
X12700000Y-39370000D01*
X12700000Y-39370000D02*
X5080000Y-39370000D01*
X27940000Y-39370000D02*
X27940000Y-36830000D01*
X27940000Y-36830000D02*
X17780000Y-36830000D01*
X17780000Y-36830000D02*
X17780000Y-39370000D01*
X17780000Y-39370000D02*
X27940000Y-39370000D01*
X5080000Y-36830000D02*
X5080000Y-34290000D01*
X5080000Y-34290000D02*
X12700000Y-34290000D01*
X12700000Y-34290000D02*
X12700000Y-36830000D01*
X12700000Y-36830000D02*
X5080000Y-36830000D01*
X27940000Y-36830000D02*
X27940000Y-34290000D01*
X27940000Y-34290000D02*
X17780000Y-34290000D01*
X17780000Y-34290000D02*
X17780000Y-36830000D01*
X17780000Y-36830000D02*
X27940000Y-36830000D01*
X5080000Y-34290000D02*
X5080000Y-31750000D01*
X5080000Y-31750000D02*
X12700000Y-31750000D01*
X12700000Y-31750000D02*
X12700000Y-34290000D01*
X12700000Y-34290000D02*
X5080000Y-34290000D01*
X27940000Y-34290000D02*
X27940000Y-31750000D01*
X27940000Y-31750000D02*
X17780000Y-31750000D01*
X17780000Y-31750000D02*
X17780000Y-34290000D01*
X17780000Y-34290000D02*
X27940000Y-34290000D01*
X5080000Y-31750000D02*
X5080000Y-29210000D01*
X5080000Y-29210000D02*
X12700000Y-29210000D01*
X12700000Y-29210000D02*
X12700000Y-31750000D01*
X12700000Y-31750000D02*
X5080000Y-31750000D01*
X27940000Y-31750000D02*
X27940000Y-29210000D01*
X27940000Y-29210000D02*
X17780000Y-29210000D01*
X17780000Y-29210000D02*
X17780000Y-31750000D01*
X17780000Y-31750000D02*
X27940000Y-31750000D01*
X5080000Y-21590000D02*
X5080000Y-19050000D01*
X5080000Y-19050000D02*
X12700000Y-19050000D01*
X12700000Y-19050000D02*
X12700000Y-21590000D01*
X12700000Y-21590000D02*
X5080000Y-21590000D01*
X27940000Y-21590000D02*
X27940000Y-19050000D01*
X27940000Y-19050000D02*
X17780000Y-19050000D01*
X17780000Y-19050000D02*
X17780000Y-21590000D01*
X17780000Y-21590000D02*
X27940000Y-21590000D01*
X5080000Y-21590000D02*
X5080000Y-19050000D01*
X5080000Y-19050000D02*
X12700000Y-19050000D01*
X12700000Y-19050000D02*
X12700000Y-21590000D01*
X12700000Y-21590000D02*
X5080000Y-21590000D01*
X27940000Y-21590000D02*
X27940000Y-19050000D01*
X27940000Y-19050000D02*
X17780000Y-19050000D01*
X17780000Y-19050000D02*
X17780000Y-21590000D01*
X17780000Y-21590000D02*
X27940000Y-21590000D01*
X5080000Y-31750000D02*
X5080000Y-29210000D01*
X5080000Y-29210000D02*
X12700000Y-29210000D01*
X12700000Y-29210000D02*
X12700000Y-31750000D01*
X12700000Y-31750000D02*
X5080000Y-31750000D01*
X27940000Y-31750000D02*
X27940000Y-29210000D01*
X27940000Y-29210000D02*
X17780000Y-29210000D01*
X17780000Y-29210000D02*
X17780000Y-31750000D01*
X17780000Y-31750000D02*
X27940000Y-31750000D01*
X5080000Y-34290000D02*
X5080000Y-31750000D01*
X5080000Y-31750000D02*
X12700000Y-31750000D01*
X12700000Y-31750000D02*
X12700000Y-34290000D01*
X12700000Y-34290000D02*
X5080000Y-34290000D01*
X27940000Y-34290000D02*
X27940000Y-31750000D01*
X27940000Y-31750000D02*
X17780000Y-31750000D01*
X17780000Y-31750000D02*
X17780000Y-34290000D01*
X17780000Y-34290000D02*
X27940000Y-34290000D01*
X5080000Y-36830000D02*
X5080000Y-34290000D01*
X5080000Y-34290000D02*
X12700000Y-34290000D01*
X12700000Y-34290000D02*
X12700000Y-36830000D01*
X12700000Y-36830000D02*
X5080000Y-36830000D01*
X27940000Y-36830000D02*
X27940000Y-34290000D01*
X27940000Y-34290000D02*
X17780000Y-34290000D01*
X17780000Y-34290000D02*
X17780000Y-36830000D01*
X17780000Y-36830000D02*
X27940000Y-36830000D01*
X5080000Y-39370000D02*
X5080000Y-36830000D01*
X5080000Y-36830000D02*
X12700000Y-36830000D01*
X12700000Y-36830000D02*
X12700000Y-39370000D01*
X12700000Y-39370000D02*
X5080000Y-39370000D01*
X27940000Y-39370000D02*
X27940000Y-36830000D01*
X27940000Y-36830000D02*
X17780000Y-36830000D01*
X17780000Y-36830000D02*
X17780000Y-39370000D01*
X17780000Y-39370000D02*
X27940000Y-39370000D01*
X5080000Y-41910000D02*
X5080000Y-39370000D01*
X5080000Y-39370000D02*
X12700000Y-39370000D01*
X12700000Y-39370000D02*
X12700000Y-41910000D01*
X12700000Y-41910000D02*
X5080000Y-41910000D01*
X27940000Y-41910000D02*
X27940000Y-39370000D01*
X27940000Y-39370000D02*
X17780000Y-39370000D01*
X17780000Y-39370000D02*
X17780000Y-41910000D01*
X17780000Y-41910000D02*
X27940000Y-41910000D01*
X5080000Y-44450000D02*
X5080000Y-41910000D01*
X5080000Y-41910000D02*
X12700000Y-41910000D01*
X12700000Y-41910000D02*
X12700000Y-44450000D01*
X12700000Y-44450000D02*
X5080000Y-44450000D01*
X27940000Y-44450000D02*
X27940000Y-41910000D01*
X27940000Y-41910000D02*
X17780000Y-41910000D01*
X17780000Y-41910000D02*
X17780000Y-44450000D01*
X17780000Y-44450000D02*
X27940000Y-44450000D01*
X5080000Y-46990000D02*
X5080000Y-44450000D01*
X5080000Y-44450000D02*
X12700000Y-44450000D01*
X12700000Y-44450000D02*
X12700000Y-46990000D01*
X12700000Y-46990000D02*
X5080000Y-46990000D01*
X27940000Y-46990000D02*
X27940000Y-44450000D01*
X27940000Y-44450000D02*
X17780000Y-44450000D01*
X17780000Y-44450000D02*
X17780000Y-46990000D01*
X17780000Y-46990000D02*
X27940000Y-46990000D01*
X5080000Y-49530000D02*
X5080000Y-46990000D01*
X5080000Y-46990000D02*
X12700000Y-46990000D01*
X12700000Y-46990000D02*
X12700000Y-49530000D01*
X12700000Y-49530000D02*
X5080000Y-49530000D01*
X27940000Y-49530000D02*
X27940000Y-46990000D01*
X27940000Y-46990000D02*
X17780000Y-46990000D01*
X17780000Y-46990000D02*
X17780000Y-49530000D01*
X17780000Y-49530000D02*
X27940000Y-49530000D01*
X5080000Y-52070000D02*
X5080000Y-49530000D01*
X5080000Y-49530000D02*
X12700000Y-49530000D01*
X12700000Y-49530000D02*
X12700000Y-52070000D01*
X12700000Y-52070000D02*
X5080000Y-52070000D01*
X27940000Y-52070000D02*
X27940000Y-49530000D01*
X27940000Y-49530000D02*
X17780000Y-49530000D01*
X17780000Y-49530000D02*
X17780000Y-52070000D01*
X17780000Y-52070000D02*
X27940000Y-52070000D01*
X5080000Y-54610000D02*
X5080000Y-52070000D01*
X5080000Y-52070000D02*
X12700000Y-52070000D01*
X12700000Y-52070000D02*
X12700000Y-54610000D01*
X12700000Y-54610000D02*
X5080000Y-54610000D01*
X27940000Y-54610000D02*
X27940000Y-52070000D01*
X27940000Y-52070000D02*
X17780000Y-52070000D01*
X17780000Y-52070000D02*
X17780000Y-54610000D01*
X17780000Y-54610000D02*
X27940000Y-54610000D01*
X5080000Y-57150000D02*
X5080000Y-54610000D01*
X5080000Y-54610000D02*
X12700000Y-54610000D01*
X12700000Y-54610000D02*
X12700000Y-57150000D01*
X12700000Y-57150000D02*
X5080000Y-57150000D01*
X27940000Y-57150000D02*
X27940000Y-54610000D01*
X27940000Y-54610000D02*
X17780000Y-54610000D01*
X17780000Y-54610000D02*
X17780000Y-57150000D01*
X17780000Y-57150000D02*
X27940000Y-57150000D01*
X5080000Y-59690000D02*
X5080000Y-57150000D01*
X5080000Y-57150000D02*
X12700000Y-57150000D01*
X12700000Y-57150000D02*
X12700000Y-59690000D01*
X12700000Y-59690000D02*
X5080000Y-59690000D01*
X27940000Y-59690000D02*
X27940000Y-57150000D01*
X27940000Y-57150000D02*
X17780000Y-57150000D01*
X17780000Y-57150000D02*
X17780000Y-59690000D01*
X17780000Y-59690000D02*
X27940000Y-59690000D01*
X5080000Y-62230000D02*
X5080000Y-59690000D01*
X5080000Y-59690000D02*
X12700000Y-59690000D01*
X12700000Y-59690000D02*
X12700000Y-62230000D01*
X12700000Y-62230000D02*
X5080000Y-62230000D01*
X27940000Y-62230000D02*
X27940000Y-59690000D01*
X27940000Y-59690000D02*
X17780000Y-59690000D01*
X17780000Y-59690000D02*
X17780000Y-62230000D01*
X17780000Y-62230000D02*
X27940000Y-62230000D01*
X5080000Y-64770000D02*
X5080000Y-62230000D01*
X5080000Y-62230000D02*
X12700000Y-62230000D01*
X12700000Y-62230000D02*
X12700000Y-64770000D01*
X12700000Y-64770000D02*
X5080000Y-64770000D01*
X27940000Y-64770000D02*
X27940000Y-62230000D01*
X27940000Y-62230000D02*
X17780000Y-62230000D01*
X17780000Y-62230000D02*
X17780000Y-64770000D01*
X17780000Y-64770000D02*
X27940000Y-64770000D01*
X5080000Y-67310000D02*
X5080000Y-64770000D01*
X5080000Y-64770000D02*
X12700000Y-64770000D01*
X12700000Y-64770000D02*
X12700000Y-67310000D01*
X12700000Y-67310000D02*
X5080000Y-67310000D01*
X27940000Y-67310000D02*
X27940000Y-64770000D01*
X27940000Y-64770000D02*
X17780000Y-64770000D01*
X17780000Y-64770000D02*
X17780000Y-67310000D01*
X17780000Y-67310000D02*
X27940000Y-67310000D01*
X5080000Y-69850000D02*
X5080000Y-67310000D01*
X5080000Y-67310000D02*
X12700000Y-67310000D01*
X12700000Y-67310000D02*
X12700000Y-69850000D01*
X12700000Y-69850000D02*
X5080000Y-69850000D01*
X27940000Y-69850000D02*
X27940000Y-67310000D01*
X27940000Y-67310000D02*
X17780000Y-67310000D01*
X17780000Y-67310000D02*
X17780000Y-69850000D01*
X17780000Y-69850000D02*
X27940000Y-69850000D01*
X5080000Y-72390000D02*
X5080000Y-69850000D01*
X5080000Y-69850000D02*
X12700000Y-69850000D01*
X12700000Y-69850000D02*
X12700000Y-72390000D01*
X12700000Y-72390000D02*
X5080000Y-72390000D01*
X27940000Y-72390000D02*
X27940000Y-69850000D01*
X27940000Y-69850000D02*
X17780000Y-69850000D01*
X17780000Y-69850000D02*
X17780000Y-72390000D01*
X17780000Y-72390000D02*
X27940000Y-72390000D01*
X5080000Y-74930000D02*
X5080000Y-72390000D01*
X5080000Y-72390000D02*
X12700000Y-72390000D01*
X12700000Y-72390000D02*
X12700000Y-74930000D01*
X12700000Y-74930000D02*
X5080000Y-74930000D01*
X27940000Y-74930000D02*
X27940000Y-72390000D01*
X27940000Y-72390000D02*
X17780000Y-72390000D01*
X17780000Y-72390000D02*
X17780000Y-74930000D01*
X17780000Y-74930000D02*
X27940000Y-74930000D01*
X5080000Y-77470000D02*
X5080000Y-74930000D01*
X5080000Y-74930000D02*
X12700000Y-74930000D01*
X12700000Y-74930000D02*
X12700000Y-77470000D01*
X12700000Y-77470000D02*
X5080000Y-77470000D01*
X27940000Y-77470000D02*
X27940000Y-74930000D01*
X27940000Y-74930000D02*
X17780000Y-74930000D01*
X17780000Y-74930000D02*
X17780000Y-77470000D01*
X17780000Y-77470000D02*
X27940000Y-77470000D01*
X5080000Y-80010000D02*
X5080000Y-77470000D01*
X5080000Y-77470000D02*
X12700000Y-77470000D01*
X12700000Y-77470000D02*
X12700000Y-80010000D01*
X12700000Y-80010000D02*
X5080000Y-80010000D01*
X27940000Y-80010000D02*
X27940000Y-77470000D01*
X27940000Y-77470000D02*
X17780000Y-77470000D01*
X17780000Y-77470000D02*
X17780000Y-80010000D01*
X17780000Y-80010000D02*
X27940000Y-80010000D01*
X5080000Y-82550000D02*
X5080000Y-80010000D01*
X5080000Y-80010000D02*
X12700000Y-80010000D01*
X12700000Y-80010000D02*
X12700000Y-82550000D01*
X12700000Y-82550000D02*
X5080000Y-82550000D01*
X27940000Y-82550000D02*
X27940000Y-80010000D01*
X27940000Y-80010000D02*
X17780000Y-80010000D01*
X17780000Y-80010000D02*
X17780000Y-82550000D01*
X17780000Y-82550000D02*
X27940000Y-82550000D01*
X5080000Y-85090000D02*
X5080000Y-82550000D01*
X5080000Y-82550000D02*
X12700000Y-82550000D01*
X12700000Y-82550000D02*
X12700000Y-85090000D01*
X12700000Y-85090000D02*
X5080000Y-85090000D01*
X27940000Y-85090000D02*
X27940000Y-82550000D01*
X27940000Y-82550000D02*
X17780000Y-82550000D01*
X17780000Y-82550000D02*
X17780000Y-85090000D01*
X17780000Y-85090000D02*
X27940000Y-85090000D01*
X5080000Y-87630000D02*
X5080000Y-85090000D01*
X5080000Y-85090000D02*
X12700000Y-85090000D01*
X12700000Y-85090000D02*
X12700000Y-87630000D01*
X12700000Y-87630000D02*
X5080000Y-87630000D01*
X27940000Y-87630000D02*
X27940000Y-85090000D01*
X27940000Y-85090000D02*
X17780000Y-85090000D01*
X17780000Y-85090000D02*
X17780000Y-87630000D01*
X17780000Y-87630000D02*
X27940000Y-87630000D01*
X5080000Y-92710000D02*
X5080000Y-90170000D01*
X5080000Y-90170000D02*
X12700000Y-90170000D01*
X12700000Y-90170000D02*
X12700000Y-92710000D01*
X12700000Y-92710000D02*
X5080000Y-92710000D01*
X27940000Y-92710000D02*
X27940000Y-90170000D01*
X27940000Y-90170000D02*
X17780000Y-90170000D01*
X17780000Y-90170000D02*
X17780000Y-92710000D01*
X17780000Y-92710000D02*
X27940000Y-92710000D01*
X50800000Y-90170000D02*
X50800000Y-87630000D01*
X50800000Y-87630000D02*
X58420000Y-87630000D01*
X58420000Y-87630000D02*
X58420000Y-90170000D01*
X58420000Y-90170000D02*
X50800000Y-90170000D01*
X73660000Y-90170000D02*
X73660000Y-87630000D01*
X73660000Y-87630000D02*
X63500000Y-87630000D01*
X63500000Y-87630000D02*
X63500000Y-90170000D01*
X63500000Y-90170000D02*
X73660000Y-90170000D01*
X50800000Y-87630000D02*
X50800000Y-85090000D01*
X50800000Y-85090000D02*
X58420000Y-85090000D01*
X58420000Y-85090000D02*
X58420000Y-87630000D01*
X58420000Y-87630000D02*
X50800000Y-87630000D01*
X73660000Y-87630000D02*
X73660000Y-85090000D01*
X73660000Y-85090000D02*
X63500000Y-85090000D01*
X63500000Y-85090000D02*
X63500000Y-87630000D01*
X63500000Y-87630000D02*
X73660000Y-87630000D01*
X50800000Y-85090000D02*
X50800000Y-82550000D01*
X50800000Y-82550000D02*
X58420000Y-82550000D01*
X58420000Y-82550000D02*
X58420000Y-85090000D01*
X58420000Y-85090000D02*
X50800000Y-85090000D01*
X73660000Y-85090000D02*
X73660000Y-82550000D01*
X73660000Y-82550000D02*
X63500000Y-82550000D01*
X63500000Y-82550000D02*
X63500000Y-85090000D01*
X63500000Y-85090000D02*
X73660000Y-85090000D01*
X50800000Y-82550000D02*
X50800000Y-80010000D01*
X50800000Y-80010000D02*
X58420000Y-80010000D01*
X58420000Y-80010000D02*
X58420000Y-82550000D01*
X58420000Y-82550000D02*
X50800000Y-82550000D01*
X73660000Y-82550000D02*
X73660000Y-80010000D01*
X73660000Y-80010000D02*
X63500000Y-80010000D01*
X63500000Y-80010000D02*
X63500000Y-82550000D01*
X63500000Y-82550000D02*
X73660000Y-82550000D01*
X50800000Y-80010000D02*
X50800000Y-77470000D01*
X50800000Y-77470000D02*
X58420000Y-77470000D01*
X58420000Y-77470000D02*
X58420000Y-80010000D01*
X58420000Y-80010000D02*
X50800000Y-80010000D01*
X73660000Y-80010000D02*
X73660000Y-77470000D01*
X73660000Y-77470000D02*
X63500000Y-77470000D01*
X63500000Y-77470000D02*
X63500000Y-80010000D01*
X63500000Y-80010000D02*
X73660000Y-80010000D01*
X50800000Y-77470000D02*
X50800000Y-74930000D01*
X50800000Y-74930000D02*
X58420000Y-74930000D01*
X58420000Y-74930000D02*
X58420000Y-77470000D01*
X58420000Y-77470000D02*
X50800000Y-77470000D01*
X73660000Y-77470000D02*
X73660000Y-74930000D01*
X73660000Y-74930000D02*
X63500000Y-74930000D01*
X63500000Y-74930000D02*
X63500000Y-77470000D01*
X63500000Y-77470000D02*
X73660000Y-77470000D01*
X50800000Y-74930000D02*
X50800000Y-72390000D01*
X50800000Y-72390000D02*
X58420000Y-72390000D01*
X58420000Y-72390000D02*
X58420000Y-74930000D01*
X58420000Y-74930000D02*
X50800000Y-74930000D01*
X73660000Y-74930000D02*
X73660000Y-72390000D01*
X73660000Y-72390000D02*
X63500000Y-72390000D01*
X63500000Y-72390000D02*
X63500000Y-74930000D01*
X63500000Y-74930000D02*
X73660000Y-74930000D01*
X50800000Y-72390000D02*
X50800000Y-69850000D01*
X50800000Y-69850000D02*
X58420000Y-69850000D01*
X58420000Y-69850000D02*
X58420000Y-72390000D01*
X58420000Y-72390000D02*
X50800000Y-72390000D01*
X73660000Y-72390000D02*
X73660000Y-69850000D01*
X73660000Y-69850000D02*
X63500000Y-69850000D01*
X63500000Y-69850000D02*
X63500000Y-72390000D01*
X63500000Y-72390000D02*
X73660000Y-72390000D01*
X50800000Y-69850000D02*
X50800000Y-67310000D01*
X50800000Y-67310000D02*
X58420000Y-67310000D01*
X58420000Y-67310000D02*
X58420000Y-69850000D01*
X58420000Y-69850000D02*
X50800000Y-69850000D01*
X73660000Y-69850000D02*
X73660000Y-67310000D01*
X73660000Y-67310000D02*
X63500000Y-67310000D01*
X63500000Y-67310000D02*
X63500000Y-69850000D01*
X63500000Y-69850000D02*
X73660000Y-69850000D01*
X50800000Y-67310000D02*
X50800000Y-64770000D01*
X50800000Y-64770000D02*
X58420000Y-64770000D01*
X58420000Y-64770000D02*
X58420000Y-67310000D01*
X58420000Y-67310000D02*
X50800000Y-67310000D01*
X73660000Y-67310000D02*
X73660000Y-64770000D01*
X73660000Y-64770000D02*
X63500000Y-64770000D01*
X63500000Y-64770000D02*
X63500000Y-67310000D01*
X63500000Y-67310000D02*
X73660000Y-67310000D01*
X50800000Y-64770000D02*
X50800000Y-62230000D01*
X50800000Y-62230000D02*
X58420000Y-62230000D01*
X58420000Y-62230000D02*
X58420000Y-64770000D01*
X58420000Y-64770000D02*
X50800000Y-64770000D01*
X73660000Y-64770000D02*
X73660000Y-62230000D01*
X73660000Y-62230000D02*
X63500000Y-62230000D01*
X63500000Y-62230000D02*
X63500000Y-64770000D01*
X63500000Y-64770000D02*
X73660000Y-64770000D01*
X50800000Y-62230000D02*
X50800000Y-59690000D01*
X50800000Y-59690000D02*
X58420000Y-59690000D01*
X58420000Y-59690000D02*
X58420000Y-62230000D01*
X58420000Y-62230000D02*
X50800000Y-62230000D01*
X73660000Y-62230000D02*
X73660000Y-59690000D01*
X73660000Y-59690000D02*
X63500000Y-59690000D01*
X63500000Y-59690000D02*
X63500000Y-62230000D01*
X63500000Y-62230000D02*
X73660000Y-62230000D01*
X50800000Y-59690000D02*
X50800000Y-57150000D01*
X50800000Y-57150000D02*
X58420000Y-57150000D01*
X58420000Y-57150000D02*
X58420000Y-59690000D01*
X58420000Y-59690000D02*
X50800000Y-59690000D01*
X73660000Y-59690000D02*
X73660000Y-57150000D01*
X73660000Y-57150000D02*
X63500000Y-57150000D01*
X63500000Y-57150000D02*
X63500000Y-59690000D01*
X63500000Y-59690000D02*
X73660000Y-59690000D01*
X50800000Y-57150000D02*
X50800000Y-54610000D01*
X50800000Y-54610000D02*
X58420000Y-54610000D01*
X58420000Y-54610000D02*
X58420000Y-57150000D01*
X58420000Y-57150000D02*
X50800000Y-57150000D01*
X73660000Y-57150000D02*
X73660000Y-54610000D01*
X73660000Y-54610000D02*
X63500000Y-54610000D01*
X63500000Y-54610000D02*
X63500000Y-57150000D01*
X63500000Y-57150000D02*
X73660000Y-57150000D01*
X50800000Y-54610000D02*
X50800000Y-52070000D01*
X50800000Y-52070000D02*
X58420000Y-52070000D01*
X58420000Y-52070000D02*
X58420000Y-54610000D01*
X58420000Y-54610000D02*
X50800000Y-54610000D01*
X73660000Y-54610000D02*
X73660000Y-52070000D01*
X73660000Y-52070000D02*
X63500000Y-52070000D01*
X63500000Y-52070000D02*
X63500000Y-54610000D01*
X63500000Y-54610000D02*
X73660000Y-54610000D01*
X50800000Y-52070000D02*
X50800000Y-49530000D01*
X50800000Y-49530000D02*
X58420000Y-49530000D01*
X58420000Y-49530000D02*
X58420000Y-52070000D01*
X58420000Y-52070000D02*
X50800000Y-52070000D01*
X73660000Y-52070000D02*
X73660000Y-49530000D01*
X73660000Y-49530000D02*
X63500000Y-49530000D01*
X63500000Y-49530000D02*
X63500000Y-52070000D01*
X63500000Y-52070000D02*
X73660000Y-52070000D01*
X50800000Y-49530000D02*
X50800000Y-46990000D01*
X50800000Y-46990000D02*
X58420000Y-46990000D01*
X58420000Y-46990000D02*
X58420000Y-49530000D01*
X58420000Y-49530000D02*
X50800000Y-49530000D01*
X73660000Y-49530000D02*
X73660000Y-46990000D01*
X73660000Y-46990000D02*
X63500000Y-46990000D01*
X63500000Y-46990000D02*
X63500000Y-49530000D01*
X63500000Y-49530000D02*
X73660000Y-49530000D01*
X50800000Y-46990000D02*
X50800000Y-44450000D01*
X50800000Y-44450000D02*
X58420000Y-44450000D01*
X58420000Y-44450000D02*
X58420000Y-46990000D01*
X58420000Y-46990000D02*
X50800000Y-46990000D01*
X73660000Y-46990000D02*
X73660000Y-44450000D01*
X73660000Y-44450000D02*
X63500000Y-44450000D01*
X63500000Y-44450000D02*
X63500000Y-46990000D01*
X63500000Y-46990000D02*
X73660000Y-46990000D01*
X50800000Y-44450000D02*
X50800000Y-41910000D01*
X50800000Y-41910000D02*
X58420000Y-41910000D01*
X58420000Y-41910000D02*
X58420000Y-44450000D01*
X58420000Y-44450000D02*
X50800000Y-44450000D01*
X73660000Y-44450000D02*
X73660000Y-41910000D01*
X73660000Y-41910000D02*
X63500000Y-41910000D01*
X63500000Y-41910000D02*
X63500000Y-44450000D01*
X63500000Y-44450000D02*
X73660000Y-44450000D01*
X50800000Y-41910000D02*
X50800000Y-39370000D01*
X50800000Y-39370000D02*
X58420000Y-39370000D01*
X58420000Y-39370000D02*
X58420000Y-41910000D01*
X58420000Y-41910000D02*
X50800000Y-41910000D01*
X73660000Y-41910000D02*
X73660000Y-39370000D01*
X73660000Y-39370000D02*
X63500000Y-39370000D01*
X63500000Y-39370000D02*
X63500000Y-41910000D01*
X63500000Y-41910000D02*
X73660000Y-41910000D01*
X50800000Y-39370000D02*
X50800000Y-36830000D01*
X50800000Y-36830000D02*
X58420000Y-36830000D01*
X58420000Y-36830000D02*
X58420000Y-39370000D01*
X58420000Y-39370000D02*
X50800000Y-39370000D01*
X73660000Y-39370000D02*
X73660000Y-36830000D01*
X73660000Y-36830000D02*
X63500000Y-36830000D01*
X63500000Y-36830000D02*
X63500000Y-39370000D01*
X63500000Y-39370000D02*
X73660000Y-39370000D01*
X50800000Y-36830000D02*
X50800000Y-34290000D01*
X50800000Y-34290000D02*
X58420000Y-34290000D01*
X58420000Y-34290000D02*
X58420000Y-36830000D01*
X58420000Y-36830000D02*
X50800000Y-36830000D01*
X73660000Y-36830000D02*
X73660000Y-34290000D01*
X73660000Y-34290000D02*
X63500000Y-34290000D01*
X63500000Y-34290000D02*
X63500000Y-36830000D01*
X63500000Y-36830000D02*
X73660000Y-36830000D01*
X50800000Y-34290000D02*
X50800000Y-31750000D01*
X50800000Y-31750000D02*
X58420000Y-31750000D01*
X58420000Y-31750000D02*
X58420000Y-34290000D01*
X58420000Y-34290000D02*
X50800000Y-34290000D01*
X73660000Y-34290000D02*
X73660000Y-31750000D01*
X73660000Y-31750000D02*
X63500000Y-31750000D01*
X63500000Y-31750000D02*
X63500000Y-34290000D01*
X63500000Y-34290000D02*
X73660000Y-34290000D01*
X50800000Y-31750000D02*
X50800000Y-29210000D01*
X50800000Y-29210000D02*
X58420000Y-29210000D01*
X58420000Y-29210000D02*
X58420000Y-31750000D01*
X58420000Y-31750000D02*
X50800000Y-31750000D01*
X73660000Y-31750000D02*
X73660000Y-29210000D01*
X73660000Y-29210000D02*
X63500000Y-29210000D01*
X63500000Y-29210000D02*
X63500000Y-31750000D01*
X63500000Y-31750000D02*
X73660000Y-31750000D01*
X50800000Y-21590000D02*
X50800000Y-19050000D01*
X50800000Y-19050000D02*
X58420000Y-19050000D01*
X58420000Y-19050000D02*
X58420000Y-21590000D01*
X58420000Y-21590000D02*
X50800000Y-21590000D01*
X73660000Y-21590000D02*
X73660000Y-19050000D01*
X73660000Y-19050000D02*
X63500000Y-19050000D01*
X63500000Y-19050000D02*
X63500000Y-21590000D01*
X63500000Y-21590000D02*
X73660000Y-21590000D01*
X50800000Y-21590000D02*
X50800000Y-19050000D01*
X50800000Y-19050000D02*
X58420000Y-19050000D01*
X58420000Y-19050000D02*
X58420000Y-21590000D01*
X58420000Y-21590000D02*
X50800000Y-21590000D01*
X73660000Y-21590000D02*
X73660000Y-19050000D01*
X73660000Y-19050000D02*
X63500000Y-19050000D01*
X63500000Y-19050000D02*
X63500000Y-21590000D01*
X63500000Y-21590000D02*
X73660000Y-21590000D01*
X50800000Y-31750000D02*
X50800000Y-29210000D01*
X50800000Y-29210000D02*
X58420000Y-29210000D01*
X58420000Y-29210000D02*
X58420000Y-31750000D01*
X58420000Y-31750000D02*
X50800000Y-31750000D01*
X73660000Y-31750000D02*
X73660000Y-29210000D01*
X73660000Y-29210000D02*
X63500000Y-29210000D01*
X63500000Y-29210000D02*
X63500000Y-31750000D01*
X63500000Y-31750000D02*
X73660000Y-31750000D01*
X50800000Y-34290000D02*
X50800000Y-31750000D01*
X50800000Y-31750000D02*
X58420000Y-31750000D01*
X58420000Y-31750000D02*
X58420000Y-34290000D01*
X58420000Y-34290000D02*
X50800000Y-34290000D01*
X73660000Y-34290000D02*
X73660000Y-31750000D01*
X73660000Y-31750000D02*
X63500000Y-31750000D01*
X63500000Y-31750000D02*
X63500000Y-34290000D01*
X63500000Y-34290000D02*
X73660000Y-34290000D01*
X50800000Y-36830000D02*
X50800000Y-34290000D01*
X50800000Y-34290000D02*
X58420000Y-34290000D01*
X58420000Y-34290000D02*
X58420000Y-36830000D01*
X58420000Y-36830000D02*
X50800000Y-36830000D01*
X73660000Y-36830000D02*
X73660000Y-34290000D01*
X73660000Y-34290000D02*
X63500000Y-34290000D01*
X63500000Y-34290000D02*
X63500000Y-36830000D01*
X63500000Y-36830000D02*
X73660000Y-36830000D01*
X50800000Y-39370000D02*
X50800000Y-36830000D01*
X50800000Y-36830000D02*
X58420000Y-36830000D01*
X58420000Y-36830000D02*
X58420000Y-39370000D01*
X58420000Y-39370000D02*
X50800000Y-39370000D01*
X73660000Y-39370000D02*
X73660000Y-36830000D01*
X73660000Y-36830000D02*
X63500000Y-36830000D01*
X63500000Y-36830000D02*
X63500000Y-39370000D01*
X63500000Y-39370000D02*
X73660000Y-39370000D01*
X50800000Y-41910000D02*
X50800000Y-39370000D01*
X50800000Y-39370000D02*
X58420000Y-39370000D01*
X58420000Y-39370000D02*
X58420000Y-41910000D01*
X58420000Y-41910000D02*
X50800000Y-41910000D01*
X73660000Y-41910000D02*
X73660000Y-39370000D01*
X73660000Y-39370000D02*
X63500000Y-39370000D01*
X63500000Y-39370000D02*
X63500000Y-41910000D01*
X63500000Y-41910000D02*
X73660000Y-41910000D01*
X50800000Y-44450000D02*
X50800000Y-41910000D01*
X50800000Y-41910000D02*
X58420000Y-41910000D01*
X58420000Y-41910000D02*
X58420000Y-44450000D01*
X58420000Y-44450000D02*
X50800000Y-44450000D01*
X73660000Y-44450000D02*
X73660000Y-41910000D01*
X73660000Y-41910000D02*
X63500000Y-41910000D01*
X63500000Y-41910000D02*
X63500000Y-44450000D01*
X63500000Y-44450000D02*
X73660000Y-44450000D01*
X50800000Y-46990000D02*
X50800000Y-44450000D01*
X50800000Y-44450000D02*
X58420000Y-44450000D01*
X58420000Y-44450000D02*
X58420000Y-46990000D01*
X58420000Y-46990000D02*
X50800000Y-46990000D01*
X73660000Y-46990000D02*
X73660000Y-44450000D01*
X73660000Y-44450000D02*
X63500000Y-44450000D01*
X63500000Y-44450000D02*
X63500000Y-46990000D01*
X63500000Y-46990000D02*
X73660000Y-46990000D01*
X50800000Y-49530000D02*
X50800000Y-46990000D01*
X50800000Y-46990000D02*
X58420000Y-46990000D01*
X58420000Y-46990000D02*
X58420000Y-49530000D01*
X58420000Y-49530000D02*
X50800000Y-49530000D01*
X73660000Y-49530000D02*
X73660000Y-46990000D01*
X73660000Y-46990000D02*
X63500000Y-46990000D01*
X63500000Y-46990000D02*
X63500000Y-49530000D01*
X63500000Y-49530000D02*
X73660000Y-49530000D01*
X50800000Y-52070000D02*
X50800000Y-49530000D01*
X50800000Y-49530000D02*
X58420000Y-49530000D01*
X58420000Y-49530000D02*
X58420000Y-52070000D01*
X58420000Y-52070000D02*
X50800000Y-52070000D01*
X73660000Y-52070000D02*
X73660000Y-49530000D01*
X73660000Y-49530000D02*
X63500000Y-49530000D01*
X63500000Y-49530000D02*
X63500000Y-52070000D01*
X63500000Y-52070000D02*
X73660000Y-52070000D01*
X50800000Y-54610000D02*
X50800000Y-52070000D01*
X50800000Y-52070000D02*
X58420000Y-52070000D01*
X58420000Y-52070000D02*
X58420000Y-54610000D01*
X58420000Y-54610000D02*
X50800000Y-54610000D01*
X73660000Y-54610000D02*
X73660000Y-52070000D01*
X73660000Y-52070000D02*
X63500000Y-52070000D01*
X63500000Y-52070000D02*
X63500000Y-54610000D01*
X63500000Y-54610000D02*
X73660000Y-54610000D01*
X50800000Y-57150000D02*
X50800000Y-54610000D01*
X50800000Y-54610000D02*
X58420000Y-54610000D01*
X58420000Y-54610000D02*
X58420000Y-57150000D01*
X58420000Y-57150000D02*
X50800000Y-57150000D01*
X73660000Y-57150000D02*
X73660000Y-54610000D01*
X73660000Y-54610000D02*
X63500000Y-54610000D01*
X63500000Y-54610000D02*
X63500000Y-57150000D01*
X63500000Y-57150000D02*
X73660000Y-57150000D01*
X50800000Y-59690000D02*
X50800000Y-57150000D01*
X50800000Y-57150000D02*
X58420000Y-57150000D01*
X58420000Y-57150000D02*
X58420000Y-59690000D01*
X58420000Y-59690000D02*
X50800000Y-59690000D01*
X73660000Y-59690000D02*
X73660000Y-57150000D01*
X73660000Y-57150000D02*
X63500000Y-57150000D01*
X63500000Y-57150000D02*
X63500000Y-59690000D01*
X63500000Y-59690000D02*
X73660000Y-59690000D01*
X50800000Y-62230000D02*
X50800000Y-59690000D01*
X50800000Y-59690000D02*
X58420000Y-59690000D01*
X58420000Y-59690000D02*
X58420000Y-62230000D01*
X58420000Y-62230000D02*
X50800000Y-62230000D01*
X73660000Y-62230000D02*
X73660000Y-59690000D01*
X73660000Y-59690000D02*
X63500000Y-59690000D01*
X63500000Y-59690000D02*
X63500000Y-62230000D01*
X63500000Y-62230000D02*
X73660000Y-62230000D01*
X50800000Y-64770000D02*
X50800000Y-62230000D01*
X50800000Y-62230000D02*
X58420000Y-62230000D01*
X58420000Y-62230000D02*
X58420000Y-64770000D01*
X58420000Y-64770000D02*
X50800000Y-64770000D01*
X73660000Y-64770000D02*
X73660000Y-62230000D01*
X73660000Y-62230000D02*
X63500000Y-62230000D01*
X63500000Y-62230000D02*
X63500000Y-64770000D01*
X63500000Y-64770000D02*
X73660000Y-64770000D01*
X50800000Y-67310000D02*
X50800000Y-64770000D01*
X50800000Y-64770000D02*
X58420000Y-64770000D01*
X58420000Y-64770000D02*
X58420000Y-67310000D01*
X58420000Y-67310000D02*
X50800000Y-67310000D01*
X73660000Y-67310000D02*
X73660000Y-64770000D01*
X73660000Y-64770000D02*
X63500000Y-64770000D01*
X63500000Y-64770000D02*
X63500000Y-67310000D01*
X63500000Y-67310000D02*
X73660000Y-67310000D01*
X50800000Y-69850000D02*
X50800000Y-67310000D01*
X50800000Y-67310000D02*
X58420000Y-67310000D01*
X58420000Y-67310000D02*
X58420000Y-69850000D01*
X58420000Y-69850000D02*
X50800000Y-69850000D01*
X73660000Y-69850000D02*
X73660000Y-67310000D01*
X73660000Y-67310000D02*
X63500000Y-67310000D01*
X63500000Y-67310000D02*
X63500000Y-69850000D01*
X63500000Y-69850000D02*
X73660000Y-69850000D01*
X50800000Y-72390000D02*
X50800000Y-69850000D01*
X50800000Y-69850000D02*
X58420000Y-69850000D01*
X58420000Y-69850000D02*
X58420000Y-72390000D01*
X58420000Y-72390000D02*
X50800000Y-72390000D01*
X73660000Y-72390000D02*
X73660000Y-69850000D01*
X73660000Y-69850000D02*
X63500000Y-69850000D01*
X63500000Y-69850000D02*
X63500000Y-72390000D01*
X63500000Y-72390000D02*
X73660000Y-72390000D01*
X50800000Y-74930000D02*
X50800000Y-72390000D01*
X50800000Y-72390000D02*
X58420000Y-72390000D01*
X58420000Y-72390000D02*
X58420000Y-74930000D01*
X58420000Y-74930000D02*
X50800000Y-74930000D01*
X73660000Y-74930000D02*
X73660000Y-72390000D01*
X73660000Y-72390000D02*
X63500000Y-72390000D01*
X63500000Y-72390000D02*
X63500000Y-74930000D01*
X63500000Y-74930000D02*
X73660000Y-74930000D01*
X50800000Y-77470000D02*
X50800000Y-74930000D01*
X50800000Y-74930000D02*
X58420000Y-74930000D01*
X58420000Y-74930000D02*
X58420000Y-77470000D01*
X58420000Y-77470000D02*
X50800000Y-77470000D01*
X73660000Y-77470000D02*
X73660000Y-74930000D01*
X73660000Y-74930000D02*
X63500000Y-74930000D01*
X63500000Y-74930000D02*
X63500000Y-77470000D01*
X63500000Y-77470000D02*
X73660000Y-77470000D01*
X50800000Y-80010000D02*
X50800000Y-77470000D01*
X50800000Y-77470000D02*
X58420000Y-77470000D01*
X58420000Y-77470000D02*
X58420000Y-80010000D01*
X58420000Y-80010000D02*
X50800000Y-80010000D01*
X73660000Y-80010000D02*
X73660000Y-77470000D01*
X73660000Y-77470000D02*
X63500000Y-77470000D01*
X63500000Y-77470000D02*
X63500000Y-80010000D01*
X63500000Y-80010000D02*
X73660000Y-80010000D01*
X50800000Y-82550000D02*
X50800000Y-80010000D01*
X50800000Y-80010000D02*
X58420000Y-80010000D01*
X58420000Y-80010000D02*
X58420000Y-82550000D01*
X58420000Y-82550000D02*
X50800000Y-82550000D01*
X73660000Y-82550000D02*
X73660000Y-80010000D01*
X73660000Y-80010000D02*
X63500000Y-80010000D01*
X63500000Y-80010000D02*
X63500000Y-82550000D01*
X63500000Y-82550000D02*
X73660000Y-82550000D01*
X50800000Y-85090000D02*
X50800000Y-82550000D01*
X50800000Y-82550000D02*
X58420000Y-82550000D01*
X58420000Y-82550000D02*
X58420000Y-85090000D01*
X58420000Y-85090000D02*
X50800000Y-85090000D01*
X73660000Y-85090000D02*
X73660000Y-82550000D01*
X73660000Y-82550000D02*
X63500000Y-82550000D01*
X63500000Y-82550000D02*
X63500000Y-85090000D01*
X63500000Y-85090000D02*
X73660000Y-85090000D01*
X50800000Y-87630000D02*
X50800000Y-85090000D01*
X50800000Y-85090000D02*
X58420000Y-85090000D01*
X58420000Y-85090000D02*
X58420000Y-87630000D01*
X58420000Y-87630000D02*
X50800000Y-87630000D01*
X73660000Y-87630000D02*
X73660000Y-85090000D01*
X73660000Y-85090000D02*
X63500000Y-85090000D01*
X63500000Y-85090000D02*
X63500000Y-87630000D01*
X63500000Y-87630000D02*
X73660000Y-87630000D01*
X50800000Y-92710000D02*
X50800000Y-90170000D01*
X50800000Y-90170000D02*
X58420000Y-90170000D01*
X58420000Y-90170000D02*
X58420000Y-92710000D01*
X58420000Y-92710000D02*
X50800000Y-92710000D01*
X73660000Y-92710000D02*
X73660000Y-90170000D01*
X73660000Y-90170000D02*
X63500000Y-90170000D01*
X63500000Y-90170000D02*
X63500000Y-92710000D01*
X63500000Y-92710000D02*
X73660000Y-92710000D01*
X43180000Y-90170000D02*
X43180000Y-87630000D01*
X43180000Y-87630000D02*
X50800000Y-87630000D01*
X50800000Y-87630000D02*
X50800000Y-90170000D01*
X50800000Y-90170000D02*
X43180000Y-90170000D01*
X38100000Y-90170000D02*
X38100000Y-87630000D01*
X38100000Y-87630000D02*
X27940000Y-87630000D01*
X27940000Y-87630000D02*
X27940000Y-90170000D01*
X27940000Y-90170000D02*
X38100000Y-90170000D01*
X43180000Y-87630000D02*
X43180000Y-85090000D01*
X43180000Y-85090000D02*
X50800000Y-85090000D01*
X50800000Y-85090000D02*
X50800000Y-87630000D01*
X50800000Y-87630000D02*
X43180000Y-87630000D01*
X38100000Y-87630000D02*
X38100000Y-85090000D01*
X38100000Y-85090000D02*
X27940000Y-85090000D01*
X27940000Y-85090000D02*
X27940000Y-87630000D01*
X27940000Y-87630000D02*
X38100000Y-87630000D01*
X43180000Y-85090000D02*
X43180000Y-82550000D01*
X43180000Y-82550000D02*
X50800000Y-82550000D01*
X50800000Y-82550000D02*
X50800000Y-85090000D01*
X50800000Y-85090000D02*
X43180000Y-85090000D01*
X38100000Y-85090000D02*
X38100000Y-82550000D01*
X38100000Y-82550000D02*
X27940000Y-82550000D01*
X27940000Y-82550000D02*
X27940000Y-85090000D01*
X27940000Y-85090000D02*
X38100000Y-85090000D01*
X43180000Y-82550000D02*
X43180000Y-80010000D01*
X43180000Y-80010000D02*
X50800000Y-80010000D01*
X50800000Y-80010000D02*
X50800000Y-82550000D01*
X50800000Y-82550000D02*
X43180000Y-82550000D01*
X38100000Y-82550000D02*
X38100000Y-80010000D01*
X38100000Y-80010000D02*
X27940000Y-80010000D01*
X27940000Y-80010000D02*
X27940000Y-82550000D01*
X27940000Y-82550000D02*
X38100000Y-82550000D01*
X43180000Y-80010000D02*
X43180000Y-77470000D01*
X43180000Y-77470000D02*
X50800000Y-77470000D01*
X50800000Y-77470000D02*
X50800000Y-80010000D01*
X50800000Y-80010000D02*
X43180000Y-80010000D01*
X38100000Y-80010000D02*
X38100000Y-77470000D01*
X38100000Y-77470000D02*
X27940000Y-77470000D01*
X27940000Y-77470000D02*
X27940000Y-80010000D01*
X27940000Y-80010000D02*
X38100000Y-80010000D01*
X43180000Y-77470000D02*
X43180000Y-74930000D01*
X43180000Y-74930000D02*
X50800000Y-74930000D01*
X50800000Y-74930000D02*
X50800000Y-77470000D01*
X50800000Y-77470000D02*
X43180000Y-77470000D01*
X38100000Y-77470000D02*
X38100000Y-74930000D01*
X38100000Y-74930000D02*
X27940000Y-74930000D01*
X27940000Y-74930000D02*
X27940000Y-77470000D01*
X27940000Y-77470000D02*
X38100000Y-77470000D01*
X43180000Y-74930000D02*
X43180000Y-72390000D01*
X43180000Y-72390000D02*
X50800000Y-72390000D01*
X50800000Y-72390000D02*
X50800000Y-74930000D01*
X50800000Y-74930000D02*
X43180000Y-74930000D01*
X38100000Y-74930000D02*
X38100000Y-72390000D01*
X38100000Y-72390000D02*
X27940000Y-72390000D01*
X27940000Y-72390000D02*
X27940000Y-74930000D01*
X27940000Y-74930000D02*
X38100000Y-74930000D01*
X43180000Y-72390000D02*
X43180000Y-69850000D01*
X43180000Y-69850000D02*
X50800000Y-69850000D01*
X50800000Y-69850000D02*
X50800000Y-72390000D01*
X50800000Y-72390000D02*
X43180000Y-72390000D01*
X38100000Y-72390000D02*
X38100000Y-69850000D01*
X38100000Y-69850000D02*
X27940000Y-69850000D01*
X27940000Y-69850000D02*
X27940000Y-72390000D01*
X27940000Y-72390000D02*
X38100000Y-72390000D01*
X43180000Y-69850000D02*
X43180000Y-67310000D01*
X43180000Y-67310000D02*
X50800000Y-67310000D01*
X50800000Y-67310000D02*
X50800000Y-69850000D01*
X50800000Y-69850000D02*
X43180000Y-69850000D01*
X38100000Y-69850000D02*
X38100000Y-67310000D01*
X38100000Y-67310000D02*
X27940000Y-67310000D01*
X27940000Y-67310000D02*
X27940000Y-69850000D01*
X27940000Y-69850000D02*
X38100000Y-69850000D01*
X43180000Y-67310000D02*
X43180000Y-64770000D01*
X43180000Y-64770000D02*
X50800000Y-64770000D01*
X50800000Y-64770000D02*
X50800000Y-67310000D01*
X50800000Y-67310000D02*
X43180000Y-67310000D01*
X38100000Y-67310000D02*
X38100000Y-64770000D01*
X38100000Y-64770000D02*
X27940000Y-64770000D01*
X27940000Y-64770000D02*
X27940000Y-67310000D01*
X27940000Y-67310000D02*
X38100000Y-67310000D01*
X43180000Y-64770000D02*
X43180000Y-62230000D01*
X43180000Y-62230000D02*
X50800000Y-62230000D01*
X50800000Y-62230000D02*
X50800000Y-64770000D01*
X50800000Y-64770000D02*
X43180000Y-64770000D01*
X38100000Y-64770000D02*
X38100000Y-62230000D01*
X38100000Y-62230000D02*
X27940000Y-62230000D01*
X27940000Y-62230000D02*
X27940000Y-64770000D01*
X27940000Y-64770000D02*
X38100000Y-64770000D01*
X43180000Y-62230000D02*
X43180000Y-59690000D01*
X43180000Y-59690000D02*
X50800000Y-59690000D01*
X50800000Y-59690000D02*
X50800000Y-62230000D01*
X50800000Y-62230000D02*
X43180000Y-62230000D01*
X38100000Y-62230000D02*
X38100000Y-59690000D01*
X38100000Y-59690000D02*
X27940000Y-59690000D01*
X27940000Y-59690000D02*
X27940000Y-62230000D01*
X27940000Y-62230000D02*
X38100000Y-62230000D01*
X43180000Y-59690000D02*
X43180000Y-57150000D01*
X43180000Y-57150000D02*
X50800000Y-57150000D01*
X50800000Y-57150000D02*
X50800000Y-59690000D01*
X50800000Y-59690000D02*
X43180000Y-59690000D01*
X38100000Y-59690000D02*
X38100000Y-57150000D01*
X38100000Y-57150000D02*
X27940000Y-57150000D01*
X27940000Y-57150000D02*
X27940000Y-59690000D01*
X27940000Y-59690000D02*
X38100000Y-59690000D01*
X43180000Y-57150000D02*
X43180000Y-54610000D01*
X43180000Y-54610000D02*
X50800000Y-54610000D01*
X50800000Y-54610000D02*
X50800000Y-57150000D01*
X50800000Y-57150000D02*
X43180000Y-57150000D01*
X38100000Y-57150000D02*
X38100000Y-54610000D01*
X38100000Y-54610000D02*
X27940000Y-54610000D01*
X27940000Y-54610000D02*
X27940000Y-57150000D01*
X27940000Y-57150000D02*
X38100000Y-57150000D01*
X43180000Y-54610000D02*
X43180000Y-52070000D01*
X43180000Y-52070000D02*
X50800000Y-52070000D01*
X50800000Y-52070000D02*
X50800000Y-54610000D01*
X50800000Y-54610000D02*
X43180000Y-54610000D01*
X38100000Y-54610000D02*
X38100000Y-52070000D01*
X38100000Y-52070000D02*
X27940000Y-52070000D01*
X27940000Y-52070000D02*
X27940000Y-54610000D01*
X27940000Y-54610000D02*
X38100000Y-54610000D01*
X43180000Y-52070000D02*
X43180000Y-49530000D01*
X43180000Y-49530000D02*
X50800000Y-49530000D01*
X50800000Y-49530000D02*
X50800000Y-52070000D01*
X50800000Y-52070000D02*
X43180000Y-52070000D01*
X38100000Y-52070000D02*
X38100000Y-49530000D01*
X38100000Y-49530000D02*
X27940000Y-49530000D01*
X27940000Y-49530000D02*
X27940000Y-52070000D01*
X27940000Y-52070000D02*
X38100000Y-52070000D01*
X43180000Y-49530000D02*
X43180000Y-46990000D01*
X43180000Y-46990000D02*
X50800000Y-46990000D01*
X50800000Y-46990000D02*
X50800000Y-49530000D01*
X50800000Y-49530000D02*
X43180000Y-49530000D01*
X38100000Y-49530000D02*
X38100000Y-46990000D01*
X38100000Y-46990000D02*
X27940000Y-46990000D01*
X27940000Y-46990000D02*
X27940000Y-49530000D01*
X27940000Y-49530000D02*
X38100000Y-49530000D01*
X43180000Y-46990000D02*
X43180000Y-44450000D01*
X43180000Y-44450000D02*
X50800000Y-44450000D01*
X50800000Y-44450000D02*
X50800000Y-46990000D01*
X50800000Y-46990000D02*
X43180000Y-46990000D01*
X38100000Y-46990000D02*
X38100000Y-44450000D01*
X38100000Y-44450000D02*
X27940000Y-44450000D01*
X27940000Y-44450000D02*
X27940000Y-46990000D01*
X27940000Y-46990000D02*
X38100000Y-46990000D01*
X43180000Y-44450000D02*
X43180000Y-41910000D01*
X43180000Y-41910000D02*
X50800000Y-41910000D01*
X50800000Y-41910000D02*
X50800000Y-44450000D01*
X50800000Y-44450000D02*
X43180000Y-44450000D01*
X38100000Y-44450000D02*
X38100000Y-41910000D01*
X38100000Y-41910000D02*
X27940000Y-41910000D01*
X27940000Y-41910000D02*
X27940000Y-44450000D01*
X27940000Y-44450000D02*
X38100000Y-44450000D01*
X43180000Y-41910000D02*
X43180000Y-39370000D01*
X43180000Y-39370000D02*
X50800000Y-39370000D01*
X50800000Y-39370000D02*
X50800000Y-41910000D01*
X50800000Y-41910000D02*
X43180000Y-41910000D01*
X38100000Y-41910000D02*
X38100000Y-39370000D01*
X38100000Y-39370000D02*
X27940000Y-39370000D01*
X27940000Y-39370000D02*
X27940000Y-41910000D01*
X27940000Y-41910000D02*
X38100000Y-41910000D01*
X43180000Y-39370000D02*
X43180000Y-36830000D01*
X43180000Y-36830000D02*
X50800000Y-36830000D01*
X50800000Y-36830000D02*
X50800000Y-39370000D01*
X50800000Y-39370000D02*
X43180000Y-39370000D01*
X38100000Y-39370000D02*
X38100000Y-36830000D01*
X38100000Y-36830000D02*
X27940000Y-36830000D01*
X27940000Y-36830000D02*
X27940000Y-39370000D01*
X27940000Y-39370000D02*
X38100000Y-39370000D01*
X43180000Y-36830000D02*
X43180000Y-34290000D01*
X43180000Y-34290000D02*
X50800000Y-34290000D01*
X50800000Y-34290000D02*
X50800000Y-36830000D01*
X50800000Y-36830000D02*
X43180000Y-36830000D01*
X38100000Y-36830000D02*
X38100000Y-34290000D01*
X38100000Y-34290000D02*
X27940000Y-34290000D01*
X27940000Y-34290000D02*
X27940000Y-36830000D01*
X27940000Y-36830000D02*
X38100000Y-36830000D01*
X43180000Y-34290000D02*
X43180000Y-31750000D01*
X43180000Y-31750000D02*
X50800000Y-31750000D01*
X50800000Y-31750000D02*
X50800000Y-34290000D01*
X50800000Y-34290000D02*
X43180000Y-34290000D01*
X38100000Y-34290000D02*
X38100000Y-31750000D01*
X38100000Y-31750000D02*
X27940000Y-31750000D01*
X27940000Y-31750000D02*
X27940000Y-34290000D01*
X27940000Y-34290000D02*
X38100000Y-34290000D01*
X43180000Y-31750000D02*
X43180000Y-29210000D01*
X43180000Y-29210000D02*
X50800000Y-29210000D01*
X50800000Y-29210000D02*
X50800000Y-31750000D01*
X50800000Y-31750000D02*
X43180000Y-31750000D01*
X38100000Y-31750000D02*
X38100000Y-29210000D01*
X38100000Y-29210000D02*
X27940000Y-29210000D01*
X27940000Y-29210000D02*
X27940000Y-31750000D01*
X27940000Y-31750000D02*
X38100000Y-31750000D01*
X43180000Y-21590000D02*
X43180000Y-19050000D01*
X43180000Y-19050000D02*
X50800000Y-19050000D01*
X50800000Y-19050000D02*
X50800000Y-21590000D01*
X50800000Y-21590000D02*
X43180000Y-21590000D01*
X38100000Y-21590000D02*
X38100000Y-19050000D01*
X38100000Y-19050000D02*
X27940000Y-19050000D01*
X27940000Y-19050000D02*
X27940000Y-21590000D01*
X27940000Y-21590000D02*
X38100000Y-21590000D01*
X88900000Y-21590000D02*
X88900000Y-19050000D01*
X88900000Y-19050000D02*
X96520000Y-19050000D01*
X96520000Y-19050000D02*
X96520000Y-21590000D01*
X96520000Y-21590000D02*
X88900000Y-21590000D01*
X83820000Y-21590000D02*
X83820000Y-19050000D01*
X83820000Y-19050000D02*
X73660000Y-19050000D01*
X73660000Y-19050000D02*
X73660000Y-21590000D01*
X73660000Y-21590000D02*
X83820000Y-21590000D01*
X88900000Y-31750000D02*
X88900000Y-29210000D01*
X88900000Y-29210000D02*
X96520000Y-29210000D01*
X96520000Y-29210000D02*
X96520000Y-31750000D01*
X96520000Y-31750000D02*
X88900000Y-31750000D01*
X83820000Y-31750000D02*
X83820000Y-29210000D01*
X83820000Y-29210000D02*
X73660000Y-29210000D01*
X73660000Y-29210000D02*
X73660000Y-31750000D01*
X73660000Y-31750000D02*
X83820000Y-31750000D01*
X88900000Y-34290000D02*
X88900000Y-31750000D01*
X88900000Y-31750000D02*
X96520000Y-31750000D01*
X96520000Y-31750000D02*
X96520000Y-34290000D01*
X96520000Y-34290000D02*
X88900000Y-34290000D01*
X83820000Y-34290000D02*
X83820000Y-31750000D01*
X83820000Y-31750000D02*
X73660000Y-31750000D01*
X73660000Y-31750000D02*
X73660000Y-34290000D01*
X73660000Y-34290000D02*
X83820000Y-34290000D01*
X88900000Y-36830000D02*
X88900000Y-34290000D01*
X88900000Y-34290000D02*
X96520000Y-34290000D01*
X96520000Y-34290000D02*
X96520000Y-36830000D01*
X96520000Y-36830000D02*
X88900000Y-36830000D01*
X83820000Y-36830000D02*
X83820000Y-34290000D01*
X83820000Y-34290000D02*
X73660000Y-34290000D01*
X73660000Y-34290000D02*
X73660000Y-36830000D01*
X73660000Y-36830000D02*
X83820000Y-36830000D01*
X88900000Y-39370000D02*
X88900000Y-36830000D01*
X88900000Y-36830000D02*
X96520000Y-36830000D01*
X96520000Y-36830000D02*
X96520000Y-39370000D01*
X96520000Y-39370000D02*
X88900000Y-39370000D01*
X83820000Y-39370000D02*
X83820000Y-36830000D01*
X83820000Y-36830000D02*
X73660000Y-36830000D01*
X73660000Y-36830000D02*
X73660000Y-39370000D01*
X73660000Y-39370000D02*
X83820000Y-39370000D01*
X88900000Y-41910000D02*
X88900000Y-39370000D01*
X88900000Y-39370000D02*
X96520000Y-39370000D01*
X96520000Y-39370000D02*
X96520000Y-41910000D01*
X96520000Y-41910000D02*
X88900000Y-41910000D01*
X83820000Y-41910000D02*
X83820000Y-39370000D01*
X83820000Y-39370000D02*
X73660000Y-39370000D01*
X73660000Y-39370000D02*
X73660000Y-41910000D01*
X73660000Y-41910000D02*
X83820000Y-41910000D01*
X88900000Y-44450000D02*
X88900000Y-41910000D01*
X88900000Y-41910000D02*
X96520000Y-41910000D01*
X96520000Y-41910000D02*
X96520000Y-44450000D01*
X96520000Y-44450000D02*
X88900000Y-44450000D01*
X83820000Y-44450000D02*
X83820000Y-41910000D01*
X83820000Y-41910000D02*
X73660000Y-41910000D01*
X73660000Y-41910000D02*
X73660000Y-44450000D01*
X73660000Y-44450000D02*
X83820000Y-44450000D01*
X88900000Y-46990000D02*
X88900000Y-44450000D01*
X88900000Y-44450000D02*
X96520000Y-44450000D01*
X96520000Y-44450000D02*
X96520000Y-46990000D01*
X96520000Y-46990000D02*
X88900000Y-46990000D01*
X83820000Y-46990000D02*
X83820000Y-44450000D01*
X83820000Y-44450000D02*
X73660000Y-44450000D01*
X73660000Y-44450000D02*
X73660000Y-46990000D01*
X73660000Y-46990000D02*
X83820000Y-46990000D01*
X88900000Y-49530000D02*
X88900000Y-46990000D01*
X88900000Y-46990000D02*
X96520000Y-46990000D01*
X96520000Y-46990000D02*
X96520000Y-49530000D01*
X96520000Y-49530000D02*
X88900000Y-49530000D01*
X83820000Y-49530000D02*
X83820000Y-46990000D01*
X83820000Y-46990000D02*
X73660000Y-46990000D01*
X73660000Y-46990000D02*
X73660000Y-49530000D01*
X73660000Y-49530000D02*
X83820000Y-49530000D01*
X88900000Y-52070000D02*
X88900000Y-49530000D01*
X88900000Y-49530000D02*
X96520000Y-49530000D01*
X96520000Y-49530000D02*
X96520000Y-52070000D01*
X96520000Y-52070000D02*
X88900000Y-52070000D01*
X83820000Y-52070000D02*
X83820000Y-49530000D01*
X83820000Y-49530000D02*
X73660000Y-49530000D01*
X73660000Y-49530000D02*
X73660000Y-52070000D01*
X73660000Y-52070000D02*
X83820000Y-52070000D01*
X88900000Y-54610000D02*
X88900000Y-52070000D01*
X88900000Y-52070000D02*
X96520000Y-52070000D01*
X96520000Y-52070000D02*
X96520000Y-54610000D01*
X96520000Y-54610000D02*
X88900000Y-54610000D01*
X83820000Y-54610000D02*
X83820000Y-52070000D01*
X83820000Y-52070000D02*
X73660000Y-52070000D01*
X73660000Y-52070000D02*
X73660000Y-54610000D01*
X73660000Y-54610000D02*
X83820000Y-54610000D01*
X88900000Y-57150000D02*
X88900000Y-54610000D01*
X88900000Y-54610000D02*
X96520000Y-54610000D01*
X96520000Y-54610000D02*
X96520000Y-57150000D01*
X96520000Y-57150000D02*
X88900000Y-57150000D01*
X83820000Y-57150000D02*
X83820000Y-54610000D01*
X83820000Y-54610000D02*
X73660000Y-54610000D01*
X73660000Y-54610000D02*
X73660000Y-57150000D01*
X73660000Y-57150000D02*
X83820000Y-57150000D01*
X88900000Y-59690000D02*
X88900000Y-57150000D01*
X88900000Y-57150000D02*
X96520000Y-57150000D01*
X96520000Y-57150000D02*
X96520000Y-59690000D01*
X96520000Y-59690000D02*
X88900000Y-59690000D01*
X83820000Y-59690000D02*
X83820000Y-57150000D01*
X83820000Y-57150000D02*
X73660000Y-57150000D01*
X73660000Y-57150000D02*
X73660000Y-59690000D01*
X73660000Y-59690000D02*
X83820000Y-59690000D01*
X88900000Y-62230000D02*
X88900000Y-59690000D01*
X88900000Y-59690000D02*
X96520000Y-59690000D01*
X96520000Y-59690000D02*
X96520000Y-62230000D01*
X96520000Y-62230000D02*
X88900000Y-62230000D01*
X83820000Y-62230000D02*
X83820000Y-59690000D01*
X83820000Y-59690000D02*
X73660000Y-59690000D01*
X73660000Y-59690000D02*
X73660000Y-62230000D01*
X73660000Y-62230000D02*
X83820000Y-62230000D01*
X88900000Y-64770000D02*
X88900000Y-62230000D01*
X88900000Y-62230000D02*
X96520000Y-62230000D01*
X96520000Y-62230000D02*
X96520000Y-64770000D01*
X96520000Y-64770000D02*
X88900000Y-64770000D01*
X83820000Y-64770000D02*
X83820000Y-62230000D01*
X83820000Y-62230000D02*
X73660000Y-62230000D01*
X73660000Y-62230000D02*
X73660000Y-64770000D01*
X73660000Y-64770000D02*
X83820000Y-64770000D01*
X88900000Y-67310000D02*
X88900000Y-64770000D01*
X88900000Y-64770000D02*
X96520000Y-64770000D01*
X96520000Y-64770000D02*
X96520000Y-67310000D01*
X96520000Y-67310000D02*
X88900000Y-67310000D01*
X83820000Y-67310000D02*
X83820000Y-64770000D01*
X83820000Y-64770000D02*
X73660000Y-64770000D01*
X73660000Y-64770000D02*
X73660000Y-67310000D01*
X73660000Y-67310000D02*
X83820000Y-67310000D01*
X88900000Y-69850000D02*
X88900000Y-67310000D01*
X88900000Y-67310000D02*
X96520000Y-67310000D01*
X96520000Y-67310000D02*
X96520000Y-69850000D01*
X96520000Y-69850000D02*
X88900000Y-69850000D01*
X83820000Y-69850000D02*
X83820000Y-67310000D01*
X83820000Y-67310000D02*
X73660000Y-67310000D01*
X73660000Y-67310000D02*
X73660000Y-69850000D01*
X73660000Y-69850000D02*
X83820000Y-69850000D01*
X88900000Y-72390000D02*
X88900000Y-69850000D01*
X88900000Y-69850000D02*
X96520000Y-69850000D01*
X96520000Y-69850000D02*
X96520000Y-72390000D01*
X96520000Y-72390000D02*
X88900000Y-72390000D01*
X83820000Y-72390000D02*
X83820000Y-69850000D01*
X83820000Y-69850000D02*
X73660000Y-69850000D01*
X73660000Y-69850000D02*
X73660000Y-72390000D01*
X73660000Y-72390000D02*
X83820000Y-72390000D01*
X88900000Y-74930000D02*
X88900000Y-72390000D01*
X88900000Y-72390000D02*
X96520000Y-72390000D01*
X96520000Y-72390000D02*
X96520000Y-74930000D01*
X96520000Y-74930000D02*
X88900000Y-74930000D01*
X83820000Y-74930000D02*
X83820000Y-72390000D01*
X83820000Y-72390000D02*
X73660000Y-72390000D01*
X73660000Y-72390000D02*
X73660000Y-74930000D01*
X73660000Y-74930000D02*
X83820000Y-74930000D01*
X88900000Y-77470000D02*
X88900000Y-74930000D01*
X88900000Y-74930000D02*
X96520000Y-74930000D01*
X96520000Y-74930000D02*
X96520000Y-77470000D01*
X96520000Y-77470000D02*
X88900000Y-77470000D01*
X83820000Y-77470000D02*
X83820000Y-74930000D01*
X83820000Y-74930000D02*
X73660000Y-74930000D01*
X73660000Y-74930000D02*
X73660000Y-77470000D01*
X73660000Y-77470000D02*
X83820000Y-77470000D01*
X88900000Y-80010000D02*
X88900000Y-77470000D01*
X88900000Y-77470000D02*
X96520000Y-77470000D01*
X96520000Y-77470000D02*
X96520000Y-80010000D01*
X96520000Y-80010000D02*
X88900000Y-80010000D01*
X83820000Y-80010000D02*
X83820000Y-77470000D01*
X83820000Y-77470000D02*
X73660000Y-77470000D01*
X73660000Y-77470000D02*
X73660000Y-80010000D01*
X73660000Y-80010000D02*
X83820000Y-80010000D01*
X88900000Y-82550000D02*
X88900000Y-80010000D01*
X88900000Y-80010000D02*
X96520000Y-80010000D01*
X96520000Y-80010000D02*
X96520000Y-82550000D01*
X96520000Y-82550000D02*
X88900000Y-82550000D01*
X83820000Y-82550000D02*
X83820000Y-80010000D01*
X83820000Y-80010000D02*
X73660000Y-80010000D01*
X73660000Y-80010000D02*
X73660000Y-82550000D01*
X73660000Y-82550000D02*
X83820000Y-82550000D01*
X88900000Y-85090000D02*
X88900000Y-82550000D01*
X88900000Y-82550000D02*
X96520000Y-82550000D01*
X96520000Y-82550000D02*
X96520000Y-85090000D01*
X96520000Y-85090000D02*
X88900000Y-85090000D01*
X83820000Y-85090000D02*
X83820000Y-82550000D01*
X83820000Y-82550000D02*
X73660000Y-82550000D01*
X73660000Y-82550000D02*
X73660000Y-85090000D01*
X73660000Y-85090000D02*
X83820000Y-85090000D01*
X88900000Y-87630000D02*
X88900000Y-85090000D01*
X88900000Y-85090000D02*
X96520000Y-85090000D01*
X96520000Y-85090000D02*
X96520000Y-87630000D01*
X96520000Y-87630000D02*
X88900000Y-87630000D01*
X83820000Y-87630000D02*
X83820000Y-85090000D01*
X83820000Y-85090000D02*
X73660000Y-85090000D01*
X73660000Y-85090000D02*
X73660000Y-87630000D01*
X73660000Y-87630000D02*
X83820000Y-87630000D01*
X88900000Y-90170000D02*
X88900000Y-87630000D01*
X88900000Y-87630000D02*
X96520000Y-87630000D01*
X96520000Y-87630000D02*
X96520000Y-90170000D01*
X96520000Y-90170000D02*
X88900000Y-90170000D01*
X83820000Y-90170000D02*
X83820000Y-87630000D01*
X83820000Y-87630000D02*
X73660000Y-87630000D01*
X73660000Y-87630000D02*
X73660000Y-90170000D01*
X73660000Y-90170000D02*
X83820000Y-90170000D01*
X89408000Y-11430000D02*
X90932000Y-11430000D01*
X90932000Y-13970000D02*
X89408000Y-13970000D01*
X88900000Y-4572000D02*
X88900000Y-10668000D01*
X90678000Y-4064000D02*
X90678000Y-11176000D01*
X91440000Y-3302000D02*
X91440000Y-13462000D01*
X90932000Y-11430000D02*
X90932000Y-3810000D01*
X90678000Y-4064000D02*
X89408000Y-4064000D01*
X89408000Y-4064000D02*
X88900000Y-4572000D01*
X88900000Y-10668000D02*
X89408000Y-11176000D01*
X89408000Y-11176000D02*
X90678000Y-11176000D01*
X88900000Y-11938000D02*
X88900000Y-13462000D01*
X88900000Y-13462000D02*
X89408000Y-13970000D01*
X90932000Y-13970000D02*
X91440000Y-13462000D01*
X89408000Y-11430000D02*
X88900000Y-11938000D01*
X89408000Y-3810000D02*
X88900000Y-3302000D01*
X88900000Y-3302000D02*
X88900000Y-1778000D01*
X88900000Y-1778000D02*
X89408000Y-1270000D01*
X89408000Y-1270000D02*
X90932000Y-1270000D01*
X90932000Y-1270000D02*
X91440000Y-1778000D01*
X91440000Y-1778000D02*
X91440000Y-3302000D01*
X90932000Y-3810000D02*
X89408000Y-3810000D01*
X86868000Y-11430000D02*
X88392000Y-11430000D01*
X88392000Y-13970000D02*
X86868000Y-13970000D01*
X86360000Y-4572000D02*
X86360000Y-10668000D01*
X88138000Y-4064000D02*
X88138000Y-11176000D01*
X88900000Y-3302000D02*
X88900000Y-13462000D01*
X88392000Y-11430000D02*
X88392000Y-3810000D01*
X88138000Y-4064000D02*
X86868000Y-4064000D01*
X86868000Y-4064000D02*
X86360000Y-4572000D01*
X86360000Y-10668000D02*
X86868000Y-11176000D01*
X86868000Y-11176000D02*
X88138000Y-11176000D01*
X86360000Y-11938000D02*
X86360000Y-13462000D01*
X86360000Y-13462000D02*
X86868000Y-13970000D01*
X88392000Y-13970000D02*
X88900000Y-13462000D01*
X86868000Y-11430000D02*
X86360000Y-11938000D01*
X86868000Y-3810000D02*
X86360000Y-3302000D01*
X86360000Y-3302000D02*
X86360000Y-1778000D01*
X86360000Y-1778000D02*
X86868000Y-1270000D01*
X86868000Y-1270000D02*
X88392000Y-1270000D01*
X88392000Y-1270000D02*
X88900000Y-1778000D01*
X88900000Y-1778000D02*
X88900000Y-3302000D01*
X88392000Y-3810000D02*
X86868000Y-3810000D01*
X84328000Y-11430000D02*
X85852000Y-11430000D01*
X85852000Y-13970000D02*
X84328000Y-13970000D01*
X83820000Y-4572000D02*
X83820000Y-10668000D01*
X85598000Y-4064000D02*
X85598000Y-11176000D01*
X86360000Y-3302000D02*
X86360000Y-13462000D01*
X85852000Y-11430000D02*
X85852000Y-3810000D01*
X85598000Y-4064000D02*
X84328000Y-4064000D01*
X84328000Y-4064000D02*
X83820000Y-4572000D01*
X83820000Y-10668000D02*
X84328000Y-11176000D01*
X84328000Y-11176000D02*
X85598000Y-11176000D01*
X83820000Y-11938000D02*
X83820000Y-13462000D01*
X83820000Y-13462000D02*
X84328000Y-13970000D01*
X85852000Y-13970000D02*
X86360000Y-13462000D01*
X84328000Y-11430000D02*
X83820000Y-11938000D01*
X84328000Y-3810000D02*
X83820000Y-3302000D01*
X83820000Y-3302000D02*
X83820000Y-1778000D01*
X83820000Y-1778000D02*
X84328000Y-1270000D01*
X84328000Y-1270000D02*
X85852000Y-1270000D01*
X85852000Y-1270000D02*
X86360000Y-1778000D01*
X86360000Y-1778000D02*
X86360000Y-3302000D01*
X85852000Y-3810000D02*
X84328000Y-3810000D01*
X81788000Y-11430000D02*
X83312000Y-11430000D01*
X83312000Y-13970000D02*
X81788000Y-13970000D01*
X81280000Y-4572000D02*
X81280000Y-10668000D01*
X83058000Y-4064000D02*
X83058000Y-11176000D01*
X83820000Y-3302000D02*
X83820000Y-13462000D01*
X83312000Y-11430000D02*
X83312000Y-3810000D01*
X83058000Y-4064000D02*
X81788000Y-4064000D01*
X81788000Y-4064000D02*
X81280000Y-4572000D01*
X81280000Y-10668000D02*
X81788000Y-11176000D01*
X81788000Y-11176000D02*
X83058000Y-11176000D01*
X81280000Y-11938000D02*
X81280000Y-13462000D01*
X81280000Y-13462000D02*
X81788000Y-13970000D01*
X83312000Y-13970000D02*
X83820000Y-13462000D01*
X81788000Y-11430000D02*
X81280000Y-11938000D01*
X81788000Y-3810000D02*
X81280000Y-3302000D01*
X81280000Y-3302000D02*
X81280000Y-1778000D01*
X81280000Y-1778000D02*
X81788000Y-1270000D01*
X81788000Y-1270000D02*
X83312000Y-1270000D01*
X83312000Y-1270000D02*
X83820000Y-1778000D01*
X83820000Y-1778000D02*
X83820000Y-3302000D01*
X83312000Y-3810000D02*
X81788000Y-3810000D01*
X79248000Y-11430000D02*
X80772000Y-11430000D01*
X80772000Y-13970000D02*
X79248000Y-13970000D01*
X78740000Y-4572000D02*
X78740000Y-10668000D01*
X80518000Y-4064000D02*
X80518000Y-11176000D01*
X81280000Y-3302000D02*
X81280000Y-13462000D01*
X80772000Y-11430000D02*
X80772000Y-3810000D01*
X80518000Y-4064000D02*
X79248000Y-4064000D01*
X79248000Y-4064000D02*
X78740000Y-4572000D01*
X78740000Y-10668000D02*
X79248000Y-11176000D01*
X79248000Y-11176000D02*
X80518000Y-11176000D01*
X78740000Y-11938000D02*
X78740000Y-13462000D01*
X78740000Y-13462000D02*
X79248000Y-13970000D01*
X80772000Y-13970000D02*
X81280000Y-13462000D01*
X79248000Y-11430000D02*
X78740000Y-11938000D01*
X79248000Y-3810000D02*
X78740000Y-3302000D01*
X78740000Y-3302000D02*
X78740000Y-1778000D01*
X78740000Y-1778000D02*
X79248000Y-1270000D01*
X79248000Y-1270000D02*
X80772000Y-1270000D01*
X80772000Y-1270000D02*
X81280000Y-1778000D01*
X81280000Y-1778000D02*
X81280000Y-3302000D01*
X80772000Y-3810000D02*
X79248000Y-3810000D01*
X76708000Y-11430000D02*
X78232000Y-11430000D01*
X78232000Y-13970000D02*
X76708000Y-13970000D01*
X76200000Y-4572000D02*
X76200000Y-10668000D01*
X77978000Y-4064000D02*
X77978000Y-11176000D01*
X78740000Y-3302000D02*
X78740000Y-13462000D01*
X78232000Y-11430000D02*
X78232000Y-3810000D01*
X77978000Y-4064000D02*
X76708000Y-4064000D01*
X76708000Y-4064000D02*
X76200000Y-4572000D01*
X76200000Y-10668000D02*
X76708000Y-11176000D01*
X76708000Y-11176000D02*
X77978000Y-11176000D01*
X76200000Y-11938000D02*
X76200000Y-13462000D01*
X76200000Y-13462000D02*
X76708000Y-13970000D01*
X78232000Y-13970000D02*
X78740000Y-13462000D01*
X76708000Y-11430000D02*
X76200000Y-11938000D01*
X76708000Y-3810000D02*
X76200000Y-3302000D01*
X76200000Y-3302000D02*
X76200000Y-1778000D01*
X76200000Y-1778000D02*
X76708000Y-1270000D01*
X76708000Y-1270000D02*
X78232000Y-1270000D01*
X78232000Y-1270000D02*
X78740000Y-1778000D01*
X78740000Y-1778000D02*
X78740000Y-3302000D01*
X78232000Y-3810000D02*
X76708000Y-3810000D01*
X74168000Y-11430000D02*
X75692000Y-11430000D01*
X75692000Y-13970000D02*
X74168000Y-13970000D01*
X73660000Y-4572000D02*
X73660000Y-10668000D01*
X75438000Y-4064000D02*
X75438000Y-11176000D01*
X76200000Y-3302000D02*
X76200000Y-13462000D01*
X75692000Y-11430000D02*
X75692000Y-3810000D01*
X75438000Y-4064000D02*
X74168000Y-4064000D01*
X74168000Y-4064000D02*
X73660000Y-4572000D01*
X73660000Y-10668000D02*
X74168000Y-11176000D01*
X74168000Y-11176000D02*
X75438000Y-11176000D01*
X73660000Y-11938000D02*
X73660000Y-13462000D01*
X73660000Y-13462000D02*
X74168000Y-13970000D01*
X75692000Y-13970000D02*
X76200000Y-13462000D01*
X74168000Y-11430000D02*
X73660000Y-11938000D01*
X74168000Y-3810000D02*
X73660000Y-3302000D01*
X73660000Y-3302000D02*
X73660000Y-1778000D01*
X73660000Y-1778000D02*
X74168000Y-1270000D01*
X74168000Y-1270000D02*
X75692000Y-1270000D01*
X75692000Y-1270000D02*
X76200000Y-1778000D01*
X76200000Y-1778000D02*
X76200000Y-3302000D01*
X75692000Y-3810000D02*
X74168000Y-3810000D01*
X71628000Y-11430000D02*
X73152000Y-11430000D01*
X73152000Y-13970000D02*
X71628000Y-13970000D01*
X71120000Y-4572000D02*
X71120000Y-10668000D01*
X72898000Y-4064000D02*
X72898000Y-11176000D01*
X73660000Y-3302000D02*
X73660000Y-13462000D01*
X73152000Y-11430000D02*
X73152000Y-3810000D01*
X72898000Y-4064000D02*
X71628000Y-4064000D01*
X71628000Y-4064000D02*
X71120000Y-4572000D01*
X71120000Y-10668000D02*
X71628000Y-11176000D01*
X71628000Y-11176000D02*
X72898000Y-11176000D01*
X71120000Y-11938000D02*
X71120000Y-13462000D01*
X71120000Y-13462000D02*
X71628000Y-13970000D01*
X73152000Y-13970000D02*
X73660000Y-13462000D01*
X71628000Y-11430000D02*
X71120000Y-11938000D01*
X71628000Y-3810000D02*
X71120000Y-3302000D01*
X71120000Y-3302000D02*
X71120000Y-1778000D01*
X71120000Y-1778000D02*
X71628000Y-1270000D01*
X71628000Y-1270000D02*
X73152000Y-1270000D01*
X73152000Y-1270000D02*
X73660000Y-1778000D01*
X73660000Y-1778000D02*
X73660000Y-3302000D01*
X73152000Y-3810000D02*
X71628000Y-3810000D01*
X69088000Y-11430000D02*
X70612000Y-11430000D01*
X70612000Y-13970000D02*
X69088000Y-13970000D01*
X68580000Y-4572000D02*
X68580000Y-10668000D01*
X70358000Y-4064000D02*
X70358000Y-11176000D01*
X71120000Y-3302000D02*
X71120000Y-13462000D01*
X70612000Y-11430000D02*
X70612000Y-3810000D01*
X70358000Y-4064000D02*
X69088000Y-4064000D01*
X69088000Y-4064000D02*
X68580000Y-4572000D01*
X68580000Y-10668000D02*
X69088000Y-11176000D01*
X69088000Y-11176000D02*
X70358000Y-11176000D01*
X68580000Y-11938000D02*
X68580000Y-13462000D01*
X68580000Y-13462000D02*
X69088000Y-13970000D01*
X70612000Y-13970000D02*
X71120000Y-13462000D01*
X69088000Y-11430000D02*
X68580000Y-11938000D01*
X69088000Y-3810000D02*
X68580000Y-3302000D01*
X68580000Y-3302000D02*
X68580000Y-1778000D01*
X68580000Y-1778000D02*
X69088000Y-1270000D01*
X69088000Y-1270000D02*
X70612000Y-1270000D01*
X70612000Y-1270000D02*
X71120000Y-1778000D01*
X71120000Y-1778000D02*
X71120000Y-3302000D01*
X70612000Y-3810000D02*
X69088000Y-3810000D01*
X66548000Y-11430000D02*
X68072000Y-11430000D01*
X68072000Y-13970000D02*
X66548000Y-13970000D01*
X66040000Y-4572000D02*
X66040000Y-10668000D01*
X67818000Y-4064000D02*
X67818000Y-11176000D01*
X68580000Y-3302000D02*
X68580000Y-13462000D01*
X68072000Y-11430000D02*
X68072000Y-3810000D01*
X67818000Y-4064000D02*
X66548000Y-4064000D01*
X66548000Y-4064000D02*
X66040000Y-4572000D01*
X66040000Y-10668000D02*
X66548000Y-11176000D01*
X66548000Y-11176000D02*
X67818000Y-11176000D01*
X66040000Y-11938000D02*
X66040000Y-13462000D01*
X66040000Y-13462000D02*
X66548000Y-13970000D01*
X68072000Y-13970000D02*
X68580000Y-13462000D01*
X66548000Y-11430000D02*
X66040000Y-11938000D01*
X66548000Y-3810000D02*
X66040000Y-3302000D01*
X66040000Y-3302000D02*
X66040000Y-1778000D01*
X66040000Y-1778000D02*
X66548000Y-1270000D01*
X66548000Y-1270000D02*
X68072000Y-1270000D01*
X68072000Y-1270000D02*
X68580000Y-1778000D01*
X68580000Y-1778000D02*
X68580000Y-3302000D01*
X68072000Y-3810000D02*
X66548000Y-3810000D01*
X64008000Y-11430000D02*
X65532000Y-11430000D01*
X65532000Y-13970000D02*
X64008000Y-13970000D01*
X63500000Y-4572000D02*
X63500000Y-10668000D01*
X65278000Y-4064000D02*
X65278000Y-11176000D01*
X66040000Y-3302000D02*
X66040000Y-13462000D01*
X65532000Y-11430000D02*
X65532000Y-3810000D01*
X65278000Y-4064000D02*
X64008000Y-4064000D01*
X64008000Y-4064000D02*
X63500000Y-4572000D01*
X63500000Y-10668000D02*
X64008000Y-11176000D01*
X64008000Y-11176000D02*
X65278000Y-11176000D01*
X63500000Y-11938000D02*
X63500000Y-13462000D01*
X63500000Y-13462000D02*
X64008000Y-13970000D01*
X65532000Y-13970000D02*
X66040000Y-13462000D01*
X64008000Y-11430000D02*
X63500000Y-11938000D01*
X64008000Y-3810000D02*
X63500000Y-3302000D01*
X63500000Y-3302000D02*
X63500000Y-1778000D01*
X63500000Y-1778000D02*
X64008000Y-1270000D01*
X64008000Y-1270000D02*
X65532000Y-1270000D01*
X65532000Y-1270000D02*
X66040000Y-1778000D01*
X66040000Y-1778000D02*
X66040000Y-3302000D01*
X65532000Y-3810000D02*
X64008000Y-3810000D01*
X61468000Y-11430000D02*
X62992000Y-11430000D01*
X62992000Y-13970000D02*
X61468000Y-13970000D01*
X60960000Y-4572000D02*
X60960000Y-10668000D01*
X62738000Y-4064000D02*
X62738000Y-11176000D01*
X63500000Y-3302000D02*
X63500000Y-13462000D01*
X62992000Y-11430000D02*
X62992000Y-3810000D01*
X62738000Y-4064000D02*
X61468000Y-4064000D01*
X61468000Y-4064000D02*
X60960000Y-4572000D01*
X60960000Y-10668000D02*
X61468000Y-11176000D01*
X61468000Y-11176000D02*
X62738000Y-11176000D01*
X60960000Y-11938000D02*
X60960000Y-13462000D01*
X60960000Y-13462000D02*
X61468000Y-13970000D01*
X62992000Y-13970000D02*
X63500000Y-13462000D01*
X61468000Y-11430000D02*
X60960000Y-11938000D01*
X61468000Y-3810000D02*
X60960000Y-3302000D01*
X60960000Y-3302000D02*
X60960000Y-1778000D01*
X60960000Y-1778000D02*
X61468000Y-1270000D01*
X61468000Y-1270000D02*
X62992000Y-1270000D01*
X62992000Y-1270000D02*
X63500000Y-1778000D01*
X63500000Y-1778000D02*
X63500000Y-3302000D01*
X62992000Y-3810000D02*
X61468000Y-3810000D01*
X58928000Y-11430000D02*
X60452000Y-11430000D01*
X60452000Y-13970000D02*
X58928000Y-13970000D01*
X58420000Y-4572000D02*
X58420000Y-10668000D01*
X60198000Y-4064000D02*
X60198000Y-11176000D01*
X60960000Y-3302000D02*
X60960000Y-13462000D01*
X60452000Y-11430000D02*
X60452000Y-3810000D01*
X60198000Y-4064000D02*
X58928000Y-4064000D01*
X58928000Y-4064000D02*
X58420000Y-4572000D01*
X58420000Y-10668000D02*
X58928000Y-11176000D01*
X58928000Y-11176000D02*
X60198000Y-11176000D01*
X58420000Y-11938000D02*
X58420000Y-13462000D01*
X58420000Y-13462000D02*
X58928000Y-13970000D01*
X60452000Y-13970000D02*
X60960000Y-13462000D01*
X58928000Y-11430000D02*
X58420000Y-11938000D01*
X58928000Y-3810000D02*
X58420000Y-3302000D01*
X58420000Y-3302000D02*
X58420000Y-1778000D01*
X58420000Y-1778000D02*
X58928000Y-1270000D01*
X58928000Y-1270000D02*
X60452000Y-1270000D01*
X60452000Y-1270000D02*
X60960000Y-1778000D01*
X60960000Y-1778000D02*
X60960000Y-3302000D01*
X60452000Y-3810000D02*
X58928000Y-3810000D01*
X56388000Y-11430000D02*
X57912000Y-11430000D01*
X57912000Y-13970000D02*
X56388000Y-13970000D01*
X55880000Y-4572000D02*
X55880000Y-10668000D01*
X57658000Y-4064000D02*
X57658000Y-11176000D01*
X58420000Y-3302000D02*
X58420000Y-13462000D01*
X57912000Y-11430000D02*
X57912000Y-3810000D01*
X57658000Y-4064000D02*
X56388000Y-4064000D01*
X56388000Y-4064000D02*
X55880000Y-4572000D01*
X55880000Y-10668000D02*
X56388000Y-11176000D01*
X56388000Y-11176000D02*
X57658000Y-11176000D01*
X55880000Y-11938000D02*
X55880000Y-13462000D01*
X55880000Y-13462000D02*
X56388000Y-13970000D01*
X57912000Y-13970000D02*
X58420000Y-13462000D01*
X56388000Y-11430000D02*
X55880000Y-11938000D01*
X56388000Y-3810000D02*
X55880000Y-3302000D01*
X55880000Y-3302000D02*
X55880000Y-1778000D01*
X55880000Y-1778000D02*
X56388000Y-1270000D01*
X56388000Y-1270000D02*
X57912000Y-1270000D01*
X57912000Y-1270000D02*
X58420000Y-1778000D01*
X58420000Y-1778000D02*
X58420000Y-3302000D01*
X57912000Y-3810000D02*
X56388000Y-3810000D01*
X53848000Y-11430000D02*
X55372000Y-11430000D01*
X55372000Y-13970000D02*
X53848000Y-13970000D01*
X53340000Y-4572000D02*
X53340000Y-10668000D01*
X55118000Y-4064000D02*
X55118000Y-11176000D01*
X55880000Y-3302000D02*
X55880000Y-13462000D01*
X55372000Y-11430000D02*
X55372000Y-3810000D01*
X55118000Y-4064000D02*
X53848000Y-4064000D01*
X53848000Y-4064000D02*
X53340000Y-4572000D01*
X53340000Y-10668000D02*
X53848000Y-11176000D01*
X53848000Y-11176000D02*
X55118000Y-11176000D01*
X53340000Y-11938000D02*
X53340000Y-13462000D01*
X53340000Y-13462000D02*
X53848000Y-13970000D01*
X55372000Y-13970000D02*
X55880000Y-13462000D01*
X53848000Y-11430000D02*
X53340000Y-11938000D01*
X53848000Y-3810000D02*
X53340000Y-3302000D01*
X53340000Y-3302000D02*
X53340000Y-1778000D01*
X53340000Y-1778000D02*
X53848000Y-1270000D01*
X53848000Y-1270000D02*
X55372000Y-1270000D01*
X55372000Y-1270000D02*
X55880000Y-1778000D01*
X55880000Y-1778000D02*
X55880000Y-3302000D01*
X55372000Y-3810000D02*
X53848000Y-3810000D01*
X51308000Y-11430000D02*
X52832000Y-11430000D01*
X52832000Y-13970000D02*
X51308000Y-13970000D01*
X50800000Y-4572000D02*
X50800000Y-10668000D01*
X52578000Y-4064000D02*
X52578000Y-11176000D01*
X53340000Y-3302000D02*
X53340000Y-13462000D01*
X52832000Y-11430000D02*
X52832000Y-3810000D01*
X52578000Y-4064000D02*
X51308000Y-4064000D01*
X51308000Y-4064000D02*
X50800000Y-4572000D01*
X50800000Y-10668000D02*
X51308000Y-11176000D01*
X51308000Y-11176000D02*
X52578000Y-11176000D01*
X50800000Y-11938000D02*
X50800000Y-13462000D01*
X50800000Y-13462000D02*
X51308000Y-13970000D01*
X52832000Y-13970000D02*
X53340000Y-13462000D01*
X51308000Y-11430000D02*
X50800000Y-11938000D01*
X51308000Y-3810000D02*
X50800000Y-3302000D01*
X50800000Y-3302000D02*
X50800000Y-1778000D01*
X50800000Y-1778000D02*
X51308000Y-1270000D01*
X51308000Y-1270000D02*
X52832000Y-1270000D01*
X52832000Y-1270000D02*
X53340000Y-1778000D01*
X53340000Y-1778000D02*
X53340000Y-3302000D01*
X52832000Y-3810000D02*
X51308000Y-3810000D01*
X48768000Y-11430000D02*
X50292000Y-11430000D01*
X50292000Y-13970000D02*
X48768000Y-13970000D01*
X48260000Y-4572000D02*
X48260000Y-10668000D01*
X50038000Y-4064000D02*
X50038000Y-11176000D01*
X50800000Y-3302000D02*
X50800000Y-13462000D01*
X50292000Y-11430000D02*
X50292000Y-3810000D01*
X50038000Y-4064000D02*
X48768000Y-4064000D01*
X48768000Y-4064000D02*
X48260000Y-4572000D01*
X48260000Y-10668000D02*
X48768000Y-11176000D01*
X48768000Y-11176000D02*
X50038000Y-11176000D01*
X48260000Y-11938000D02*
X48260000Y-13462000D01*
X48260000Y-13462000D02*
X48768000Y-13970000D01*
X50292000Y-13970000D02*
X50800000Y-13462000D01*
X48768000Y-11430000D02*
X48260000Y-11938000D01*
X48768000Y-3810000D02*
X48260000Y-3302000D01*
X48260000Y-3302000D02*
X48260000Y-1778000D01*
X48260000Y-1778000D02*
X48768000Y-1270000D01*
X48768000Y-1270000D02*
X50292000Y-1270000D01*
X50292000Y-1270000D02*
X50800000Y-1778000D01*
X50800000Y-1778000D02*
X50800000Y-3302000D01*
X50292000Y-3810000D02*
X48768000Y-3810000D01*
X46228000Y-11430000D02*
X47752000Y-11430000D01*
X47752000Y-13970000D02*
X46228000Y-13970000D01*
X45720000Y-4572000D02*
X45720000Y-10668000D01*
X47498000Y-4064000D02*
X47498000Y-11176000D01*
X48260000Y-3302000D02*
X48260000Y-13462000D01*
X47752000Y-11430000D02*
X47752000Y-3810000D01*
X47498000Y-4064000D02*
X46228000Y-4064000D01*
X46228000Y-4064000D02*
X45720000Y-4572000D01*
X45720000Y-10668000D02*
X46228000Y-11176000D01*
X46228000Y-11176000D02*
X47498000Y-11176000D01*
X45720000Y-11938000D02*
X45720000Y-13462000D01*
X45720000Y-13462000D02*
X46228000Y-13970000D01*
X47752000Y-13970000D02*
X48260000Y-13462000D01*
X46228000Y-11430000D02*
X45720000Y-11938000D01*
X46228000Y-3810000D02*
X45720000Y-3302000D01*
X45720000Y-3302000D02*
X45720000Y-1778000D01*
X45720000Y-1778000D02*
X46228000Y-1270000D01*
X46228000Y-1270000D02*
X47752000Y-1270000D01*
X47752000Y-1270000D02*
X48260000Y-1778000D01*
X48260000Y-1778000D02*
X48260000Y-3302000D01*
X47752000Y-3810000D02*
X46228000Y-3810000D01*
X43688000Y-11430000D02*
X45212000Y-11430000D01*
X45212000Y-13970000D02*
X43688000Y-13970000D01*
X43180000Y-4572000D02*
X43180000Y-10668000D01*
X44958000Y-4064000D02*
X44958000Y-11176000D01*
X45720000Y-3302000D02*
X45720000Y-13462000D01*
X45212000Y-11430000D02*
X45212000Y-3810000D01*
X44958000Y-4064000D02*
X43688000Y-4064000D01*
X43688000Y-4064000D02*
X43180000Y-4572000D01*
X43180000Y-10668000D02*
X43688000Y-11176000D01*
X43688000Y-11176000D02*
X44958000Y-11176000D01*
X43180000Y-11938000D02*
X43180000Y-13462000D01*
X43180000Y-13462000D02*
X43688000Y-13970000D01*
X45212000Y-13970000D02*
X45720000Y-13462000D01*
X43688000Y-11430000D02*
X43180000Y-11938000D01*
X43688000Y-3810000D02*
X43180000Y-3302000D01*
X43180000Y-3302000D02*
X43180000Y-1778000D01*
X43180000Y-1778000D02*
X43688000Y-1270000D01*
X43688000Y-1270000D02*
X45212000Y-1270000D01*
X45212000Y-1270000D02*
X45720000Y-1778000D01*
X45720000Y-1778000D02*
X45720000Y-3302000D01*
X45212000Y-3810000D02*
X43688000Y-3810000D01*
X41148000Y-11430000D02*
X42672000Y-11430000D01*
X42672000Y-13970000D02*
X41148000Y-13970000D01*
X40640000Y-4572000D02*
X40640000Y-10668000D01*
X42418000Y-4064000D02*
X42418000Y-11176000D01*
X43180000Y-3302000D02*
X43180000Y-13462000D01*
X42672000Y-11430000D02*
X42672000Y-3810000D01*
X42418000Y-4064000D02*
X41148000Y-4064000D01*
X41148000Y-4064000D02*
X40640000Y-4572000D01*
X40640000Y-10668000D02*
X41148000Y-11176000D01*
X41148000Y-11176000D02*
X42418000Y-11176000D01*
X40640000Y-11938000D02*
X40640000Y-13462000D01*
X40640000Y-13462000D02*
X41148000Y-13970000D01*
X42672000Y-13970000D02*
X43180000Y-13462000D01*
X41148000Y-11430000D02*
X40640000Y-11938000D01*
X41148000Y-3810000D02*
X40640000Y-3302000D01*
X40640000Y-3302000D02*
X40640000Y-1778000D01*
X40640000Y-1778000D02*
X41148000Y-1270000D01*
X41148000Y-1270000D02*
X42672000Y-1270000D01*
X42672000Y-1270000D02*
X43180000Y-1778000D01*
X43180000Y-1778000D02*
X43180000Y-3302000D01*
X42672000Y-3810000D02*
X41148000Y-3810000D01*
X38608000Y-11430000D02*
X40132000Y-11430000D01*
X40132000Y-13970000D02*
X38608000Y-13970000D01*
X38100000Y-4572000D02*
X38100000Y-10668000D01*
X39878000Y-4064000D02*
X39878000Y-11176000D01*
X40640000Y-3302000D02*
X40640000Y-13462000D01*
X40132000Y-11430000D02*
X40132000Y-3810000D01*
X39878000Y-4064000D02*
X38608000Y-4064000D01*
X38608000Y-4064000D02*
X38100000Y-4572000D01*
X38100000Y-10668000D02*
X38608000Y-11176000D01*
X38608000Y-11176000D02*
X39878000Y-11176000D01*
X38100000Y-11938000D02*
X38100000Y-13462000D01*
X38100000Y-13462000D02*
X38608000Y-13970000D01*
X40132000Y-13970000D02*
X40640000Y-13462000D01*
X38608000Y-11430000D02*
X38100000Y-11938000D01*
X38608000Y-3810000D02*
X38100000Y-3302000D01*
X38100000Y-3302000D02*
X38100000Y-1778000D01*
X38100000Y-1778000D02*
X38608000Y-1270000D01*
X38608000Y-1270000D02*
X40132000Y-1270000D01*
X40132000Y-1270000D02*
X40640000Y-1778000D01*
X40640000Y-1778000D02*
X40640000Y-3302000D01*
X40132000Y-3810000D02*
X38608000Y-3810000D01*
X36068000Y-11430000D02*
X37592000Y-11430000D01*
X37592000Y-13970000D02*
X36068000Y-13970000D01*
X35560000Y-4572000D02*
X35560000Y-10668000D01*
X37338000Y-4064000D02*
X37338000Y-11176000D01*
X38100000Y-3302000D02*
X38100000Y-13462000D01*
X37592000Y-11430000D02*
X37592000Y-3810000D01*
X37338000Y-4064000D02*
X36068000Y-4064000D01*
X36068000Y-4064000D02*
X35560000Y-4572000D01*
X35560000Y-10668000D02*
X36068000Y-11176000D01*
X36068000Y-11176000D02*
X37338000Y-11176000D01*
X35560000Y-11938000D02*
X35560000Y-13462000D01*
X35560000Y-13462000D02*
X36068000Y-13970000D01*
X37592000Y-13970000D02*
X38100000Y-13462000D01*
X36068000Y-11430000D02*
X35560000Y-11938000D01*
X36068000Y-3810000D02*
X35560000Y-3302000D01*
X35560000Y-3302000D02*
X35560000Y-1778000D01*
X35560000Y-1778000D02*
X36068000Y-1270000D01*
X36068000Y-1270000D02*
X37592000Y-1270000D01*
X37592000Y-1270000D02*
X38100000Y-1778000D01*
X38100000Y-1778000D02*
X38100000Y-3302000D01*
X37592000Y-3810000D02*
X36068000Y-3810000D01*
X33528000Y-11430000D02*
X35052000Y-11430000D01*
X35052000Y-13970000D02*
X33528000Y-13970000D01*
X33020000Y-4572000D02*
X33020000Y-10668000D01*
X34798000Y-4064000D02*
X34798000Y-11176000D01*
X35560000Y-3302000D02*
X35560000Y-13462000D01*
X35052000Y-11430000D02*
X35052000Y-3810000D01*
X34798000Y-4064000D02*
X33528000Y-4064000D01*
X33528000Y-4064000D02*
X33020000Y-4572000D01*
X33020000Y-10668000D02*
X33528000Y-11176000D01*
X33528000Y-11176000D02*
X34798000Y-11176000D01*
X33020000Y-11938000D02*
X33020000Y-13462000D01*
X33020000Y-13462000D02*
X33528000Y-13970000D01*
X35052000Y-13970000D02*
X35560000Y-13462000D01*
X33528000Y-11430000D02*
X33020000Y-11938000D01*
X33528000Y-3810000D02*
X33020000Y-3302000D01*
X33020000Y-3302000D02*
X33020000Y-1778000D01*
X33020000Y-1778000D02*
X33528000Y-1270000D01*
X33528000Y-1270000D02*
X35052000Y-1270000D01*
X35052000Y-1270000D02*
X35560000Y-1778000D01*
X35560000Y-1778000D02*
X35560000Y-3302000D01*
X35052000Y-3810000D02*
X33528000Y-3810000D01*
X30988000Y-11430000D02*
X32512000Y-11430000D01*
X32512000Y-13970000D02*
X30988000Y-13970000D01*
X30480000Y-4572000D02*
X30480000Y-10668000D01*
X32258000Y-4064000D02*
X32258000Y-11176000D01*
X33020000Y-3302000D02*
X33020000Y-13462000D01*
X32512000Y-11430000D02*
X32512000Y-3810000D01*
X32258000Y-4064000D02*
X30988000Y-4064000D01*
X30988000Y-4064000D02*
X30480000Y-4572000D01*
X30480000Y-10668000D02*
X30988000Y-11176000D01*
X30988000Y-11176000D02*
X32258000Y-11176000D01*
X30480000Y-11938000D02*
X30480000Y-13462000D01*
X30480000Y-13462000D02*
X30988000Y-13970000D01*
X32512000Y-13970000D02*
X33020000Y-13462000D01*
X30988000Y-11430000D02*
X30480000Y-11938000D01*
X30988000Y-3810000D02*
X30480000Y-3302000D01*
X30480000Y-3302000D02*
X30480000Y-1778000D01*
X30480000Y-1778000D02*
X30988000Y-1270000D01*
X30988000Y-1270000D02*
X32512000Y-1270000D01*
X32512000Y-1270000D02*
X33020000Y-1778000D01*
X33020000Y-1778000D02*
X33020000Y-3302000D01*
X32512000Y-3810000D02*
X30988000Y-3810000D01*
X28448000Y-11430000D02*
X29972000Y-11430000D01*
X29972000Y-13970000D02*
X28448000Y-13970000D01*
X27940000Y-4572000D02*
X27940000Y-10668000D01*
X29718000Y-4064000D02*
X29718000Y-11176000D01*
X30480000Y-3302000D02*
X30480000Y-13462000D01*
X29972000Y-11430000D02*
X29972000Y-3810000D01*
X29718000Y-4064000D02*
X28448000Y-4064000D01*
X28448000Y-4064000D02*
X27940000Y-4572000D01*
X27940000Y-10668000D02*
X28448000Y-11176000D01*
X28448000Y-11176000D02*
X29718000Y-11176000D01*
X27940000Y-11938000D02*
X27940000Y-13462000D01*
X27940000Y-13462000D02*
X28448000Y-13970000D01*
X29972000Y-13970000D02*
X30480000Y-13462000D01*
X28448000Y-11430000D02*
X27940000Y-11938000D01*
X28448000Y-3810000D02*
X27940000Y-3302000D01*
X27940000Y-3302000D02*
X27940000Y-1778000D01*
X27940000Y-1778000D02*
X28448000Y-1270000D01*
X28448000Y-1270000D02*
X29972000Y-1270000D01*
X29972000Y-1270000D02*
X30480000Y-1778000D01*
X30480000Y-1778000D02*
X30480000Y-3302000D01*
X29972000Y-3810000D02*
X28448000Y-3810000D01*
X25908000Y-11430000D02*
X27432000Y-11430000D01*
X27432000Y-13970000D02*
X25908000Y-13970000D01*
X25400000Y-4572000D02*
X25400000Y-10668000D01*
X27178000Y-4064000D02*
X27178000Y-11176000D01*
X27940000Y-3302000D02*
X27940000Y-13462000D01*
X27432000Y-11430000D02*
X27432000Y-3810000D01*
X27178000Y-4064000D02*
X25908000Y-4064000D01*
X25908000Y-4064000D02*
X25400000Y-4572000D01*
X25400000Y-10668000D02*
X25908000Y-11176000D01*
X25908000Y-11176000D02*
X27178000Y-11176000D01*
X25400000Y-11938000D02*
X25400000Y-13462000D01*
X25400000Y-13462000D02*
X25908000Y-13970000D01*
X27432000Y-13970000D02*
X27940000Y-13462000D01*
X25908000Y-11430000D02*
X25400000Y-11938000D01*
X25908000Y-3810000D02*
X25400000Y-3302000D01*
X25400000Y-3302000D02*
X25400000Y-1778000D01*
X25400000Y-1778000D02*
X25908000Y-1270000D01*
X25908000Y-1270000D02*
X27432000Y-1270000D01*
X27432000Y-1270000D02*
X27940000Y-1778000D01*
X27940000Y-1778000D02*
X27940000Y-3302000D01*
X27432000Y-3810000D02*
X25908000Y-3810000D01*
X23368000Y-11430000D02*
X24892000Y-11430000D01*
X24892000Y-13970000D02*
X23368000Y-13970000D01*
X22860000Y-4572000D02*
X22860000Y-10668000D01*
X24638000Y-4064000D02*
X24638000Y-11176000D01*
X25400000Y-3302000D02*
X25400000Y-13462000D01*
X24892000Y-11430000D02*
X24892000Y-3810000D01*
X24638000Y-4064000D02*
X23368000Y-4064000D01*
X23368000Y-4064000D02*
X22860000Y-4572000D01*
X22860000Y-10668000D02*
X23368000Y-11176000D01*
X23368000Y-11176000D02*
X24638000Y-11176000D01*
X22860000Y-11938000D02*
X22860000Y-13462000D01*
X22860000Y-13462000D02*
X23368000Y-13970000D01*
X24892000Y-13970000D02*
X25400000Y-13462000D01*
X23368000Y-11430000D02*
X22860000Y-11938000D01*
X23368000Y-3810000D02*
X22860000Y-3302000D01*
X22860000Y-3302000D02*
X22860000Y-1778000D01*
X22860000Y-1778000D02*
X23368000Y-1270000D01*
X23368000Y-1270000D02*
X24892000Y-1270000D01*
X24892000Y-1270000D02*
X25400000Y-1778000D01*
X25400000Y-1778000D02*
X25400000Y-3302000D01*
X24892000Y-3810000D02*
X23368000Y-3810000D01*
X20828000Y-11430000D02*
X22352000Y-11430000D01*
X22352000Y-13970000D02*
X20828000Y-13970000D01*
X20320000Y-4572000D02*
X20320000Y-10668000D01*
X22098000Y-4064000D02*
X22098000Y-11176000D01*
X22860000Y-3302000D02*
X22860000Y-13462000D01*
X22352000Y-11430000D02*
X22352000Y-3810000D01*
X22098000Y-4064000D02*
X20828000Y-4064000D01*
X20828000Y-4064000D02*
X20320000Y-4572000D01*
X20320000Y-10668000D02*
X20828000Y-11176000D01*
X20828000Y-11176000D02*
X22098000Y-11176000D01*
X20320000Y-11938000D02*
X20320000Y-13462000D01*
X20320000Y-13462000D02*
X20828000Y-13970000D01*
X22352000Y-13970000D02*
X22860000Y-13462000D01*
X20828000Y-11430000D02*
X20320000Y-11938000D01*
X20828000Y-3810000D02*
X20320000Y-3302000D01*
X20320000Y-3302000D02*
X20320000Y-1778000D01*
X20320000Y-1778000D02*
X20828000Y-1270000D01*
X20828000Y-1270000D02*
X22352000Y-1270000D01*
X22352000Y-1270000D02*
X22860000Y-1778000D01*
X22860000Y-1778000D02*
X22860000Y-3302000D01*
X22352000Y-3810000D02*
X20828000Y-3810000D01*
X18288000Y-11430000D02*
X19812000Y-11430000D01*
X19812000Y-13970000D02*
X18288000Y-13970000D01*
X17780000Y-4572000D02*
X17780000Y-10668000D01*
X19558000Y-4064000D02*
X19558000Y-11176000D01*
X20320000Y-3302000D02*
X20320000Y-13462000D01*
X19812000Y-11430000D02*
X19812000Y-3810000D01*
X19558000Y-4064000D02*
X18288000Y-4064000D01*
X18288000Y-4064000D02*
X17780000Y-4572000D01*
X17780000Y-10668000D02*
X18288000Y-11176000D01*
X18288000Y-11176000D02*
X19558000Y-11176000D01*
X17780000Y-11938000D02*
X17780000Y-13462000D01*
X17780000Y-13462000D02*
X18288000Y-13970000D01*
X19812000Y-13970000D02*
X20320000Y-13462000D01*
X18288000Y-11430000D02*
X17780000Y-11938000D01*
X18288000Y-3810000D02*
X17780000Y-3302000D01*
X17780000Y-3302000D02*
X17780000Y-1778000D01*
X17780000Y-1778000D02*
X18288000Y-1270000D01*
X18288000Y-1270000D02*
X19812000Y-1270000D01*
X19812000Y-1270000D02*
X20320000Y-1778000D01*
X20320000Y-1778000D02*
X20320000Y-3302000D01*
X19812000Y-3810000D02*
X18288000Y-3810000D01*
X15748000Y-11430000D02*
X17272000Y-11430000D01*
X17272000Y-13970000D02*
X15748000Y-13970000D01*
X15240000Y-4572000D02*
X15240000Y-10668000D01*
X17018000Y-4064000D02*
X17018000Y-11176000D01*
X17780000Y-3302000D02*
X17780000Y-13462000D01*
X17272000Y-11430000D02*
X17272000Y-3810000D01*
X17018000Y-4064000D02*
X15748000Y-4064000D01*
X15748000Y-4064000D02*
X15240000Y-4572000D01*
X15240000Y-10668000D02*
X15748000Y-11176000D01*
X15748000Y-11176000D02*
X17018000Y-11176000D01*
X15240000Y-11938000D02*
X15240000Y-13462000D01*
X15240000Y-13462000D02*
X15748000Y-13970000D01*
X17272000Y-13970000D02*
X17780000Y-13462000D01*
X15748000Y-11430000D02*
X15240000Y-11938000D01*
X15748000Y-3810000D02*
X15240000Y-3302000D01*
X15240000Y-3302000D02*
X15240000Y-1778000D01*
X15240000Y-1778000D02*
X15748000Y-1270000D01*
X15748000Y-1270000D02*
X17272000Y-1270000D01*
X17272000Y-1270000D02*
X17780000Y-1778000D01*
X17780000Y-1778000D02*
X17780000Y-3302000D01*
X17272000Y-3810000D02*
X15748000Y-3810000D01*
X13208000Y-11430000D02*
X14732000Y-11430000D01*
X14732000Y-13970000D02*
X13208000Y-13970000D01*
X12700000Y-4572000D02*
X12700000Y-10668000D01*
X14478000Y-4064000D02*
X14478000Y-11176000D01*
X15240000Y-3302000D02*
X15240000Y-13462000D01*
X14732000Y-11430000D02*
X14732000Y-3810000D01*
X14478000Y-4064000D02*
X13208000Y-4064000D01*
X13208000Y-4064000D02*
X12700000Y-4572000D01*
X12700000Y-10668000D02*
X13208000Y-11176000D01*
X13208000Y-11176000D02*
X14478000Y-11176000D01*
X12700000Y-11938000D02*
X12700000Y-13462000D01*
X12700000Y-13462000D02*
X13208000Y-13970000D01*
X14732000Y-13970000D02*
X15240000Y-13462000D01*
X13208000Y-11430000D02*
X12700000Y-11938000D01*
X13208000Y-3810000D02*
X12700000Y-3302000D01*
X12700000Y-3302000D02*
X12700000Y-1778000D01*
X12700000Y-1778000D02*
X13208000Y-1270000D01*
X13208000Y-1270000D02*
X14732000Y-1270000D01*
X14732000Y-1270000D02*
X15240000Y-1778000D01*
X15240000Y-1778000D02*
X15240000Y-3302000D01*
X14732000Y-3810000D02*
X13208000Y-3810000D01*
X10668000Y-11430000D02*
X12192000Y-11430000D01*
X12192000Y-13970000D02*
X10668000Y-13970000D01*
X10160000Y-4572000D02*
X10160000Y-10668000D01*
X11938000Y-4064000D02*
X11938000Y-11176000D01*
X12700000Y-3302000D02*
X12700000Y-13462000D01*
X12192000Y-11430000D02*
X12192000Y-3810000D01*
X11938000Y-4064000D02*
X10668000Y-4064000D01*
X10668000Y-4064000D02*
X10160000Y-4572000D01*
X10160000Y-10668000D02*
X10668000Y-11176000D01*
X10668000Y-11176000D02*
X11938000Y-11176000D01*
X10160000Y-11938000D02*
X10160000Y-13462000D01*
X10160000Y-13462000D02*
X10668000Y-13970000D01*
X12192000Y-13970000D02*
X12700000Y-13462000D01*
X10668000Y-11430000D02*
X10160000Y-11938000D01*
X10668000Y-3810000D02*
X10160000Y-3302000D01*
X10160000Y-3302000D02*
X10160000Y-1778000D01*
X10160000Y-1778000D02*
X10668000Y-1270000D01*
X10668000Y-1270000D02*
X12192000Y-1270000D01*
X12192000Y-1270000D02*
X12700000Y-1778000D01*
X12700000Y-1778000D02*
X12700000Y-3302000D01*
X12192000Y-3810000D02*
X10668000Y-3810000D01*
X8128000Y-11430000D02*
X9652000Y-11430000D01*
X9652000Y-13970000D02*
X8128000Y-13970000D01*
X7620000Y-4572000D02*
X7620000Y-10668000D01*
X9398000Y-4064000D02*
X9398000Y-11176000D01*
X10160000Y-3302000D02*
X10160000Y-13462000D01*
X9652000Y-11430000D02*
X9652000Y-3810000D01*
X9398000Y-4064000D02*
X8128000Y-4064000D01*
X8128000Y-4064000D02*
X7620000Y-4572000D01*
X7620000Y-10668000D02*
X8128000Y-11176000D01*
X8128000Y-11176000D02*
X9398000Y-11176000D01*
X7620000Y-11938000D02*
X7620000Y-13462000D01*
X7620000Y-13462000D02*
X8128000Y-13970000D01*
X9652000Y-13970000D02*
X10160000Y-13462000D01*
X8128000Y-11430000D02*
X7620000Y-11938000D01*
X8128000Y-3810000D02*
X7620000Y-3302000D01*
X7620000Y-3302000D02*
X7620000Y-1778000D01*
X7620000Y-1778000D02*
X8128000Y-1270000D01*
X8128000Y-1270000D02*
X9652000Y-1270000D01*
X9652000Y-1270000D02*
X10160000Y-1778000D01*
X10160000Y-1778000D02*
X10160000Y-3302000D01*
X9652000Y-3810000D02*
X8128000Y-3810000D01*
M02*
