G04 #@! TF.FileFunction,Soldermask,Top*
%FSLAX46Y46*%
G04 Gerber Fmt 4.6, Leading zero omitted, Abs format (unit mm)*
G04 Created by KiCad (PCBNEW (after 2015-mar-04 BZR unknown)-product) date Mon 01 Jun 2015 23:22:56 BST*
%MOMM*%
G01*
G04 APERTURE LIST*
%ADD10C,0.150000*%
%ADD11R,2.032000X2.540000*%
%ADD12R,2.540000X2.286000*%
%ADD13R,3.048000X2.286000*%
%ADD14R,2.032000X2.032000*%
G04 APERTURE END LIST*
D10*
D11*
X85090000Y-91440000D03*
X39370000Y-91440000D03*
X59690000Y-40640000D03*
D12*
X85090000Y-15494000D03*
X87630000Y-15494000D03*
X90170000Y-15494000D03*
X92710000Y-15494000D03*
X95250000Y-15494000D03*
X82550000Y-15494000D03*
X80010000Y-15494000D03*
X77470000Y-15494000D03*
X74930000Y-15494000D03*
D13*
X82550000Y-17526000D03*
D11*
X85090000Y-17780000D03*
D13*
X87630000Y-17526000D03*
D12*
X80010000Y-17526000D03*
X77470000Y-17526000D03*
X74930000Y-17526000D03*
X90170000Y-17526000D03*
X92710000Y-17526000D03*
X95250000Y-17526000D03*
D11*
X13970000Y-27940000D03*
X13970000Y-25400000D03*
X13970000Y-22860000D03*
X39370000Y-27940000D03*
X39370000Y-25400000D03*
X39370000Y-22860000D03*
X59690000Y-27940000D03*
X59690000Y-25400000D03*
X59690000Y-22860000D03*
X85090000Y-27940000D03*
X85090000Y-25400000D03*
X85090000Y-22860000D03*
X13970000Y-88900000D03*
X13970000Y-86360000D03*
X13970000Y-83820000D03*
X13970000Y-81280000D03*
X13970000Y-78740000D03*
X13970000Y-76200000D03*
X13970000Y-73660000D03*
X13970000Y-71120000D03*
X13970000Y-68580000D03*
X13970000Y-66040000D03*
X13970000Y-63500000D03*
X13970000Y-60960000D03*
X13970000Y-58420000D03*
X13970000Y-55880000D03*
X13970000Y-53340000D03*
X13970000Y-50800000D03*
X13970000Y-48260000D03*
X13970000Y-45720000D03*
X13970000Y-43180000D03*
X13970000Y-40640000D03*
X13970000Y-38100000D03*
X13970000Y-35560000D03*
X13970000Y-33020000D03*
X13970000Y-30480000D03*
X13970000Y-20320000D03*
X13970000Y-20320000D03*
X13970000Y-30480000D03*
X13970000Y-33020000D03*
X13970000Y-35560000D03*
X13970000Y-38100000D03*
X13970000Y-40640000D03*
X13970000Y-43180000D03*
X13970000Y-45720000D03*
X13970000Y-48260000D03*
X13970000Y-50800000D03*
X13970000Y-53340000D03*
X13970000Y-55880000D03*
X13970000Y-58420000D03*
X13970000Y-60960000D03*
X13970000Y-63500000D03*
X13970000Y-66040000D03*
X13970000Y-68580000D03*
X13970000Y-71120000D03*
X13970000Y-73660000D03*
X13970000Y-76200000D03*
X13970000Y-78740000D03*
X13970000Y-81280000D03*
X13970000Y-83820000D03*
X13970000Y-86360000D03*
X13970000Y-91440000D03*
X59690000Y-88900000D03*
X59690000Y-86360000D03*
X59690000Y-83820000D03*
X59690000Y-81280000D03*
X59690000Y-78740000D03*
X59690000Y-76200000D03*
X59690000Y-73660000D03*
X59690000Y-71120000D03*
X59690000Y-68580000D03*
X59690000Y-66040000D03*
X59690000Y-63500000D03*
X59690000Y-60960000D03*
X59690000Y-58420000D03*
X59690000Y-55880000D03*
X59690000Y-53340000D03*
X59690000Y-50800000D03*
X59690000Y-48260000D03*
X59690000Y-45720000D03*
X59690000Y-43180000D03*
X59690000Y-40640000D03*
X59690000Y-38100000D03*
X59690000Y-35560000D03*
X59690000Y-33020000D03*
X59690000Y-30480000D03*
X59690000Y-20320000D03*
X59690000Y-20320000D03*
X59690000Y-30480000D03*
X59690000Y-33020000D03*
X59690000Y-35560000D03*
X59690000Y-38100000D03*
X59690000Y-40640000D03*
X59690000Y-43180000D03*
X59690000Y-45720000D03*
X59690000Y-48260000D03*
X59690000Y-50800000D03*
X59690000Y-53340000D03*
X59690000Y-55880000D03*
X59690000Y-58420000D03*
X59690000Y-60960000D03*
X59690000Y-63500000D03*
X59690000Y-66040000D03*
X59690000Y-68580000D03*
X59690000Y-71120000D03*
X59690000Y-73660000D03*
X59690000Y-76200000D03*
X59690000Y-78740000D03*
X59690000Y-81280000D03*
X59690000Y-83820000D03*
X59690000Y-86360000D03*
X59690000Y-91440000D03*
X39370000Y-88900000D03*
X39370000Y-86360000D03*
X39370000Y-83820000D03*
X39370000Y-81280000D03*
X39370000Y-78740000D03*
X39370000Y-76200000D03*
X39370000Y-73660000D03*
X39370000Y-71120000D03*
X39370000Y-68580000D03*
X39370000Y-66040000D03*
X39370000Y-63500000D03*
X39370000Y-60960000D03*
X39370000Y-58420000D03*
X39370000Y-55880000D03*
X39370000Y-53340000D03*
X39370000Y-50800000D03*
X39370000Y-48260000D03*
X39370000Y-45720000D03*
X39370000Y-43180000D03*
X39370000Y-40640000D03*
X39370000Y-38100000D03*
X39370000Y-35560000D03*
X39370000Y-33020000D03*
X39370000Y-30480000D03*
X39370000Y-20320000D03*
X85090000Y-20320000D03*
X85090000Y-30480000D03*
X85090000Y-33020000D03*
X85090000Y-35560000D03*
X85090000Y-38100000D03*
X85090000Y-40640000D03*
X85090000Y-43180000D03*
X85090000Y-45720000D03*
X85090000Y-48260000D03*
X85090000Y-50800000D03*
X85090000Y-53340000D03*
X85090000Y-55880000D03*
X85090000Y-58420000D03*
X85090000Y-60960000D03*
X85090000Y-63500000D03*
X85090000Y-66040000D03*
X85090000Y-68580000D03*
X85090000Y-71120000D03*
X85090000Y-73660000D03*
X85090000Y-76200000D03*
X85090000Y-78740000D03*
X85090000Y-81280000D03*
X85090000Y-83820000D03*
X85090000Y-86360000D03*
X85090000Y-88900000D03*
D12*
X62230000Y-15494000D03*
X64770000Y-15494000D03*
X67310000Y-15494000D03*
X69850000Y-15494000D03*
X72390000Y-15494000D03*
X59690000Y-15494000D03*
X57150000Y-15494000D03*
X54610000Y-15494000D03*
X52070000Y-15494000D03*
D13*
X62230000Y-17526000D03*
D11*
X59690000Y-17780000D03*
D13*
X57150000Y-17526000D03*
D12*
X64770000Y-17526000D03*
X54610000Y-17526000D03*
X52070000Y-17526000D03*
X67310000Y-17526000D03*
X69850000Y-17526000D03*
X72390000Y-17526000D03*
X16510000Y-15494000D03*
X19050000Y-15494000D03*
X21590000Y-15494000D03*
X24130000Y-15494000D03*
X26670000Y-15494000D03*
X13970000Y-15494000D03*
X11430000Y-15494000D03*
X8890000Y-15494000D03*
X6350000Y-15494000D03*
D13*
X16510000Y-17526000D03*
D11*
X13970000Y-17780000D03*
D13*
X11430000Y-17526000D03*
D12*
X19050000Y-17526000D03*
X8890000Y-17526000D03*
X6350000Y-17526000D03*
X21590000Y-17526000D03*
X24130000Y-17526000D03*
X26670000Y-17526000D03*
X39370000Y-15494000D03*
X41910000Y-15494000D03*
X44450000Y-15494000D03*
X46990000Y-15494000D03*
X49530000Y-15494000D03*
X36830000Y-15494000D03*
X34290000Y-15494000D03*
X31750000Y-15494000D03*
X29210000Y-15494000D03*
D13*
X36830000Y-17526000D03*
D11*
X39370000Y-17780000D03*
D13*
X41910000Y-17526000D03*
D12*
X34290000Y-17526000D03*
X31750000Y-17526000D03*
X29210000Y-17526000D03*
X44450000Y-17526000D03*
X46990000Y-17526000D03*
X49530000Y-17526000D03*
D14*
X90170000Y-2540000D03*
X90170000Y-12700000D03*
X87630000Y-2540000D03*
X87630000Y-12700000D03*
X85090000Y-2540000D03*
X85090000Y-12700000D03*
X82550000Y-2540000D03*
X82550000Y-12700000D03*
X80010000Y-2540000D03*
X80010000Y-12700000D03*
X77470000Y-2540000D03*
X77470000Y-12700000D03*
X74930000Y-2540000D03*
X74930000Y-12700000D03*
X72390000Y-2540000D03*
X72390000Y-12700000D03*
X69850000Y-2540000D03*
X69850000Y-12700000D03*
X67310000Y-2540000D03*
X67310000Y-12700000D03*
X64770000Y-2540000D03*
X64770000Y-12700000D03*
X62230000Y-2540000D03*
X62230000Y-12700000D03*
X59690000Y-2540000D03*
X59690000Y-12700000D03*
X57150000Y-2540000D03*
X57150000Y-12700000D03*
X54610000Y-2540000D03*
X54610000Y-12700000D03*
X52070000Y-2540000D03*
X52070000Y-12700000D03*
X49530000Y-2540000D03*
X49530000Y-12700000D03*
X46990000Y-2540000D03*
X46990000Y-12700000D03*
X44450000Y-2540000D03*
X44450000Y-12700000D03*
X41910000Y-2540000D03*
X41910000Y-12700000D03*
X39370000Y-2540000D03*
X39370000Y-12700000D03*
X36830000Y-2540000D03*
X36830000Y-12700000D03*
X34290000Y-2540000D03*
X34290000Y-12700000D03*
X31750000Y-2540000D03*
X31750000Y-12700000D03*
X29210000Y-2540000D03*
X29210000Y-12700000D03*
X26670000Y-2540000D03*
X26670000Y-12700000D03*
X24130000Y-2540000D03*
X24130000Y-12700000D03*
X21590000Y-2540000D03*
X21590000Y-12700000D03*
X19050000Y-2540000D03*
X19050000Y-12700000D03*
X16510000Y-2540000D03*
X16510000Y-12700000D03*
X13970000Y-2540000D03*
X13970000Y-12700000D03*
X11430000Y-2540000D03*
X11430000Y-12700000D03*
X8890000Y-2540000D03*
X8890000Y-12700000D03*
M02*
