G04 #@! TF.FileFunction,Soldermask,Bot*
%FSLAX46Y46*%
G04 Gerber Fmt 4.6, Leading zero omitted, Abs format (unit mm)*
G04 Created by KiCad (PCBNEW (after 2015-mar-04 BZR unknown)-product) date Mon 01 Jun 2015 23:22:56 BST*
%MOMM*%
G01*
G04 APERTURE LIST*
%ADD10C,0.150000*%
%ADD11R,2.032000X2.540000*%
%ADD12R,2.032000X2.032000*%
%ADD13R,3.048000X2.032000*%
%ADD14R,2.540000X2.286000*%
%ADD15R,3.048000X2.286000*%
G04 APERTURE END LIST*
D10*
D11*
X87630000Y-91440000D03*
X85090000Y-91440000D03*
D12*
X82550000Y-91440000D03*
D13*
X80010000Y-91440000D03*
X77470000Y-91440000D03*
D12*
X74930000Y-91440000D03*
X95250000Y-91440000D03*
D13*
X92710000Y-91440000D03*
D12*
X90170000Y-91440000D03*
D11*
X41910000Y-91440000D03*
X39370000Y-91440000D03*
D12*
X36830000Y-91440000D03*
D13*
X34290000Y-91440000D03*
X31750000Y-91440000D03*
D12*
X29210000Y-91440000D03*
X49530000Y-91440000D03*
D13*
X46990000Y-91440000D03*
D12*
X44450000Y-91440000D03*
D11*
X62230000Y-40640000D03*
X59690000Y-40640000D03*
D12*
X72390000Y-40640000D03*
D13*
X69850000Y-40640000D03*
X67310000Y-40640000D03*
D12*
X64770000Y-40640000D03*
X57150000Y-40640000D03*
D13*
X54610000Y-40640000D03*
D12*
X52070000Y-40640000D03*
D14*
X85090000Y-15494000D03*
X87630000Y-15494000D03*
X90170000Y-15494000D03*
X92710000Y-15494000D03*
X95250000Y-15494000D03*
X82550000Y-15494000D03*
X80010000Y-15494000D03*
X77470000Y-15494000D03*
X74930000Y-15494000D03*
D15*
X82550000Y-17526000D03*
D11*
X85090000Y-17780000D03*
D15*
X87630000Y-17526000D03*
D14*
X80010000Y-17526000D03*
X77470000Y-17526000D03*
X74930000Y-17526000D03*
X90170000Y-17526000D03*
X92710000Y-17526000D03*
X95250000Y-17526000D03*
X8890000Y-96266000D03*
X8890000Y-94234000D03*
D11*
X16510000Y-27940000D03*
X13970000Y-27940000D03*
D12*
X26670000Y-27940000D03*
D13*
X24130000Y-27940000D03*
X21590000Y-27940000D03*
D12*
X19050000Y-27940000D03*
X11430000Y-27940000D03*
D13*
X8890000Y-27940000D03*
D12*
X6350000Y-27940000D03*
D11*
X16510000Y-25400000D03*
X13970000Y-25400000D03*
D12*
X26670000Y-25400000D03*
D13*
X24130000Y-25400000D03*
X21590000Y-25400000D03*
D12*
X19050000Y-25400000D03*
X11430000Y-25400000D03*
D13*
X8890000Y-25400000D03*
D12*
X6350000Y-25400000D03*
D11*
X16510000Y-22860000D03*
X13970000Y-22860000D03*
D12*
X26670000Y-22860000D03*
D13*
X24130000Y-22860000D03*
X21590000Y-22860000D03*
D12*
X19050000Y-22860000D03*
X11430000Y-22860000D03*
D13*
X8890000Y-22860000D03*
D12*
X6350000Y-22860000D03*
D11*
X41910000Y-27940000D03*
X39370000Y-27940000D03*
D12*
X36830000Y-27940000D03*
D13*
X34290000Y-27940000D03*
X31750000Y-27940000D03*
D12*
X29210000Y-27940000D03*
X49530000Y-27940000D03*
D13*
X46990000Y-27940000D03*
D12*
X44450000Y-27940000D03*
D11*
X41910000Y-25400000D03*
X39370000Y-25400000D03*
D12*
X36830000Y-25400000D03*
D13*
X34290000Y-25400000D03*
X31750000Y-25400000D03*
D12*
X29210000Y-25400000D03*
X49530000Y-25400000D03*
D13*
X46990000Y-25400000D03*
D12*
X44450000Y-25400000D03*
D11*
X41910000Y-22860000D03*
X39370000Y-22860000D03*
D12*
X36830000Y-22860000D03*
D13*
X34290000Y-22860000D03*
X31750000Y-22860000D03*
D12*
X29210000Y-22860000D03*
X49530000Y-22860000D03*
D13*
X46990000Y-22860000D03*
D12*
X44450000Y-22860000D03*
D11*
X62230000Y-27940000D03*
X59690000Y-27940000D03*
D12*
X72390000Y-27940000D03*
D13*
X69850000Y-27940000D03*
X67310000Y-27940000D03*
D12*
X64770000Y-27940000D03*
X57150000Y-27940000D03*
D13*
X54610000Y-27940000D03*
D12*
X52070000Y-27940000D03*
D11*
X62230000Y-25400000D03*
X59690000Y-25400000D03*
D12*
X72390000Y-25400000D03*
D13*
X69850000Y-25400000D03*
X67310000Y-25400000D03*
D12*
X64770000Y-25400000D03*
X57150000Y-25400000D03*
D13*
X54610000Y-25400000D03*
D12*
X52070000Y-25400000D03*
D11*
X62230000Y-22860000D03*
X59690000Y-22860000D03*
D12*
X72390000Y-22860000D03*
D13*
X69850000Y-22860000D03*
X67310000Y-22860000D03*
D12*
X64770000Y-22860000D03*
X57150000Y-22860000D03*
D13*
X54610000Y-22860000D03*
D12*
X52070000Y-22860000D03*
D11*
X87630000Y-27940000D03*
X85090000Y-27940000D03*
D12*
X82550000Y-27940000D03*
D13*
X80010000Y-27940000D03*
X77470000Y-27940000D03*
D12*
X74930000Y-27940000D03*
X95250000Y-27940000D03*
D13*
X92710000Y-27940000D03*
D12*
X90170000Y-27940000D03*
D11*
X87630000Y-25400000D03*
X85090000Y-25400000D03*
D12*
X82550000Y-25400000D03*
D13*
X80010000Y-25400000D03*
X77470000Y-25400000D03*
D12*
X74930000Y-25400000D03*
X95250000Y-25400000D03*
D13*
X92710000Y-25400000D03*
D12*
X90170000Y-25400000D03*
D11*
X87630000Y-22860000D03*
X85090000Y-22860000D03*
D12*
X82550000Y-22860000D03*
D13*
X80010000Y-22860000D03*
X77470000Y-22860000D03*
D12*
X74930000Y-22860000D03*
X95250000Y-22860000D03*
D13*
X92710000Y-22860000D03*
D12*
X90170000Y-22860000D03*
D14*
X11430000Y-96266000D03*
X11430000Y-94234000D03*
X90170000Y-96266000D03*
X90170000Y-94234000D03*
X87630000Y-96266000D03*
X87630000Y-94234000D03*
X85090000Y-96266000D03*
X85090000Y-94234000D03*
X82550000Y-96266000D03*
X82550000Y-94234000D03*
X80010000Y-96266000D03*
X80010000Y-94234000D03*
X77470000Y-96266000D03*
X77470000Y-94234000D03*
X74930000Y-96266000D03*
X74930000Y-94234000D03*
X72390000Y-96266000D03*
X72390000Y-94234000D03*
X69850000Y-96266000D03*
X69850000Y-94234000D03*
X67310000Y-96266000D03*
X67310000Y-94234000D03*
X64770000Y-96266000D03*
X64770000Y-94234000D03*
X62230000Y-96266000D03*
X62230000Y-94234000D03*
X59690000Y-96266000D03*
X59690000Y-94234000D03*
X57150000Y-96266000D03*
X57150000Y-94234000D03*
X54610000Y-96266000D03*
X54610000Y-94234000D03*
X52070000Y-96266000D03*
X52070000Y-94234000D03*
X49530000Y-96266000D03*
X49530000Y-94234000D03*
X46990000Y-96266000D03*
X46990000Y-94234000D03*
X44450000Y-96266000D03*
X44450000Y-94234000D03*
X41910000Y-96266000D03*
X41910000Y-94234000D03*
X39370000Y-96266000D03*
X39370000Y-94234000D03*
X36830000Y-96266000D03*
X36830000Y-94234000D03*
X34290000Y-96266000D03*
X34290000Y-94234000D03*
X31750000Y-96266000D03*
X31750000Y-94234000D03*
X29210000Y-96266000D03*
X29210000Y-94234000D03*
X26670000Y-96266000D03*
X26670000Y-94234000D03*
X24130000Y-96266000D03*
X24130000Y-94234000D03*
X21590000Y-96266000D03*
X21590000Y-94234000D03*
X19050000Y-96266000D03*
X19050000Y-94234000D03*
X16510000Y-96266000D03*
X16510000Y-94234000D03*
D11*
X16510000Y-88900000D03*
X13970000Y-88900000D03*
D12*
X26670000Y-88900000D03*
D13*
X24130000Y-88900000D03*
X21590000Y-88900000D03*
D12*
X19050000Y-88900000D03*
X11430000Y-88900000D03*
D13*
X8890000Y-88900000D03*
D12*
X6350000Y-88900000D03*
D11*
X16510000Y-86360000D03*
X13970000Y-86360000D03*
D12*
X26670000Y-86360000D03*
D13*
X24130000Y-86360000D03*
X21590000Y-86360000D03*
D12*
X19050000Y-86360000D03*
X11430000Y-86360000D03*
D13*
X8890000Y-86360000D03*
D12*
X6350000Y-86360000D03*
D11*
X16510000Y-83820000D03*
X13970000Y-83820000D03*
D12*
X26670000Y-83820000D03*
D13*
X24130000Y-83820000D03*
X21590000Y-83820000D03*
D12*
X19050000Y-83820000D03*
X11430000Y-83820000D03*
D13*
X8890000Y-83820000D03*
D12*
X6350000Y-83820000D03*
D11*
X16510000Y-81280000D03*
X13970000Y-81280000D03*
D12*
X26670000Y-81280000D03*
D13*
X24130000Y-81280000D03*
X21590000Y-81280000D03*
D12*
X19050000Y-81280000D03*
X11430000Y-81280000D03*
D13*
X8890000Y-81280000D03*
D12*
X6350000Y-81280000D03*
D11*
X16510000Y-78740000D03*
X13970000Y-78740000D03*
D12*
X26670000Y-78740000D03*
D13*
X24130000Y-78740000D03*
X21590000Y-78740000D03*
D12*
X19050000Y-78740000D03*
X11430000Y-78740000D03*
D13*
X8890000Y-78740000D03*
D12*
X6350000Y-78740000D03*
D11*
X16510000Y-76200000D03*
X13970000Y-76200000D03*
D12*
X26670000Y-76200000D03*
D13*
X24130000Y-76200000D03*
X21590000Y-76200000D03*
D12*
X19050000Y-76200000D03*
X11430000Y-76200000D03*
D13*
X8890000Y-76200000D03*
D12*
X6350000Y-76200000D03*
D11*
X16510000Y-73660000D03*
X13970000Y-73660000D03*
D12*
X26670000Y-73660000D03*
D13*
X24130000Y-73660000D03*
X21590000Y-73660000D03*
D12*
X19050000Y-73660000D03*
X11430000Y-73660000D03*
D13*
X8890000Y-73660000D03*
D12*
X6350000Y-73660000D03*
D11*
X16510000Y-71120000D03*
X13970000Y-71120000D03*
D12*
X26670000Y-71120000D03*
D13*
X24130000Y-71120000D03*
X21590000Y-71120000D03*
D12*
X19050000Y-71120000D03*
X11430000Y-71120000D03*
D13*
X8890000Y-71120000D03*
D12*
X6350000Y-71120000D03*
D11*
X16510000Y-68580000D03*
X13970000Y-68580000D03*
D12*
X26670000Y-68580000D03*
D13*
X24130000Y-68580000D03*
X21590000Y-68580000D03*
D12*
X19050000Y-68580000D03*
X11430000Y-68580000D03*
D13*
X8890000Y-68580000D03*
D12*
X6350000Y-68580000D03*
D11*
X16510000Y-66040000D03*
X13970000Y-66040000D03*
D12*
X26670000Y-66040000D03*
D13*
X24130000Y-66040000D03*
X21590000Y-66040000D03*
D12*
X19050000Y-66040000D03*
X11430000Y-66040000D03*
D13*
X8890000Y-66040000D03*
D12*
X6350000Y-66040000D03*
D11*
X16510000Y-63500000D03*
X13970000Y-63500000D03*
D12*
X26670000Y-63500000D03*
D13*
X24130000Y-63500000D03*
X21590000Y-63500000D03*
D12*
X19050000Y-63500000D03*
X11430000Y-63500000D03*
D13*
X8890000Y-63500000D03*
D12*
X6350000Y-63500000D03*
D11*
X16510000Y-60960000D03*
X13970000Y-60960000D03*
D12*
X26670000Y-60960000D03*
D13*
X24130000Y-60960000D03*
X21590000Y-60960000D03*
D12*
X19050000Y-60960000D03*
X11430000Y-60960000D03*
D13*
X8890000Y-60960000D03*
D12*
X6350000Y-60960000D03*
D11*
X16510000Y-58420000D03*
X13970000Y-58420000D03*
D12*
X26670000Y-58420000D03*
D13*
X24130000Y-58420000D03*
X21590000Y-58420000D03*
D12*
X19050000Y-58420000D03*
X11430000Y-58420000D03*
D13*
X8890000Y-58420000D03*
D12*
X6350000Y-58420000D03*
D11*
X16510000Y-55880000D03*
X13970000Y-55880000D03*
D12*
X26670000Y-55880000D03*
D13*
X24130000Y-55880000D03*
X21590000Y-55880000D03*
D12*
X19050000Y-55880000D03*
X11430000Y-55880000D03*
D13*
X8890000Y-55880000D03*
D12*
X6350000Y-55880000D03*
D11*
X16510000Y-53340000D03*
X13970000Y-53340000D03*
D12*
X26670000Y-53340000D03*
D13*
X24130000Y-53340000D03*
X21590000Y-53340000D03*
D12*
X19050000Y-53340000D03*
X11430000Y-53340000D03*
D13*
X8890000Y-53340000D03*
D12*
X6350000Y-53340000D03*
D11*
X16510000Y-50800000D03*
X13970000Y-50800000D03*
D12*
X26670000Y-50800000D03*
D13*
X24130000Y-50800000D03*
X21590000Y-50800000D03*
D12*
X19050000Y-50800000D03*
X11430000Y-50800000D03*
D13*
X8890000Y-50800000D03*
D12*
X6350000Y-50800000D03*
D11*
X16510000Y-48260000D03*
X13970000Y-48260000D03*
D12*
X26670000Y-48260000D03*
D13*
X24130000Y-48260000D03*
X21590000Y-48260000D03*
D12*
X19050000Y-48260000D03*
X11430000Y-48260000D03*
D13*
X8890000Y-48260000D03*
D12*
X6350000Y-48260000D03*
D11*
X16510000Y-45720000D03*
X13970000Y-45720000D03*
D12*
X26670000Y-45720000D03*
D13*
X24130000Y-45720000D03*
X21590000Y-45720000D03*
D12*
X19050000Y-45720000D03*
X11430000Y-45720000D03*
D13*
X8890000Y-45720000D03*
D12*
X6350000Y-45720000D03*
D11*
X16510000Y-43180000D03*
X13970000Y-43180000D03*
D12*
X26670000Y-43180000D03*
D13*
X24130000Y-43180000D03*
X21590000Y-43180000D03*
D12*
X19050000Y-43180000D03*
X11430000Y-43180000D03*
D13*
X8890000Y-43180000D03*
D12*
X6350000Y-43180000D03*
D11*
X16510000Y-40640000D03*
X13970000Y-40640000D03*
D12*
X26670000Y-40640000D03*
D13*
X24130000Y-40640000D03*
X21590000Y-40640000D03*
D12*
X19050000Y-40640000D03*
X11430000Y-40640000D03*
D13*
X8890000Y-40640000D03*
D12*
X6350000Y-40640000D03*
D11*
X16510000Y-38100000D03*
X13970000Y-38100000D03*
D12*
X26670000Y-38100000D03*
D13*
X24130000Y-38100000D03*
X21590000Y-38100000D03*
D12*
X19050000Y-38100000D03*
X11430000Y-38100000D03*
D13*
X8890000Y-38100000D03*
D12*
X6350000Y-38100000D03*
D11*
X16510000Y-35560000D03*
X13970000Y-35560000D03*
D12*
X26670000Y-35560000D03*
D13*
X24130000Y-35560000D03*
X21590000Y-35560000D03*
D12*
X19050000Y-35560000D03*
X11430000Y-35560000D03*
D13*
X8890000Y-35560000D03*
D12*
X6350000Y-35560000D03*
D11*
X16510000Y-33020000D03*
X13970000Y-33020000D03*
D12*
X26670000Y-33020000D03*
D13*
X24130000Y-33020000D03*
X21590000Y-33020000D03*
D12*
X19050000Y-33020000D03*
X11430000Y-33020000D03*
D13*
X8890000Y-33020000D03*
D12*
X6350000Y-33020000D03*
D11*
X16510000Y-30480000D03*
X13970000Y-30480000D03*
D12*
X26670000Y-30480000D03*
D13*
X24130000Y-30480000D03*
X21590000Y-30480000D03*
D12*
X19050000Y-30480000D03*
X11430000Y-30480000D03*
D13*
X8890000Y-30480000D03*
D12*
X6350000Y-30480000D03*
D11*
X16510000Y-20320000D03*
X13970000Y-20320000D03*
D12*
X26670000Y-20320000D03*
D13*
X24130000Y-20320000D03*
X21590000Y-20320000D03*
D12*
X19050000Y-20320000D03*
X11430000Y-20320000D03*
D13*
X8890000Y-20320000D03*
D12*
X6350000Y-20320000D03*
D11*
X16510000Y-20320000D03*
X13970000Y-20320000D03*
D12*
X26670000Y-20320000D03*
D13*
X24130000Y-20320000D03*
X21590000Y-20320000D03*
D12*
X19050000Y-20320000D03*
X11430000Y-20320000D03*
D13*
X8890000Y-20320000D03*
D12*
X6350000Y-20320000D03*
D11*
X16510000Y-30480000D03*
X13970000Y-30480000D03*
D12*
X26670000Y-30480000D03*
D13*
X24130000Y-30480000D03*
X21590000Y-30480000D03*
D12*
X19050000Y-30480000D03*
X11430000Y-30480000D03*
D13*
X8890000Y-30480000D03*
D12*
X6350000Y-30480000D03*
D11*
X16510000Y-33020000D03*
X13970000Y-33020000D03*
D12*
X26670000Y-33020000D03*
D13*
X24130000Y-33020000D03*
X21590000Y-33020000D03*
D12*
X19050000Y-33020000D03*
X11430000Y-33020000D03*
D13*
X8890000Y-33020000D03*
D12*
X6350000Y-33020000D03*
D11*
X16510000Y-35560000D03*
X13970000Y-35560000D03*
D12*
X26670000Y-35560000D03*
D13*
X24130000Y-35560000D03*
X21590000Y-35560000D03*
D12*
X19050000Y-35560000D03*
X11430000Y-35560000D03*
D13*
X8890000Y-35560000D03*
D12*
X6350000Y-35560000D03*
D11*
X16510000Y-38100000D03*
X13970000Y-38100000D03*
D12*
X26670000Y-38100000D03*
D13*
X24130000Y-38100000D03*
X21590000Y-38100000D03*
D12*
X19050000Y-38100000D03*
X11430000Y-38100000D03*
D13*
X8890000Y-38100000D03*
D12*
X6350000Y-38100000D03*
D11*
X16510000Y-40640000D03*
X13970000Y-40640000D03*
D12*
X26670000Y-40640000D03*
D13*
X24130000Y-40640000D03*
X21590000Y-40640000D03*
D12*
X19050000Y-40640000D03*
X11430000Y-40640000D03*
D13*
X8890000Y-40640000D03*
D12*
X6350000Y-40640000D03*
D11*
X16510000Y-43180000D03*
X13970000Y-43180000D03*
D12*
X26670000Y-43180000D03*
D13*
X24130000Y-43180000D03*
X21590000Y-43180000D03*
D12*
X19050000Y-43180000D03*
X11430000Y-43180000D03*
D13*
X8890000Y-43180000D03*
D12*
X6350000Y-43180000D03*
D11*
X16510000Y-45720000D03*
X13970000Y-45720000D03*
D12*
X26670000Y-45720000D03*
D13*
X24130000Y-45720000D03*
X21590000Y-45720000D03*
D12*
X19050000Y-45720000D03*
X11430000Y-45720000D03*
D13*
X8890000Y-45720000D03*
D12*
X6350000Y-45720000D03*
D11*
X16510000Y-48260000D03*
X13970000Y-48260000D03*
D12*
X26670000Y-48260000D03*
D13*
X24130000Y-48260000D03*
X21590000Y-48260000D03*
D12*
X19050000Y-48260000D03*
X11430000Y-48260000D03*
D13*
X8890000Y-48260000D03*
D12*
X6350000Y-48260000D03*
D11*
X16510000Y-50800000D03*
X13970000Y-50800000D03*
D12*
X26670000Y-50800000D03*
D13*
X24130000Y-50800000D03*
X21590000Y-50800000D03*
D12*
X19050000Y-50800000D03*
X11430000Y-50800000D03*
D13*
X8890000Y-50800000D03*
D12*
X6350000Y-50800000D03*
D11*
X16510000Y-53340000D03*
X13970000Y-53340000D03*
D12*
X26670000Y-53340000D03*
D13*
X24130000Y-53340000D03*
X21590000Y-53340000D03*
D12*
X19050000Y-53340000D03*
X11430000Y-53340000D03*
D13*
X8890000Y-53340000D03*
D12*
X6350000Y-53340000D03*
D11*
X16510000Y-55880000D03*
X13970000Y-55880000D03*
D12*
X26670000Y-55880000D03*
D13*
X24130000Y-55880000D03*
X21590000Y-55880000D03*
D12*
X19050000Y-55880000D03*
X11430000Y-55880000D03*
D13*
X8890000Y-55880000D03*
D12*
X6350000Y-55880000D03*
D11*
X16510000Y-58420000D03*
X13970000Y-58420000D03*
D12*
X26670000Y-58420000D03*
D13*
X24130000Y-58420000D03*
X21590000Y-58420000D03*
D12*
X19050000Y-58420000D03*
X11430000Y-58420000D03*
D13*
X8890000Y-58420000D03*
D12*
X6350000Y-58420000D03*
D11*
X16510000Y-60960000D03*
X13970000Y-60960000D03*
D12*
X26670000Y-60960000D03*
D13*
X24130000Y-60960000D03*
X21590000Y-60960000D03*
D12*
X19050000Y-60960000D03*
X11430000Y-60960000D03*
D13*
X8890000Y-60960000D03*
D12*
X6350000Y-60960000D03*
D11*
X16510000Y-63500000D03*
X13970000Y-63500000D03*
D12*
X26670000Y-63500000D03*
D13*
X24130000Y-63500000D03*
X21590000Y-63500000D03*
D12*
X19050000Y-63500000D03*
X11430000Y-63500000D03*
D13*
X8890000Y-63500000D03*
D12*
X6350000Y-63500000D03*
D11*
X16510000Y-66040000D03*
X13970000Y-66040000D03*
D12*
X26670000Y-66040000D03*
D13*
X24130000Y-66040000D03*
X21590000Y-66040000D03*
D12*
X19050000Y-66040000D03*
X11430000Y-66040000D03*
D13*
X8890000Y-66040000D03*
D12*
X6350000Y-66040000D03*
D11*
X16510000Y-68580000D03*
X13970000Y-68580000D03*
D12*
X26670000Y-68580000D03*
D13*
X24130000Y-68580000D03*
X21590000Y-68580000D03*
D12*
X19050000Y-68580000D03*
X11430000Y-68580000D03*
D13*
X8890000Y-68580000D03*
D12*
X6350000Y-68580000D03*
D11*
X16510000Y-71120000D03*
X13970000Y-71120000D03*
D12*
X26670000Y-71120000D03*
D13*
X24130000Y-71120000D03*
X21590000Y-71120000D03*
D12*
X19050000Y-71120000D03*
X11430000Y-71120000D03*
D13*
X8890000Y-71120000D03*
D12*
X6350000Y-71120000D03*
D11*
X16510000Y-73660000D03*
X13970000Y-73660000D03*
D12*
X26670000Y-73660000D03*
D13*
X24130000Y-73660000D03*
X21590000Y-73660000D03*
D12*
X19050000Y-73660000D03*
X11430000Y-73660000D03*
D13*
X8890000Y-73660000D03*
D12*
X6350000Y-73660000D03*
D11*
X16510000Y-76200000D03*
X13970000Y-76200000D03*
D12*
X26670000Y-76200000D03*
D13*
X24130000Y-76200000D03*
X21590000Y-76200000D03*
D12*
X19050000Y-76200000D03*
X11430000Y-76200000D03*
D13*
X8890000Y-76200000D03*
D12*
X6350000Y-76200000D03*
D11*
X16510000Y-78740000D03*
X13970000Y-78740000D03*
D12*
X26670000Y-78740000D03*
D13*
X24130000Y-78740000D03*
X21590000Y-78740000D03*
D12*
X19050000Y-78740000D03*
X11430000Y-78740000D03*
D13*
X8890000Y-78740000D03*
D12*
X6350000Y-78740000D03*
D11*
X16510000Y-81280000D03*
X13970000Y-81280000D03*
D12*
X26670000Y-81280000D03*
D13*
X24130000Y-81280000D03*
X21590000Y-81280000D03*
D12*
X19050000Y-81280000D03*
X11430000Y-81280000D03*
D13*
X8890000Y-81280000D03*
D12*
X6350000Y-81280000D03*
D11*
X16510000Y-83820000D03*
X13970000Y-83820000D03*
D12*
X26670000Y-83820000D03*
D13*
X24130000Y-83820000D03*
X21590000Y-83820000D03*
D12*
X19050000Y-83820000D03*
X11430000Y-83820000D03*
D13*
X8890000Y-83820000D03*
D12*
X6350000Y-83820000D03*
D11*
X16510000Y-86360000D03*
X13970000Y-86360000D03*
D12*
X26670000Y-86360000D03*
D13*
X24130000Y-86360000D03*
X21590000Y-86360000D03*
D12*
X19050000Y-86360000D03*
X11430000Y-86360000D03*
D13*
X8890000Y-86360000D03*
D12*
X6350000Y-86360000D03*
D11*
X16510000Y-91440000D03*
X13970000Y-91440000D03*
D12*
X26670000Y-91440000D03*
D13*
X24130000Y-91440000D03*
X21590000Y-91440000D03*
D12*
X19050000Y-91440000D03*
X11430000Y-91440000D03*
D13*
X8890000Y-91440000D03*
D12*
X6350000Y-91440000D03*
D11*
X62230000Y-88900000D03*
X59690000Y-88900000D03*
D12*
X72390000Y-88900000D03*
D13*
X69850000Y-88900000D03*
X67310000Y-88900000D03*
D12*
X64770000Y-88900000D03*
X57150000Y-88900000D03*
D13*
X54610000Y-88900000D03*
D12*
X52070000Y-88900000D03*
D11*
X62230000Y-86360000D03*
X59690000Y-86360000D03*
D12*
X72390000Y-86360000D03*
D13*
X69850000Y-86360000D03*
X67310000Y-86360000D03*
D12*
X64770000Y-86360000D03*
X57150000Y-86360000D03*
D13*
X54610000Y-86360000D03*
D12*
X52070000Y-86360000D03*
D11*
X62230000Y-83820000D03*
X59690000Y-83820000D03*
D12*
X72390000Y-83820000D03*
D13*
X69850000Y-83820000D03*
X67310000Y-83820000D03*
D12*
X64770000Y-83820000D03*
X57150000Y-83820000D03*
D13*
X54610000Y-83820000D03*
D12*
X52070000Y-83820000D03*
D11*
X62230000Y-81280000D03*
X59690000Y-81280000D03*
D12*
X72390000Y-81280000D03*
D13*
X69850000Y-81280000D03*
X67310000Y-81280000D03*
D12*
X64770000Y-81280000D03*
X57150000Y-81280000D03*
D13*
X54610000Y-81280000D03*
D12*
X52070000Y-81280000D03*
D11*
X62230000Y-78740000D03*
X59690000Y-78740000D03*
D12*
X72390000Y-78740000D03*
D13*
X69850000Y-78740000D03*
X67310000Y-78740000D03*
D12*
X64770000Y-78740000D03*
X57150000Y-78740000D03*
D13*
X54610000Y-78740000D03*
D12*
X52070000Y-78740000D03*
D11*
X62230000Y-76200000D03*
X59690000Y-76200000D03*
D12*
X72390000Y-76200000D03*
D13*
X69850000Y-76200000D03*
X67310000Y-76200000D03*
D12*
X64770000Y-76200000D03*
X57150000Y-76200000D03*
D13*
X54610000Y-76200000D03*
D12*
X52070000Y-76200000D03*
D11*
X62230000Y-73660000D03*
X59690000Y-73660000D03*
D12*
X72390000Y-73660000D03*
D13*
X69850000Y-73660000D03*
X67310000Y-73660000D03*
D12*
X64770000Y-73660000D03*
X57150000Y-73660000D03*
D13*
X54610000Y-73660000D03*
D12*
X52070000Y-73660000D03*
D11*
X62230000Y-71120000D03*
X59690000Y-71120000D03*
D12*
X72390000Y-71120000D03*
D13*
X69850000Y-71120000D03*
X67310000Y-71120000D03*
D12*
X64770000Y-71120000D03*
X57150000Y-71120000D03*
D13*
X54610000Y-71120000D03*
D12*
X52070000Y-71120000D03*
D11*
X62230000Y-68580000D03*
X59690000Y-68580000D03*
D12*
X72390000Y-68580000D03*
D13*
X69850000Y-68580000D03*
X67310000Y-68580000D03*
D12*
X64770000Y-68580000D03*
X57150000Y-68580000D03*
D13*
X54610000Y-68580000D03*
D12*
X52070000Y-68580000D03*
D11*
X62230000Y-66040000D03*
X59690000Y-66040000D03*
D12*
X72390000Y-66040000D03*
D13*
X69850000Y-66040000D03*
X67310000Y-66040000D03*
D12*
X64770000Y-66040000D03*
X57150000Y-66040000D03*
D13*
X54610000Y-66040000D03*
D12*
X52070000Y-66040000D03*
D11*
X62230000Y-63500000D03*
X59690000Y-63500000D03*
D12*
X72390000Y-63500000D03*
D13*
X69850000Y-63500000D03*
X67310000Y-63500000D03*
D12*
X64770000Y-63500000D03*
X57150000Y-63500000D03*
D13*
X54610000Y-63500000D03*
D12*
X52070000Y-63500000D03*
D11*
X62230000Y-60960000D03*
X59690000Y-60960000D03*
D12*
X72390000Y-60960000D03*
D13*
X69850000Y-60960000D03*
X67310000Y-60960000D03*
D12*
X64770000Y-60960000D03*
X57150000Y-60960000D03*
D13*
X54610000Y-60960000D03*
D12*
X52070000Y-60960000D03*
D11*
X62230000Y-58420000D03*
X59690000Y-58420000D03*
D12*
X72390000Y-58420000D03*
D13*
X69850000Y-58420000D03*
X67310000Y-58420000D03*
D12*
X64770000Y-58420000D03*
X57150000Y-58420000D03*
D13*
X54610000Y-58420000D03*
D12*
X52070000Y-58420000D03*
D11*
X62230000Y-55880000D03*
X59690000Y-55880000D03*
D12*
X72390000Y-55880000D03*
D13*
X69850000Y-55880000D03*
X67310000Y-55880000D03*
D12*
X64770000Y-55880000D03*
X57150000Y-55880000D03*
D13*
X54610000Y-55880000D03*
D12*
X52070000Y-55880000D03*
D11*
X62230000Y-53340000D03*
X59690000Y-53340000D03*
D12*
X72390000Y-53340000D03*
D13*
X69850000Y-53340000D03*
X67310000Y-53340000D03*
D12*
X64770000Y-53340000D03*
X57150000Y-53340000D03*
D13*
X54610000Y-53340000D03*
D12*
X52070000Y-53340000D03*
D11*
X62230000Y-50800000D03*
X59690000Y-50800000D03*
D12*
X72390000Y-50800000D03*
D13*
X69850000Y-50800000D03*
X67310000Y-50800000D03*
D12*
X64770000Y-50800000D03*
X57150000Y-50800000D03*
D13*
X54610000Y-50800000D03*
D12*
X52070000Y-50800000D03*
D11*
X62230000Y-48260000D03*
X59690000Y-48260000D03*
D12*
X72390000Y-48260000D03*
D13*
X69850000Y-48260000D03*
X67310000Y-48260000D03*
D12*
X64770000Y-48260000D03*
X57150000Y-48260000D03*
D13*
X54610000Y-48260000D03*
D12*
X52070000Y-48260000D03*
D11*
X62230000Y-45720000D03*
X59690000Y-45720000D03*
D12*
X72390000Y-45720000D03*
D13*
X69850000Y-45720000D03*
X67310000Y-45720000D03*
D12*
X64770000Y-45720000D03*
X57150000Y-45720000D03*
D13*
X54610000Y-45720000D03*
D12*
X52070000Y-45720000D03*
D11*
X62230000Y-43180000D03*
X59690000Y-43180000D03*
D12*
X72390000Y-43180000D03*
D13*
X69850000Y-43180000D03*
X67310000Y-43180000D03*
D12*
X64770000Y-43180000D03*
X57150000Y-43180000D03*
D13*
X54610000Y-43180000D03*
D12*
X52070000Y-43180000D03*
D11*
X62230000Y-40640000D03*
X59690000Y-40640000D03*
D12*
X72390000Y-40640000D03*
D13*
X69850000Y-40640000D03*
X67310000Y-40640000D03*
D12*
X64770000Y-40640000D03*
X57150000Y-40640000D03*
D13*
X54610000Y-40640000D03*
D12*
X52070000Y-40640000D03*
D11*
X62230000Y-38100000D03*
X59690000Y-38100000D03*
D12*
X72390000Y-38100000D03*
D13*
X69850000Y-38100000D03*
X67310000Y-38100000D03*
D12*
X64770000Y-38100000D03*
X57150000Y-38100000D03*
D13*
X54610000Y-38100000D03*
D12*
X52070000Y-38100000D03*
D11*
X62230000Y-35560000D03*
X59690000Y-35560000D03*
D12*
X72390000Y-35560000D03*
D13*
X69850000Y-35560000D03*
X67310000Y-35560000D03*
D12*
X64770000Y-35560000D03*
X57150000Y-35560000D03*
D13*
X54610000Y-35560000D03*
D12*
X52070000Y-35560000D03*
D11*
X62230000Y-33020000D03*
X59690000Y-33020000D03*
D12*
X72390000Y-33020000D03*
D13*
X69850000Y-33020000D03*
X67310000Y-33020000D03*
D12*
X64770000Y-33020000D03*
X57150000Y-33020000D03*
D13*
X54610000Y-33020000D03*
D12*
X52070000Y-33020000D03*
D11*
X62230000Y-30480000D03*
X59690000Y-30480000D03*
D12*
X72390000Y-30480000D03*
D13*
X69850000Y-30480000D03*
X67310000Y-30480000D03*
D12*
X64770000Y-30480000D03*
X57150000Y-30480000D03*
D13*
X54610000Y-30480000D03*
D12*
X52070000Y-30480000D03*
D11*
X62230000Y-20320000D03*
X59690000Y-20320000D03*
D12*
X72390000Y-20320000D03*
D13*
X69850000Y-20320000D03*
X67310000Y-20320000D03*
D12*
X64770000Y-20320000D03*
X57150000Y-20320000D03*
D13*
X54610000Y-20320000D03*
D12*
X52070000Y-20320000D03*
D11*
X62230000Y-20320000D03*
X59690000Y-20320000D03*
D12*
X72390000Y-20320000D03*
D13*
X69850000Y-20320000D03*
X67310000Y-20320000D03*
D12*
X64770000Y-20320000D03*
X57150000Y-20320000D03*
D13*
X54610000Y-20320000D03*
D12*
X52070000Y-20320000D03*
D11*
X62230000Y-30480000D03*
X59690000Y-30480000D03*
D12*
X72390000Y-30480000D03*
D13*
X69850000Y-30480000D03*
X67310000Y-30480000D03*
D12*
X64770000Y-30480000D03*
X57150000Y-30480000D03*
D13*
X54610000Y-30480000D03*
D12*
X52070000Y-30480000D03*
D11*
X62230000Y-33020000D03*
X59690000Y-33020000D03*
D12*
X72390000Y-33020000D03*
D13*
X69850000Y-33020000D03*
X67310000Y-33020000D03*
D12*
X64770000Y-33020000D03*
X57150000Y-33020000D03*
D13*
X54610000Y-33020000D03*
D12*
X52070000Y-33020000D03*
D11*
X62230000Y-35560000D03*
X59690000Y-35560000D03*
D12*
X72390000Y-35560000D03*
D13*
X69850000Y-35560000D03*
X67310000Y-35560000D03*
D12*
X64770000Y-35560000D03*
X57150000Y-35560000D03*
D13*
X54610000Y-35560000D03*
D12*
X52070000Y-35560000D03*
D11*
X62230000Y-38100000D03*
X59690000Y-38100000D03*
D12*
X72390000Y-38100000D03*
D13*
X69850000Y-38100000D03*
X67310000Y-38100000D03*
D12*
X64770000Y-38100000D03*
X57150000Y-38100000D03*
D13*
X54610000Y-38100000D03*
D12*
X52070000Y-38100000D03*
D11*
X62230000Y-40640000D03*
X59690000Y-40640000D03*
D12*
X72390000Y-40640000D03*
D13*
X69850000Y-40640000D03*
X67310000Y-40640000D03*
D12*
X64770000Y-40640000D03*
X57150000Y-40640000D03*
D13*
X54610000Y-40640000D03*
D12*
X52070000Y-40640000D03*
D11*
X62230000Y-43180000D03*
X59690000Y-43180000D03*
D12*
X72390000Y-43180000D03*
D13*
X69850000Y-43180000D03*
X67310000Y-43180000D03*
D12*
X64770000Y-43180000D03*
X57150000Y-43180000D03*
D13*
X54610000Y-43180000D03*
D12*
X52070000Y-43180000D03*
D11*
X62230000Y-45720000D03*
X59690000Y-45720000D03*
D12*
X72390000Y-45720000D03*
D13*
X69850000Y-45720000D03*
X67310000Y-45720000D03*
D12*
X64770000Y-45720000D03*
X57150000Y-45720000D03*
D13*
X54610000Y-45720000D03*
D12*
X52070000Y-45720000D03*
D11*
X62230000Y-48260000D03*
X59690000Y-48260000D03*
D12*
X72390000Y-48260000D03*
D13*
X69850000Y-48260000D03*
X67310000Y-48260000D03*
D12*
X64770000Y-48260000D03*
X57150000Y-48260000D03*
D13*
X54610000Y-48260000D03*
D12*
X52070000Y-48260000D03*
D11*
X62230000Y-50800000D03*
X59690000Y-50800000D03*
D12*
X72390000Y-50800000D03*
D13*
X69850000Y-50800000D03*
X67310000Y-50800000D03*
D12*
X64770000Y-50800000D03*
X57150000Y-50800000D03*
D13*
X54610000Y-50800000D03*
D12*
X52070000Y-50800000D03*
D11*
X62230000Y-53340000D03*
X59690000Y-53340000D03*
D12*
X72390000Y-53340000D03*
D13*
X69850000Y-53340000D03*
X67310000Y-53340000D03*
D12*
X64770000Y-53340000D03*
X57150000Y-53340000D03*
D13*
X54610000Y-53340000D03*
D12*
X52070000Y-53340000D03*
D11*
X62230000Y-55880000D03*
X59690000Y-55880000D03*
D12*
X72390000Y-55880000D03*
D13*
X69850000Y-55880000D03*
X67310000Y-55880000D03*
D12*
X64770000Y-55880000D03*
X57150000Y-55880000D03*
D13*
X54610000Y-55880000D03*
D12*
X52070000Y-55880000D03*
D11*
X62230000Y-58420000D03*
X59690000Y-58420000D03*
D12*
X72390000Y-58420000D03*
D13*
X69850000Y-58420000D03*
X67310000Y-58420000D03*
D12*
X64770000Y-58420000D03*
X57150000Y-58420000D03*
D13*
X54610000Y-58420000D03*
D12*
X52070000Y-58420000D03*
D11*
X62230000Y-60960000D03*
X59690000Y-60960000D03*
D12*
X72390000Y-60960000D03*
D13*
X69850000Y-60960000D03*
X67310000Y-60960000D03*
D12*
X64770000Y-60960000D03*
X57150000Y-60960000D03*
D13*
X54610000Y-60960000D03*
D12*
X52070000Y-60960000D03*
D11*
X62230000Y-63500000D03*
X59690000Y-63500000D03*
D12*
X72390000Y-63500000D03*
D13*
X69850000Y-63500000D03*
X67310000Y-63500000D03*
D12*
X64770000Y-63500000D03*
X57150000Y-63500000D03*
D13*
X54610000Y-63500000D03*
D12*
X52070000Y-63500000D03*
D11*
X62230000Y-66040000D03*
X59690000Y-66040000D03*
D12*
X72390000Y-66040000D03*
D13*
X69850000Y-66040000D03*
X67310000Y-66040000D03*
D12*
X64770000Y-66040000D03*
X57150000Y-66040000D03*
D13*
X54610000Y-66040000D03*
D12*
X52070000Y-66040000D03*
D11*
X62230000Y-68580000D03*
X59690000Y-68580000D03*
D12*
X72390000Y-68580000D03*
D13*
X69850000Y-68580000D03*
X67310000Y-68580000D03*
D12*
X64770000Y-68580000D03*
X57150000Y-68580000D03*
D13*
X54610000Y-68580000D03*
D12*
X52070000Y-68580000D03*
D11*
X62230000Y-71120000D03*
X59690000Y-71120000D03*
D12*
X72390000Y-71120000D03*
D13*
X69850000Y-71120000D03*
X67310000Y-71120000D03*
D12*
X64770000Y-71120000D03*
X57150000Y-71120000D03*
D13*
X54610000Y-71120000D03*
D12*
X52070000Y-71120000D03*
D11*
X62230000Y-73660000D03*
X59690000Y-73660000D03*
D12*
X72390000Y-73660000D03*
D13*
X69850000Y-73660000D03*
X67310000Y-73660000D03*
D12*
X64770000Y-73660000D03*
X57150000Y-73660000D03*
D13*
X54610000Y-73660000D03*
D12*
X52070000Y-73660000D03*
D11*
X62230000Y-76200000D03*
X59690000Y-76200000D03*
D12*
X72390000Y-76200000D03*
D13*
X69850000Y-76200000D03*
X67310000Y-76200000D03*
D12*
X64770000Y-76200000D03*
X57150000Y-76200000D03*
D13*
X54610000Y-76200000D03*
D12*
X52070000Y-76200000D03*
D11*
X62230000Y-78740000D03*
X59690000Y-78740000D03*
D12*
X72390000Y-78740000D03*
D13*
X69850000Y-78740000D03*
X67310000Y-78740000D03*
D12*
X64770000Y-78740000D03*
X57150000Y-78740000D03*
D13*
X54610000Y-78740000D03*
D12*
X52070000Y-78740000D03*
D11*
X62230000Y-81280000D03*
X59690000Y-81280000D03*
D12*
X72390000Y-81280000D03*
D13*
X69850000Y-81280000D03*
X67310000Y-81280000D03*
D12*
X64770000Y-81280000D03*
X57150000Y-81280000D03*
D13*
X54610000Y-81280000D03*
D12*
X52070000Y-81280000D03*
D11*
X62230000Y-83820000D03*
X59690000Y-83820000D03*
D12*
X72390000Y-83820000D03*
D13*
X69850000Y-83820000D03*
X67310000Y-83820000D03*
D12*
X64770000Y-83820000D03*
X57150000Y-83820000D03*
D13*
X54610000Y-83820000D03*
D12*
X52070000Y-83820000D03*
D11*
X62230000Y-86360000D03*
X59690000Y-86360000D03*
D12*
X72390000Y-86360000D03*
D13*
X69850000Y-86360000D03*
X67310000Y-86360000D03*
D12*
X64770000Y-86360000D03*
X57150000Y-86360000D03*
D13*
X54610000Y-86360000D03*
D12*
X52070000Y-86360000D03*
D11*
X62230000Y-91440000D03*
X59690000Y-91440000D03*
D12*
X72390000Y-91440000D03*
D13*
X69850000Y-91440000D03*
X67310000Y-91440000D03*
D12*
X64770000Y-91440000D03*
X57150000Y-91440000D03*
D13*
X54610000Y-91440000D03*
D12*
X52070000Y-91440000D03*
D11*
X41910000Y-88900000D03*
X39370000Y-88900000D03*
D12*
X36830000Y-88900000D03*
D13*
X34290000Y-88900000D03*
X31750000Y-88900000D03*
D12*
X29210000Y-88900000D03*
X49530000Y-88900000D03*
D13*
X46990000Y-88900000D03*
D12*
X44450000Y-88900000D03*
D11*
X41910000Y-86360000D03*
X39370000Y-86360000D03*
D12*
X36830000Y-86360000D03*
D13*
X34290000Y-86360000D03*
X31750000Y-86360000D03*
D12*
X29210000Y-86360000D03*
X49530000Y-86360000D03*
D13*
X46990000Y-86360000D03*
D12*
X44450000Y-86360000D03*
D11*
X41910000Y-83820000D03*
X39370000Y-83820000D03*
D12*
X36830000Y-83820000D03*
D13*
X34290000Y-83820000D03*
X31750000Y-83820000D03*
D12*
X29210000Y-83820000D03*
X49530000Y-83820000D03*
D13*
X46990000Y-83820000D03*
D12*
X44450000Y-83820000D03*
D11*
X41910000Y-81280000D03*
X39370000Y-81280000D03*
D12*
X36830000Y-81280000D03*
D13*
X34290000Y-81280000D03*
X31750000Y-81280000D03*
D12*
X29210000Y-81280000D03*
X49530000Y-81280000D03*
D13*
X46990000Y-81280000D03*
D12*
X44450000Y-81280000D03*
D11*
X41910000Y-78740000D03*
X39370000Y-78740000D03*
D12*
X36830000Y-78740000D03*
D13*
X34290000Y-78740000D03*
X31750000Y-78740000D03*
D12*
X29210000Y-78740000D03*
X49530000Y-78740000D03*
D13*
X46990000Y-78740000D03*
D12*
X44450000Y-78740000D03*
D11*
X41910000Y-76200000D03*
X39370000Y-76200000D03*
D12*
X36830000Y-76200000D03*
D13*
X34290000Y-76200000D03*
X31750000Y-76200000D03*
D12*
X29210000Y-76200000D03*
X49530000Y-76200000D03*
D13*
X46990000Y-76200000D03*
D12*
X44450000Y-76200000D03*
D11*
X41910000Y-73660000D03*
X39370000Y-73660000D03*
D12*
X36830000Y-73660000D03*
D13*
X34290000Y-73660000D03*
X31750000Y-73660000D03*
D12*
X29210000Y-73660000D03*
X49530000Y-73660000D03*
D13*
X46990000Y-73660000D03*
D12*
X44450000Y-73660000D03*
D11*
X41910000Y-71120000D03*
X39370000Y-71120000D03*
D12*
X36830000Y-71120000D03*
D13*
X34290000Y-71120000D03*
X31750000Y-71120000D03*
D12*
X29210000Y-71120000D03*
X49530000Y-71120000D03*
D13*
X46990000Y-71120000D03*
D12*
X44450000Y-71120000D03*
D11*
X41910000Y-68580000D03*
X39370000Y-68580000D03*
D12*
X36830000Y-68580000D03*
D13*
X34290000Y-68580000D03*
X31750000Y-68580000D03*
D12*
X29210000Y-68580000D03*
X49530000Y-68580000D03*
D13*
X46990000Y-68580000D03*
D12*
X44450000Y-68580000D03*
D11*
X41910000Y-66040000D03*
X39370000Y-66040000D03*
D12*
X36830000Y-66040000D03*
D13*
X34290000Y-66040000D03*
X31750000Y-66040000D03*
D12*
X29210000Y-66040000D03*
X49530000Y-66040000D03*
D13*
X46990000Y-66040000D03*
D12*
X44450000Y-66040000D03*
D11*
X41910000Y-63500000D03*
X39370000Y-63500000D03*
D12*
X36830000Y-63500000D03*
D13*
X34290000Y-63500000D03*
X31750000Y-63500000D03*
D12*
X29210000Y-63500000D03*
X49530000Y-63500000D03*
D13*
X46990000Y-63500000D03*
D12*
X44450000Y-63500000D03*
D11*
X41910000Y-60960000D03*
X39370000Y-60960000D03*
D12*
X36830000Y-60960000D03*
D13*
X34290000Y-60960000D03*
X31750000Y-60960000D03*
D12*
X29210000Y-60960000D03*
X49530000Y-60960000D03*
D13*
X46990000Y-60960000D03*
D12*
X44450000Y-60960000D03*
D11*
X41910000Y-58420000D03*
X39370000Y-58420000D03*
D12*
X36830000Y-58420000D03*
D13*
X34290000Y-58420000D03*
X31750000Y-58420000D03*
D12*
X29210000Y-58420000D03*
X49530000Y-58420000D03*
D13*
X46990000Y-58420000D03*
D12*
X44450000Y-58420000D03*
D11*
X41910000Y-55880000D03*
X39370000Y-55880000D03*
D12*
X36830000Y-55880000D03*
D13*
X34290000Y-55880000D03*
X31750000Y-55880000D03*
D12*
X29210000Y-55880000D03*
X49530000Y-55880000D03*
D13*
X46990000Y-55880000D03*
D12*
X44450000Y-55880000D03*
D11*
X41910000Y-53340000D03*
X39370000Y-53340000D03*
D12*
X36830000Y-53340000D03*
D13*
X34290000Y-53340000D03*
X31750000Y-53340000D03*
D12*
X29210000Y-53340000D03*
X49530000Y-53340000D03*
D13*
X46990000Y-53340000D03*
D12*
X44450000Y-53340000D03*
D11*
X41910000Y-50800000D03*
X39370000Y-50800000D03*
D12*
X36830000Y-50800000D03*
D13*
X34290000Y-50800000D03*
X31750000Y-50800000D03*
D12*
X29210000Y-50800000D03*
X49530000Y-50800000D03*
D13*
X46990000Y-50800000D03*
D12*
X44450000Y-50800000D03*
D11*
X41910000Y-48260000D03*
X39370000Y-48260000D03*
D12*
X36830000Y-48260000D03*
D13*
X34290000Y-48260000D03*
X31750000Y-48260000D03*
D12*
X29210000Y-48260000D03*
X49530000Y-48260000D03*
D13*
X46990000Y-48260000D03*
D12*
X44450000Y-48260000D03*
D11*
X41910000Y-45720000D03*
X39370000Y-45720000D03*
D12*
X36830000Y-45720000D03*
D13*
X34290000Y-45720000D03*
X31750000Y-45720000D03*
D12*
X29210000Y-45720000D03*
X49530000Y-45720000D03*
D13*
X46990000Y-45720000D03*
D12*
X44450000Y-45720000D03*
D11*
X41910000Y-43180000D03*
X39370000Y-43180000D03*
D12*
X36830000Y-43180000D03*
D13*
X34290000Y-43180000D03*
X31750000Y-43180000D03*
D12*
X29210000Y-43180000D03*
X49530000Y-43180000D03*
D13*
X46990000Y-43180000D03*
D12*
X44450000Y-43180000D03*
D11*
X41910000Y-40640000D03*
X39370000Y-40640000D03*
D12*
X36830000Y-40640000D03*
D13*
X34290000Y-40640000D03*
X31750000Y-40640000D03*
D12*
X29210000Y-40640000D03*
X49530000Y-40640000D03*
D13*
X46990000Y-40640000D03*
D12*
X44450000Y-40640000D03*
D11*
X41910000Y-38100000D03*
X39370000Y-38100000D03*
D12*
X36830000Y-38100000D03*
D13*
X34290000Y-38100000D03*
X31750000Y-38100000D03*
D12*
X29210000Y-38100000D03*
X49530000Y-38100000D03*
D13*
X46990000Y-38100000D03*
D12*
X44450000Y-38100000D03*
D11*
X41910000Y-35560000D03*
X39370000Y-35560000D03*
D12*
X36830000Y-35560000D03*
D13*
X34290000Y-35560000D03*
X31750000Y-35560000D03*
D12*
X29210000Y-35560000D03*
X49530000Y-35560000D03*
D13*
X46990000Y-35560000D03*
D12*
X44450000Y-35560000D03*
D11*
X41910000Y-33020000D03*
X39370000Y-33020000D03*
D12*
X36830000Y-33020000D03*
D13*
X34290000Y-33020000D03*
X31750000Y-33020000D03*
D12*
X29210000Y-33020000D03*
X49530000Y-33020000D03*
D13*
X46990000Y-33020000D03*
D12*
X44450000Y-33020000D03*
D11*
X41910000Y-30480000D03*
X39370000Y-30480000D03*
D12*
X36830000Y-30480000D03*
D13*
X34290000Y-30480000D03*
X31750000Y-30480000D03*
D12*
X29210000Y-30480000D03*
X49530000Y-30480000D03*
D13*
X46990000Y-30480000D03*
D12*
X44450000Y-30480000D03*
D11*
X41910000Y-20320000D03*
X39370000Y-20320000D03*
D12*
X36830000Y-20320000D03*
D13*
X34290000Y-20320000D03*
X31750000Y-20320000D03*
D12*
X29210000Y-20320000D03*
X49530000Y-20320000D03*
D13*
X46990000Y-20320000D03*
D12*
X44450000Y-20320000D03*
D11*
X87630000Y-20320000D03*
X85090000Y-20320000D03*
D12*
X82550000Y-20320000D03*
D13*
X80010000Y-20320000D03*
X77470000Y-20320000D03*
D12*
X74930000Y-20320000D03*
X95250000Y-20320000D03*
D13*
X92710000Y-20320000D03*
D12*
X90170000Y-20320000D03*
D11*
X87630000Y-30480000D03*
X85090000Y-30480000D03*
D12*
X82550000Y-30480000D03*
D13*
X80010000Y-30480000D03*
X77470000Y-30480000D03*
D12*
X74930000Y-30480000D03*
X95250000Y-30480000D03*
D13*
X92710000Y-30480000D03*
D12*
X90170000Y-30480000D03*
D11*
X87630000Y-33020000D03*
X85090000Y-33020000D03*
D12*
X82550000Y-33020000D03*
D13*
X80010000Y-33020000D03*
X77470000Y-33020000D03*
D12*
X74930000Y-33020000D03*
X95250000Y-33020000D03*
D13*
X92710000Y-33020000D03*
D12*
X90170000Y-33020000D03*
D11*
X87630000Y-35560000D03*
X85090000Y-35560000D03*
D12*
X82550000Y-35560000D03*
D13*
X80010000Y-35560000D03*
X77470000Y-35560000D03*
D12*
X74930000Y-35560000D03*
X95250000Y-35560000D03*
D13*
X92710000Y-35560000D03*
D12*
X90170000Y-35560000D03*
D11*
X87630000Y-38100000D03*
X85090000Y-38100000D03*
D12*
X82550000Y-38100000D03*
D13*
X80010000Y-38100000D03*
X77470000Y-38100000D03*
D12*
X74930000Y-38100000D03*
X95250000Y-38100000D03*
D13*
X92710000Y-38100000D03*
D12*
X90170000Y-38100000D03*
D11*
X87630000Y-40640000D03*
X85090000Y-40640000D03*
D12*
X82550000Y-40640000D03*
D13*
X80010000Y-40640000D03*
X77470000Y-40640000D03*
D12*
X74930000Y-40640000D03*
X95250000Y-40640000D03*
D13*
X92710000Y-40640000D03*
D12*
X90170000Y-40640000D03*
D11*
X87630000Y-43180000D03*
X85090000Y-43180000D03*
D12*
X82550000Y-43180000D03*
D13*
X80010000Y-43180000D03*
X77470000Y-43180000D03*
D12*
X74930000Y-43180000D03*
X95250000Y-43180000D03*
D13*
X92710000Y-43180000D03*
D12*
X90170000Y-43180000D03*
D11*
X87630000Y-45720000D03*
X85090000Y-45720000D03*
D12*
X82550000Y-45720000D03*
D13*
X80010000Y-45720000D03*
X77470000Y-45720000D03*
D12*
X74930000Y-45720000D03*
X95250000Y-45720000D03*
D13*
X92710000Y-45720000D03*
D12*
X90170000Y-45720000D03*
D11*
X87630000Y-48260000D03*
X85090000Y-48260000D03*
D12*
X82550000Y-48260000D03*
D13*
X80010000Y-48260000D03*
X77470000Y-48260000D03*
D12*
X74930000Y-48260000D03*
X95250000Y-48260000D03*
D13*
X92710000Y-48260000D03*
D12*
X90170000Y-48260000D03*
D11*
X87630000Y-50800000D03*
X85090000Y-50800000D03*
D12*
X82550000Y-50800000D03*
D13*
X80010000Y-50800000D03*
X77470000Y-50800000D03*
D12*
X74930000Y-50800000D03*
X95250000Y-50800000D03*
D13*
X92710000Y-50800000D03*
D12*
X90170000Y-50800000D03*
D11*
X87630000Y-53340000D03*
X85090000Y-53340000D03*
D12*
X82550000Y-53340000D03*
D13*
X80010000Y-53340000D03*
X77470000Y-53340000D03*
D12*
X74930000Y-53340000D03*
X95250000Y-53340000D03*
D13*
X92710000Y-53340000D03*
D12*
X90170000Y-53340000D03*
D11*
X87630000Y-55880000D03*
X85090000Y-55880000D03*
D12*
X82550000Y-55880000D03*
D13*
X80010000Y-55880000D03*
X77470000Y-55880000D03*
D12*
X74930000Y-55880000D03*
X95250000Y-55880000D03*
D13*
X92710000Y-55880000D03*
D12*
X90170000Y-55880000D03*
D11*
X87630000Y-58420000D03*
X85090000Y-58420000D03*
D12*
X82550000Y-58420000D03*
D13*
X80010000Y-58420000D03*
X77470000Y-58420000D03*
D12*
X74930000Y-58420000D03*
X95250000Y-58420000D03*
D13*
X92710000Y-58420000D03*
D12*
X90170000Y-58420000D03*
D11*
X87630000Y-60960000D03*
X85090000Y-60960000D03*
D12*
X82550000Y-60960000D03*
D13*
X80010000Y-60960000D03*
X77470000Y-60960000D03*
D12*
X74930000Y-60960000D03*
X95250000Y-60960000D03*
D13*
X92710000Y-60960000D03*
D12*
X90170000Y-60960000D03*
D11*
X87630000Y-63500000D03*
X85090000Y-63500000D03*
D12*
X82550000Y-63500000D03*
D13*
X80010000Y-63500000D03*
X77470000Y-63500000D03*
D12*
X74930000Y-63500000D03*
X95250000Y-63500000D03*
D13*
X92710000Y-63500000D03*
D12*
X90170000Y-63500000D03*
D11*
X87630000Y-66040000D03*
X85090000Y-66040000D03*
D12*
X82550000Y-66040000D03*
D13*
X80010000Y-66040000D03*
X77470000Y-66040000D03*
D12*
X74930000Y-66040000D03*
X95250000Y-66040000D03*
D13*
X92710000Y-66040000D03*
D12*
X90170000Y-66040000D03*
D11*
X87630000Y-68580000D03*
X85090000Y-68580000D03*
D12*
X82550000Y-68580000D03*
D13*
X80010000Y-68580000D03*
X77470000Y-68580000D03*
D12*
X74930000Y-68580000D03*
X95250000Y-68580000D03*
D13*
X92710000Y-68580000D03*
D12*
X90170000Y-68580000D03*
D11*
X87630000Y-71120000D03*
X85090000Y-71120000D03*
D12*
X82550000Y-71120000D03*
D13*
X80010000Y-71120000D03*
X77470000Y-71120000D03*
D12*
X74930000Y-71120000D03*
X95250000Y-71120000D03*
D13*
X92710000Y-71120000D03*
D12*
X90170000Y-71120000D03*
D11*
X87630000Y-73660000D03*
X85090000Y-73660000D03*
D12*
X82550000Y-73660000D03*
D13*
X80010000Y-73660000D03*
X77470000Y-73660000D03*
D12*
X74930000Y-73660000D03*
X95250000Y-73660000D03*
D13*
X92710000Y-73660000D03*
D12*
X90170000Y-73660000D03*
D11*
X87630000Y-76200000D03*
X85090000Y-76200000D03*
D12*
X82550000Y-76200000D03*
D13*
X80010000Y-76200000D03*
X77470000Y-76200000D03*
D12*
X74930000Y-76200000D03*
X95250000Y-76200000D03*
D13*
X92710000Y-76200000D03*
D12*
X90170000Y-76200000D03*
D11*
X87630000Y-78740000D03*
X85090000Y-78740000D03*
D12*
X82550000Y-78740000D03*
D13*
X80010000Y-78740000D03*
X77470000Y-78740000D03*
D12*
X74930000Y-78740000D03*
X95250000Y-78740000D03*
D13*
X92710000Y-78740000D03*
D12*
X90170000Y-78740000D03*
D11*
X87630000Y-81280000D03*
X85090000Y-81280000D03*
D12*
X82550000Y-81280000D03*
D13*
X80010000Y-81280000D03*
X77470000Y-81280000D03*
D12*
X74930000Y-81280000D03*
X95250000Y-81280000D03*
D13*
X92710000Y-81280000D03*
D12*
X90170000Y-81280000D03*
D11*
X87630000Y-83820000D03*
X85090000Y-83820000D03*
D12*
X82550000Y-83820000D03*
D13*
X80010000Y-83820000D03*
X77470000Y-83820000D03*
D12*
X74930000Y-83820000D03*
X95250000Y-83820000D03*
D13*
X92710000Y-83820000D03*
D12*
X90170000Y-83820000D03*
D11*
X87630000Y-86360000D03*
X85090000Y-86360000D03*
D12*
X82550000Y-86360000D03*
D13*
X80010000Y-86360000D03*
X77470000Y-86360000D03*
D12*
X74930000Y-86360000D03*
X95250000Y-86360000D03*
D13*
X92710000Y-86360000D03*
D12*
X90170000Y-86360000D03*
D11*
X87630000Y-88900000D03*
X85090000Y-88900000D03*
D12*
X82550000Y-88900000D03*
D13*
X80010000Y-88900000D03*
X77470000Y-88900000D03*
D12*
X74930000Y-88900000D03*
X95250000Y-88900000D03*
D13*
X92710000Y-88900000D03*
D12*
X90170000Y-88900000D03*
D14*
X13970000Y-96266000D03*
X13970000Y-94234000D03*
X62230000Y-15494000D03*
X64770000Y-15494000D03*
X67310000Y-15494000D03*
X69850000Y-15494000D03*
X72390000Y-15494000D03*
X59690000Y-15494000D03*
X57150000Y-15494000D03*
X54610000Y-15494000D03*
X52070000Y-15494000D03*
D15*
X62230000Y-17526000D03*
D11*
X59690000Y-17780000D03*
D15*
X57150000Y-17526000D03*
D14*
X64770000Y-17526000D03*
X54610000Y-17526000D03*
X52070000Y-17526000D03*
X67310000Y-17526000D03*
X69850000Y-17526000D03*
X72390000Y-17526000D03*
X16510000Y-15494000D03*
X19050000Y-15494000D03*
X21590000Y-15494000D03*
X24130000Y-15494000D03*
X26670000Y-15494000D03*
X13970000Y-15494000D03*
X11430000Y-15494000D03*
X8890000Y-15494000D03*
X6350000Y-15494000D03*
D15*
X16510000Y-17526000D03*
D11*
X13970000Y-17780000D03*
D15*
X11430000Y-17526000D03*
D14*
X19050000Y-17526000D03*
X8890000Y-17526000D03*
X6350000Y-17526000D03*
X21590000Y-17526000D03*
X24130000Y-17526000D03*
X26670000Y-17526000D03*
X39370000Y-15494000D03*
X41910000Y-15494000D03*
X44450000Y-15494000D03*
X46990000Y-15494000D03*
X49530000Y-15494000D03*
X36830000Y-15494000D03*
X34290000Y-15494000D03*
X31750000Y-15494000D03*
X29210000Y-15494000D03*
D15*
X36830000Y-17526000D03*
D11*
X39370000Y-17780000D03*
D15*
X41910000Y-17526000D03*
D14*
X34290000Y-17526000D03*
X31750000Y-17526000D03*
X29210000Y-17526000D03*
X44450000Y-17526000D03*
X46990000Y-17526000D03*
X49530000Y-17526000D03*
D12*
X90170000Y-2540000D03*
D11*
X90170000Y-5334000D03*
D12*
X90170000Y-12700000D03*
D11*
X90170000Y-7874000D03*
X90170000Y-9906000D03*
D12*
X87630000Y-2540000D03*
D11*
X87630000Y-5334000D03*
D12*
X87630000Y-12700000D03*
D11*
X87630000Y-7874000D03*
X87630000Y-9906000D03*
D12*
X85090000Y-2540000D03*
D11*
X85090000Y-5334000D03*
D12*
X85090000Y-12700000D03*
D11*
X85090000Y-7874000D03*
X85090000Y-9906000D03*
D12*
X82550000Y-2540000D03*
D11*
X82550000Y-5334000D03*
D12*
X82550000Y-12700000D03*
D11*
X82550000Y-7874000D03*
X82550000Y-9906000D03*
D12*
X80010000Y-2540000D03*
D11*
X80010000Y-5334000D03*
D12*
X80010000Y-12700000D03*
D11*
X80010000Y-7874000D03*
X80010000Y-9906000D03*
D12*
X77470000Y-2540000D03*
D11*
X77470000Y-5334000D03*
D12*
X77470000Y-12700000D03*
D11*
X77470000Y-7874000D03*
X77470000Y-9906000D03*
D12*
X74930000Y-2540000D03*
D11*
X74930000Y-5334000D03*
D12*
X74930000Y-12700000D03*
D11*
X74930000Y-7874000D03*
X74930000Y-9906000D03*
D12*
X72390000Y-2540000D03*
D11*
X72390000Y-5334000D03*
D12*
X72390000Y-12700000D03*
D11*
X72390000Y-7874000D03*
X72390000Y-9906000D03*
D12*
X69850000Y-2540000D03*
D11*
X69850000Y-5334000D03*
D12*
X69850000Y-12700000D03*
D11*
X69850000Y-7874000D03*
X69850000Y-9906000D03*
D12*
X67310000Y-2540000D03*
D11*
X67310000Y-5334000D03*
D12*
X67310000Y-12700000D03*
D11*
X67310000Y-7874000D03*
X67310000Y-9906000D03*
D12*
X64770000Y-2540000D03*
D11*
X64770000Y-5334000D03*
D12*
X64770000Y-12700000D03*
D11*
X64770000Y-7874000D03*
X64770000Y-9906000D03*
D12*
X62230000Y-2540000D03*
D11*
X62230000Y-5334000D03*
D12*
X62230000Y-12700000D03*
D11*
X62230000Y-7874000D03*
X62230000Y-9906000D03*
D12*
X59690000Y-2540000D03*
D11*
X59690000Y-5334000D03*
D12*
X59690000Y-12700000D03*
D11*
X59690000Y-7874000D03*
X59690000Y-9906000D03*
D12*
X57150000Y-2540000D03*
D11*
X57150000Y-5334000D03*
D12*
X57150000Y-12700000D03*
D11*
X57150000Y-7874000D03*
X57150000Y-9906000D03*
D12*
X54610000Y-2540000D03*
D11*
X54610000Y-5334000D03*
D12*
X54610000Y-12700000D03*
D11*
X54610000Y-7874000D03*
X54610000Y-9906000D03*
D12*
X52070000Y-2540000D03*
D11*
X52070000Y-5334000D03*
D12*
X52070000Y-12700000D03*
D11*
X52070000Y-7874000D03*
X52070000Y-9906000D03*
D12*
X49530000Y-2540000D03*
D11*
X49530000Y-5334000D03*
D12*
X49530000Y-12700000D03*
D11*
X49530000Y-7874000D03*
X49530000Y-9906000D03*
D12*
X46990000Y-2540000D03*
D11*
X46990000Y-5334000D03*
D12*
X46990000Y-12700000D03*
D11*
X46990000Y-7874000D03*
X46990000Y-9906000D03*
D12*
X44450000Y-2540000D03*
D11*
X44450000Y-5334000D03*
D12*
X44450000Y-12700000D03*
D11*
X44450000Y-7874000D03*
X44450000Y-9906000D03*
D12*
X41910000Y-2540000D03*
D11*
X41910000Y-5334000D03*
D12*
X41910000Y-12700000D03*
D11*
X41910000Y-7874000D03*
X41910000Y-9906000D03*
D12*
X39370000Y-2540000D03*
D11*
X39370000Y-5334000D03*
D12*
X39370000Y-12700000D03*
D11*
X39370000Y-7874000D03*
X39370000Y-9906000D03*
D12*
X36830000Y-2540000D03*
D11*
X36830000Y-5334000D03*
D12*
X36830000Y-12700000D03*
D11*
X36830000Y-7874000D03*
X36830000Y-9906000D03*
D12*
X34290000Y-2540000D03*
D11*
X34290000Y-5334000D03*
D12*
X34290000Y-12700000D03*
D11*
X34290000Y-7874000D03*
X34290000Y-9906000D03*
D12*
X31750000Y-2540000D03*
D11*
X31750000Y-5334000D03*
D12*
X31750000Y-12700000D03*
D11*
X31750000Y-7874000D03*
X31750000Y-9906000D03*
D12*
X29210000Y-2540000D03*
D11*
X29210000Y-5334000D03*
D12*
X29210000Y-12700000D03*
D11*
X29210000Y-7874000D03*
X29210000Y-9906000D03*
D12*
X26670000Y-2540000D03*
D11*
X26670000Y-5334000D03*
D12*
X26670000Y-12700000D03*
D11*
X26670000Y-7874000D03*
X26670000Y-9906000D03*
D12*
X24130000Y-2540000D03*
D11*
X24130000Y-5334000D03*
D12*
X24130000Y-12700000D03*
D11*
X24130000Y-7874000D03*
X24130000Y-9906000D03*
D12*
X21590000Y-2540000D03*
D11*
X21590000Y-5334000D03*
D12*
X21590000Y-12700000D03*
D11*
X21590000Y-7874000D03*
X21590000Y-9906000D03*
D12*
X19050000Y-2540000D03*
D11*
X19050000Y-5334000D03*
D12*
X19050000Y-12700000D03*
D11*
X19050000Y-7874000D03*
X19050000Y-9906000D03*
D12*
X16510000Y-2540000D03*
D11*
X16510000Y-5334000D03*
D12*
X16510000Y-12700000D03*
D11*
X16510000Y-7874000D03*
X16510000Y-9906000D03*
D12*
X13970000Y-2540000D03*
D11*
X13970000Y-5334000D03*
D12*
X13970000Y-12700000D03*
D11*
X13970000Y-7874000D03*
X13970000Y-9906000D03*
D12*
X11430000Y-2540000D03*
D11*
X11430000Y-5334000D03*
D12*
X11430000Y-12700000D03*
D11*
X11430000Y-7874000D03*
X11430000Y-9906000D03*
D12*
X8890000Y-2540000D03*
D11*
X8890000Y-5334000D03*
D12*
X8890000Y-12700000D03*
D11*
X8890000Y-7874000D03*
X8890000Y-9906000D03*
M02*
