G04 #@! TF.FileFunction,Legend,Bot*
%FSLAX46Y46*%
G04 Gerber Fmt 4.6, Leading zero omitted, Abs format (unit mm)*
G04 Created by KiCad (PCBNEW (after 2015-mar-04 BZR unknown)-product) date Mon 01 Jun 2015 23:22:56 BST*
%MOMM*%
G01*
G04 APERTURE LIST*
%ADD10C,0.150000*%
%ADD11C,0.254000*%
%ADD12C,0.300000*%
G04 APERTURE END LIST*
D10*
D11*
X93266381Y-96459523D02*
X92250381Y-96120856D01*
X93266381Y-95782190D01*
X92298762Y-95008095D02*
X92250381Y-95104857D01*
X92250381Y-95298380D01*
X92298762Y-95395142D01*
X92347143Y-95443523D01*
X92443905Y-95491904D01*
X92734190Y-95491904D01*
X92830952Y-95443523D01*
X92879333Y-95395142D01*
X92927714Y-95298380D01*
X92927714Y-95104857D01*
X92879333Y-95008095D01*
X92298762Y-94137238D02*
X92250381Y-94234000D01*
X92250381Y-94427523D01*
X92298762Y-94524285D01*
X92347143Y-94572666D01*
X92443905Y-94621047D01*
X92734190Y-94621047D01*
X92830952Y-94572666D01*
X92879333Y-94524285D01*
X92927714Y-94427523D01*
X92927714Y-94234000D01*
X92879333Y-94137238D01*
X6906381Y-96459523D02*
X5890381Y-96120856D01*
X6906381Y-95782190D01*
X5938762Y-95008095D02*
X5890381Y-95104857D01*
X5890381Y-95298380D01*
X5938762Y-95395142D01*
X5987143Y-95443523D01*
X6083905Y-95491904D01*
X6374190Y-95491904D01*
X6470952Y-95443523D01*
X6519333Y-95395142D01*
X6567714Y-95298380D01*
X6567714Y-95104857D01*
X6519333Y-95008095D01*
X5938762Y-94137238D02*
X5890381Y-94234000D01*
X5890381Y-94427523D01*
X5938762Y-94524285D01*
X5987143Y-94572666D01*
X6083905Y-94621047D01*
X6374190Y-94621047D01*
X6470952Y-94572666D01*
X6519333Y-94524285D01*
X6567714Y-94427523D01*
X6567714Y-94234000D01*
X6519333Y-94137238D01*
X98298000Y-17163143D02*
X98346381Y-17259905D01*
X98346381Y-17405048D01*
X98298000Y-17550190D01*
X98201238Y-17646952D01*
X98104476Y-17695333D01*
X97910952Y-17743714D01*
X97765810Y-17743714D01*
X97572286Y-17695333D01*
X97475524Y-17646952D01*
X97378762Y-17550190D01*
X97330381Y-17405048D01*
X97330381Y-17308286D01*
X97378762Y-17163143D01*
X97427143Y-17114762D01*
X97765810Y-17114762D01*
X97765810Y-17308286D01*
X98007714Y-16679333D02*
X97330381Y-16679333D01*
X97910952Y-16679333D02*
X97959333Y-16630952D01*
X98007714Y-16534190D01*
X98007714Y-16389048D01*
X97959333Y-16292286D01*
X97862571Y-16243905D01*
X97330381Y-16243905D01*
X97330381Y-15324667D02*
X98346381Y-15324667D01*
X97378762Y-15324667D02*
X97330381Y-15421429D01*
X97330381Y-15614952D01*
X97378762Y-15711714D01*
X97427143Y-15760095D01*
X97523905Y-15808476D01*
X97814190Y-15808476D01*
X97910952Y-15760095D01*
X97959333Y-15711714D01*
X98007714Y-15614952D01*
X98007714Y-15421429D01*
X97959333Y-15324667D01*
D12*
X3524286Y-88221429D02*
X3452857Y-88150000D01*
X3310000Y-88078571D01*
X2952857Y-88078571D01*
X2810000Y-88150000D01*
X2738571Y-88221429D01*
X2667143Y-88364286D01*
X2667143Y-88507143D01*
X2738571Y-88721429D01*
X3595714Y-89578571D01*
X2667143Y-89578571D01*
X1810000Y-88721429D02*
X1952858Y-88650000D01*
X2024286Y-88578571D01*
X2095715Y-88435714D01*
X2095715Y-88364286D01*
X2024286Y-88221429D01*
X1952858Y-88150000D01*
X1810000Y-88078571D01*
X1524286Y-88078571D01*
X1381429Y-88150000D01*
X1310000Y-88221429D01*
X1238572Y-88364286D01*
X1238572Y-88435714D01*
X1310000Y-88578571D01*
X1381429Y-88650000D01*
X1524286Y-88721429D01*
X1810000Y-88721429D01*
X1952858Y-88792857D01*
X2024286Y-88864286D01*
X2095715Y-89007143D01*
X2095715Y-89292857D01*
X2024286Y-89435714D01*
X1952858Y-89507143D01*
X1810000Y-89578571D01*
X1524286Y-89578571D01*
X1381429Y-89507143D01*
X1310000Y-89435714D01*
X1238572Y-89292857D01*
X1238572Y-89007143D01*
X1310000Y-88864286D01*
X1381429Y-88792857D01*
X1524286Y-88721429D01*
D11*
X4318000Y-17163143D02*
X4366381Y-17259905D01*
X4366381Y-17405048D01*
X4318000Y-17550190D01*
X4221238Y-17646952D01*
X4124476Y-17695333D01*
X3930952Y-17743714D01*
X3785810Y-17743714D01*
X3592286Y-17695333D01*
X3495524Y-17646952D01*
X3398762Y-17550190D01*
X3350381Y-17405048D01*
X3350381Y-17308286D01*
X3398762Y-17163143D01*
X3447143Y-17114762D01*
X3785810Y-17114762D01*
X3785810Y-17308286D01*
X4027714Y-16679333D02*
X3350381Y-16679333D01*
X3930952Y-16679333D02*
X3979333Y-16630952D01*
X4027714Y-16534190D01*
X4027714Y-16389048D01*
X3979333Y-16292286D01*
X3882571Y-16243905D01*
X3350381Y-16243905D01*
X3350381Y-15324667D02*
X4366381Y-15324667D01*
X3398762Y-15324667D02*
X3350381Y-15421429D01*
X3350381Y-15614952D01*
X3398762Y-15711714D01*
X3447143Y-15760095D01*
X3543905Y-15808476D01*
X3834190Y-15808476D01*
X3930952Y-15760095D01*
X3979333Y-15711714D01*
X4027714Y-15614952D01*
X4027714Y-15421429D01*
X3979333Y-15324667D01*
D12*
X3524286Y-22181429D02*
X3452857Y-22110000D01*
X3310000Y-22038571D01*
X2952857Y-22038571D01*
X2810000Y-22110000D01*
X2738571Y-22181429D01*
X2667143Y-22324286D01*
X2667143Y-22467143D01*
X2738571Y-22681429D01*
X3595714Y-23538571D01*
X2667143Y-23538571D01*
X2810000Y-27618571D02*
X2810000Y-28618571D01*
X3167143Y-27047143D02*
X3524286Y-28118571D01*
X2595714Y-28118571D01*
X2810000Y-32198571D02*
X3095714Y-32198571D01*
X3238571Y-32270000D01*
X3310000Y-32341429D01*
X3452857Y-32555714D01*
X3524286Y-32841429D01*
X3524286Y-33412857D01*
X3452857Y-33555714D01*
X3381429Y-33627143D01*
X3238571Y-33698571D01*
X2952857Y-33698571D01*
X2810000Y-33627143D01*
X2738571Y-33555714D01*
X2667143Y-33412857D01*
X2667143Y-33055714D01*
X2738571Y-32912857D01*
X2810000Y-32841429D01*
X2952857Y-32770000D01*
X3238571Y-32770000D01*
X3381429Y-32841429D01*
X3452857Y-32912857D01*
X3524286Y-33055714D01*
X3238571Y-37921429D02*
X3381429Y-37850000D01*
X3452857Y-37778571D01*
X3524286Y-37635714D01*
X3524286Y-37564286D01*
X3452857Y-37421429D01*
X3381429Y-37350000D01*
X3238571Y-37278571D01*
X2952857Y-37278571D01*
X2810000Y-37350000D01*
X2738571Y-37421429D01*
X2667143Y-37564286D01*
X2667143Y-37635714D01*
X2738571Y-37778571D01*
X2810000Y-37850000D01*
X2952857Y-37921429D01*
X3238571Y-37921429D01*
X3381429Y-37992857D01*
X3452857Y-38064286D01*
X3524286Y-38207143D01*
X3524286Y-38492857D01*
X3452857Y-38635714D01*
X3381429Y-38707143D01*
X3238571Y-38778571D01*
X2952857Y-38778571D01*
X2810000Y-38707143D01*
X2738571Y-38635714D01*
X2667143Y-38492857D01*
X2667143Y-38207143D01*
X2738571Y-38064286D01*
X2810000Y-37992857D01*
X2952857Y-37921429D01*
X2667143Y-43858571D02*
X3524286Y-43858571D01*
X3095714Y-43858571D02*
X3095714Y-42358571D01*
X3238571Y-42572857D01*
X3381429Y-42715714D01*
X3524286Y-42787143D01*
X1738572Y-42358571D02*
X1595715Y-42358571D01*
X1452858Y-42430000D01*
X1381429Y-42501429D01*
X1310000Y-42644286D01*
X1238572Y-42930000D01*
X1238572Y-43287143D01*
X1310000Y-43572857D01*
X1381429Y-43715714D01*
X1452858Y-43787143D01*
X1595715Y-43858571D01*
X1738572Y-43858571D01*
X1881429Y-43787143D01*
X1952858Y-43715714D01*
X2024286Y-43572857D01*
X2095715Y-43287143D01*
X2095715Y-42930000D01*
X2024286Y-42644286D01*
X1952858Y-42501429D01*
X1881429Y-42430000D01*
X1738572Y-42358571D01*
X2667143Y-48938571D02*
X3524286Y-48938571D01*
X3095714Y-48938571D02*
X3095714Y-47438571D01*
X3238571Y-47652857D01*
X3381429Y-47795714D01*
X3524286Y-47867143D01*
X2095715Y-47581429D02*
X2024286Y-47510000D01*
X1881429Y-47438571D01*
X1524286Y-47438571D01*
X1381429Y-47510000D01*
X1310000Y-47581429D01*
X1238572Y-47724286D01*
X1238572Y-47867143D01*
X1310000Y-48081429D01*
X2167143Y-48938571D01*
X1238572Y-48938571D01*
X2667143Y-54018571D02*
X3524286Y-54018571D01*
X3095714Y-54018571D02*
X3095714Y-52518571D01*
X3238571Y-52732857D01*
X3381429Y-52875714D01*
X3524286Y-52947143D01*
X1381429Y-53018571D02*
X1381429Y-54018571D01*
X1738572Y-52447143D02*
X2095715Y-53518571D01*
X1167143Y-53518571D01*
X2667143Y-59098571D02*
X3524286Y-59098571D01*
X3095714Y-59098571D02*
X3095714Y-57598571D01*
X3238571Y-57812857D01*
X3381429Y-57955714D01*
X3524286Y-58027143D01*
X1381429Y-57598571D02*
X1667143Y-57598571D01*
X1810000Y-57670000D01*
X1881429Y-57741429D01*
X2024286Y-57955714D01*
X2095715Y-58241429D01*
X2095715Y-58812857D01*
X2024286Y-58955714D01*
X1952858Y-59027143D01*
X1810000Y-59098571D01*
X1524286Y-59098571D01*
X1381429Y-59027143D01*
X1310000Y-58955714D01*
X1238572Y-58812857D01*
X1238572Y-58455714D01*
X1310000Y-58312857D01*
X1381429Y-58241429D01*
X1524286Y-58170000D01*
X1810000Y-58170000D01*
X1952858Y-58241429D01*
X2024286Y-58312857D01*
X2095715Y-58455714D01*
X2667143Y-64178571D02*
X3524286Y-64178571D01*
X3095714Y-64178571D02*
X3095714Y-62678571D01*
X3238571Y-62892857D01*
X3381429Y-63035714D01*
X3524286Y-63107143D01*
X1810000Y-63321429D02*
X1952858Y-63250000D01*
X2024286Y-63178571D01*
X2095715Y-63035714D01*
X2095715Y-62964286D01*
X2024286Y-62821429D01*
X1952858Y-62750000D01*
X1810000Y-62678571D01*
X1524286Y-62678571D01*
X1381429Y-62750000D01*
X1310000Y-62821429D01*
X1238572Y-62964286D01*
X1238572Y-63035714D01*
X1310000Y-63178571D01*
X1381429Y-63250000D01*
X1524286Y-63321429D01*
X1810000Y-63321429D01*
X1952858Y-63392857D01*
X2024286Y-63464286D01*
X2095715Y-63607143D01*
X2095715Y-63892857D01*
X2024286Y-64035714D01*
X1952858Y-64107143D01*
X1810000Y-64178571D01*
X1524286Y-64178571D01*
X1381429Y-64107143D01*
X1310000Y-64035714D01*
X1238572Y-63892857D01*
X1238572Y-63607143D01*
X1310000Y-63464286D01*
X1381429Y-63392857D01*
X1524286Y-63321429D01*
X3524286Y-67901429D02*
X3452857Y-67830000D01*
X3310000Y-67758571D01*
X2952857Y-67758571D01*
X2810000Y-67830000D01*
X2738571Y-67901429D01*
X2667143Y-68044286D01*
X2667143Y-68187143D01*
X2738571Y-68401429D01*
X3595714Y-69258571D01*
X2667143Y-69258571D01*
X1738572Y-67758571D02*
X1595715Y-67758571D01*
X1452858Y-67830000D01*
X1381429Y-67901429D01*
X1310000Y-68044286D01*
X1238572Y-68330000D01*
X1238572Y-68687143D01*
X1310000Y-68972857D01*
X1381429Y-69115714D01*
X1452858Y-69187143D01*
X1595715Y-69258571D01*
X1738572Y-69258571D01*
X1881429Y-69187143D01*
X1952858Y-69115714D01*
X2024286Y-68972857D01*
X2095715Y-68687143D01*
X2095715Y-68330000D01*
X2024286Y-68044286D01*
X1952858Y-67901429D01*
X1881429Y-67830000D01*
X1738572Y-67758571D01*
X3524286Y-72981429D02*
X3452857Y-72910000D01*
X3310000Y-72838571D01*
X2952857Y-72838571D01*
X2810000Y-72910000D01*
X2738571Y-72981429D01*
X2667143Y-73124286D01*
X2667143Y-73267143D01*
X2738571Y-73481429D01*
X3595714Y-74338571D01*
X2667143Y-74338571D01*
X2095715Y-72981429D02*
X2024286Y-72910000D01*
X1881429Y-72838571D01*
X1524286Y-72838571D01*
X1381429Y-72910000D01*
X1310000Y-72981429D01*
X1238572Y-73124286D01*
X1238572Y-73267143D01*
X1310000Y-73481429D01*
X2167143Y-74338571D01*
X1238572Y-74338571D01*
X3524286Y-78061429D02*
X3452857Y-77990000D01*
X3310000Y-77918571D01*
X2952857Y-77918571D01*
X2810000Y-77990000D01*
X2738571Y-78061429D01*
X2667143Y-78204286D01*
X2667143Y-78347143D01*
X2738571Y-78561429D01*
X3595714Y-79418571D01*
X2667143Y-79418571D01*
X1381429Y-78418571D02*
X1381429Y-79418571D01*
X1738572Y-77847143D02*
X2095715Y-78918571D01*
X1167143Y-78918571D01*
X3524286Y-83141429D02*
X3452857Y-83070000D01*
X3310000Y-82998571D01*
X2952857Y-82998571D01*
X2810000Y-83070000D01*
X2738571Y-83141429D01*
X2667143Y-83284286D01*
X2667143Y-83427143D01*
X2738571Y-83641429D01*
X3595714Y-84498571D01*
X2667143Y-84498571D01*
X1381429Y-82998571D02*
X1667143Y-82998571D01*
X1810000Y-83070000D01*
X1881429Y-83141429D01*
X2024286Y-83355714D01*
X2095715Y-83641429D01*
X2095715Y-84212857D01*
X2024286Y-84355714D01*
X1952858Y-84427143D01*
X1810000Y-84498571D01*
X1524286Y-84498571D01*
X1381429Y-84427143D01*
X1310000Y-84355714D01*
X1238572Y-84212857D01*
X1238572Y-83855714D01*
X1310000Y-83712857D01*
X1381429Y-83641429D01*
X1524286Y-83570000D01*
X1810000Y-83570000D01*
X1952858Y-83641429D01*
X2024286Y-83712857D01*
X2095715Y-83855714D01*
M02*
